<svg width="202" height="76" viewBox="0 0 202 76" fill="none" xmlns="http://www.w3.org/2000/svg">
<path d="M51.6708 29.9994C51.4668 28.8456 50.7126 27.9524 49.7632 27.8826C48.7961 27.8081 47.8245 27.864 46.8174 27.864C46.8041 28.0128 46.7908 28.0873 46.7908 28.1617C46.7908 33.8423 46.7819 39.5229 46.8041 45.2082C46.8041 45.7339 46.9239 46.2829 47.1102 46.7714C47.4918 47.7763 48.2637 48.2369 49.2841 48.2369C50.3044 48.2369 51.0897 47.7624 51.449 46.7621C51.662 46.1666 51.7684 45.5013 51.7729 44.8639C51.7995 40.3139 51.7906 35.7684 51.7818 31.2184C51.7818 30.8136 51.7418 30.3995 51.6708 30.0041V29.9994Z" fill="white"/>
<path d="M138.484 33.3933C138.437 32.3091 138.45 31.2202 138.325 30.15C138.2 29.0752 137.665 28.2679 136.651 27.9581C135.11 27.4888 133.708 28.5026 133.582 30.319C133.457 32.1824 133.513 34.0551 133.483 35.9278C133.475 36.3127 133.682 36.3362 133.949 36.3362C135.291 36.3315 136.638 36.3221 137.98 36.3409C138.351 36.3456 138.454 36.1907 138.446 35.8105C138.424 35.0079 138.441 34.2006 138.441 33.398C138.454 33.398 138.472 33.398 138.484 33.398V33.3933Z" fill="white"/>
<path d="M121.549 36.3311C121.638 36.3311 121.8 36.1195 121.8 36.0019C121.8 34.1118 121.848 32.2122 121.756 30.3268C121.678 28.8034 120.83 27.863 119.745 27.8442C118.664 27.8254 117.793 28.6717 117.704 30.1951C117.59 32.2028 117.675 34.2293 117.675 36.3405C118.963 36.3405 120.258 36.3452 121.549 36.3264V36.3311Z" fill="white"/>
<path d="M62.7129 36.341H67.6248C67.6248 35.5937 67.6337 34.875 67.6248 34.161C67.6026 32.8521 67.6248 31.5384 67.5228 30.239C67.4251 29.0205 66.7196 28.1876 65.7568 27.9353C64.1771 27.5212 62.7839 28.5446 62.6862 30.3771C62.5797 32.3238 62.6507 34.28 62.6463 36.2363C62.6463 36.2648 62.6818 36.2934 62.7129 36.341Z" fill="white"/>
<path d="M172.648 19.4803C172.648 18.7918 172.597 18.0939 172.455 17.4241C171.505 12.993 167.824 10 163.34 10C142.411 10 121.483 10 100.554 10C79.626 10 58.693 10 37.7645 10C32.4865 10 28.4568 14.0985 28.4568 19.4756C28.4477 31.8506 28.4477 44.2303 28.4568 56.6053C28.4568 61.9872 32.4819 66.0809 37.7645 66.0809C79.6214 66.0809 121.478 66.0809 163.34 66.0809C168.618 66.0809 172.652 61.9872 172.657 56.61C172.666 44.235 172.661 31.8553 172.652 19.4803H172.648ZM55.2003 46.2069C55.1911 47.0688 54.9938 47.954 54.7322 48.7831C53.929 51.3452 51.9096 52.8488 49.1329 52.9424C48.2654 52.9706 47.3613 52.8956 46.5214 52.6755C43.9742 52.0057 42.6937 50.1321 42.2256 47.6121C42.0741 46.8112 42.0053 45.9774 42.0053 45.1624C41.9915 35.9865 41.9961 26.8107 41.9961 17.6302V17.0634H46.0257V23.9066C46.7784 23.9066 47.4714 23.8739 48.1553 23.916C48.9906 23.9675 49.8534 23.9816 50.6566 24.1877C53.3736 24.8903 54.6817 26.8716 55.0947 29.5695C55.2095 30.3237 55.2508 31.0965 55.2508 31.86C55.2508 36.6423 55.2554 41.4293 55.2003 46.2116V46.2069ZM62.2269 45.406C62.2269 45.7947 62.2636 46.1929 62.3463 46.5723C62.6629 48.0056 63.5992 48.755 64.9669 48.6941C66.2015 48.6379 67.1286 47.7479 67.303 46.3615C67.404 45.5512 67.404 44.7315 67.4499 43.8743H71.4061C71.4795 46.5348 71.4474 49.1719 69.4417 51.2375C67.9318 52.7926 65.9858 53.1439 63.9434 52.9143C60.616 52.5396 58.6333 50.4131 58.2891 46.9564C58.2156 46.235 58.1789 45.5043 58.1789 44.7736C58.1697 40.2864 58.1606 35.7992 58.1881 31.312C58.1927 30.3658 58.2615 29.3962 58.4589 28.4782C59.1932 25.0729 61.6027 23.2415 65.0266 23.3961C68.8635 23.5694 71.172 25.8364 71.3556 29.9255C71.5071 33.3214 71.4015 36.7266 71.4061 40.1318C71.4061 40.1646 71.3831 40.2021 71.3464 40.3098H62.2728C62.2545 40.4972 62.2223 40.6564 62.2223 40.8157C62.2223 42.3474 62.2132 43.8837 62.2269 45.4153V45.406ZM82.6919 52.8066C81.4297 53.0502 80.1722 53.0361 78.933 52.6801C76.2251 51.8979 74.986 49.8791 74.5867 47.1999C74.4719 46.4458 74.449 45.673 74.4444 44.9095C74.4352 35.8413 74.4398 26.7732 74.4398 17.7098V17.0774H78.4465V23.8879H85.1794V28.0847H78.4603C78.4603 28.3517 78.4603 28.5531 78.4603 28.7498C78.4603 34.2066 78.4603 39.6681 78.4603 45.1249C78.4603 45.495 78.4878 45.8744 78.5383 46.2397C78.7448 47.8276 79.7132 48.7316 81.1589 48.6941C82.4991 48.6613 83.4537 47.673 83.596 46.146C83.6373 45.7011 83.6465 45.2561 83.674 44.7643H87.6165C87.9056 48.4131 86.5196 52.0619 82.6873 52.8019L82.6919 52.8066ZM109.596 45.8041C109.596 46.7831 109.49 47.7995 109.206 48.7269C107.751 53.467 102.432 53.8699 99.7467 51.7527C99.6044 51.6403 99.4576 51.5232 99.2878 51.3921C98.1679 52.3851 96.8736 52.9331 95.3866 52.9659C91.9812 53.0314 89.4477 50.7504 89.1035 47.2936C89.0438 46.68 89.0117 46.0617 89.0117 45.4481C89.0071 38.5299 89.0117 31.6117 89.0117 24.6935V23.9441H93.0689V24.6842C93.0689 31.6773 93.0689 38.6705 93.0689 45.6636C93.0689 46.1086 93.0872 46.5629 93.179 46.9985C93.4269 48.1742 94.1887 48.755 95.3453 48.7035C96.3642 48.6566 97.0893 47.9447 97.2362 46.7924C97.2913 46.3662 97.2959 45.9353 97.2959 45.5043C97.2959 38.5861 97.2959 31.6679 97.2959 24.7498V23.9254H101.335V24.6373C101.335 31.6679 101.33 38.6986 101.344 45.7245C101.344 46.2772 101.417 46.8486 101.578 47.3732C101.853 48.2679 102.574 48.7128 103.529 48.6988C104.442 48.6847 105.126 48.2163 105.378 47.317C105.52 46.8065 105.585 46.2538 105.585 45.7151C105.598 38.7032 105.594 31.6914 105.594 24.6842C105.594 24.4453 105.594 24.2064 105.594 23.9394H109.587C109.596 24.1549 109.614 24.3516 109.614 24.5483C109.614 31.6352 109.628 38.722 109.596 45.8041ZM125.926 46.9657C125.88 47.4997 125.751 48.0383 125.595 48.5536C124.572 51.9635 121.836 53.1251 118.812 52.9003C114.704 52.5911 113.011 49.7246 112.933 46.2866C112.804 40.886 112.873 35.4807 112.923 30.0801C112.933 29.1667 113.171 28.2206 113.474 27.354C114.314 24.9558 116.09 23.7146 118.527 23.4991C119.445 23.4195 120.409 23.4664 121.309 23.6584C123.819 24.2017 125.407 26.08 125.848 28.8763C125.949 29.504 126.031 30.1363 126.036 30.7686C126.054 33.8179 126.045 36.8624 126.045 39.9117C126.045 40.0007 126.027 40.0944 126.004 40.2817H116.857C116.847 40.53 116.829 40.7314 116.829 40.9281C116.829 42.4036 116.825 43.8837 116.829 45.3591C116.829 45.7104 116.857 46.0711 116.921 46.4177C117.21 47.9775 118.165 48.7878 119.62 48.7222C120.923 48.666 121.868 47.6824 122.011 46.1788C122.07 45.5465 122.029 44.9095 122.075 44.2771C122.084 44.1366 122.272 43.8977 122.382 43.8931C123.571 43.865 124.764 43.8743 126.082 43.8743C126.031 44.9376 126.008 45.9587 125.921 46.9704L125.926 46.9657ZM142.361 45.6167C142.361 46.3755 142.265 47.1531 142.099 47.8932C141.236 51.8417 138.35 53.1626 135.16 52.8909C131.63 52.5911 129.593 50.4084 129.294 46.7971C129.216 45.8556 129.198 44.9048 129.148 43.8743C130.451 43.8743 131.621 43.879 132.796 43.8743C133.104 43.8743 133.15 44.0429 133.159 44.3006C133.177 44.9704 133.163 45.6495 133.246 46.3147C133.476 48.1508 135.027 49.1766 136.665 48.5957C137.675 48.2351 138.244 47.4341 138.304 46.4037C138.414 44.4645 138.391 42.5207 138.418 40.5768C138.418 40.5066 138.396 40.4363 138.368 40.2958H129.226C129.212 40.0475 129.193 39.8649 129.193 39.6869C129.193 36.8437 129.138 34.0006 129.216 31.1621C129.253 29.9255 129.414 28.6515 129.781 27.4758C130.552 25.0121 132.369 23.7287 134.857 23.4991C135.775 23.4148 136.743 23.457 137.643 23.6537C140.236 24.2205 141.613 26.0378 142.136 28.5906C142.278 29.2838 142.366 29.9958 142.366 30.7031C142.384 35.6774 142.388 40.6471 142.366 45.6214L142.361 45.6167ZM158.874 51.4951V52.1321H154.817V51.4436C154.817 44.6753 154.822 37.9117 154.808 31.1433C154.808 30.5344 154.734 29.9068 154.56 29.326C154.234 28.244 153.316 27.6257 152.224 27.6304C151.122 27.6351 150.218 28.258 149.902 29.3447C149.732 29.9255 149.663 30.5532 149.658 31.1621C149.645 37.9117 149.649 44.6565 149.649 51.4061V52.1462H145.624C145.615 51.9448 145.592 51.748 145.592 51.5513C145.592 44.8017 145.578 38.0569 145.606 31.3073C145.606 30.2862 145.711 29.2463 145.936 28.2533C146.661 25.0729 148.933 23.3586 152.293 23.3914C152.986 23.4008 153.693 23.4664 154.363 23.6209C156.768 24.183 158.268 25.9348 158.668 28.6234C158.792 29.4524 158.86 30.2956 158.865 31.134C158.879 37.921 158.874 44.7034 158.874 51.4904V51.4951Z" fill="white"/>
</svg>
