<svg width="99" height="82" viewBox="0 0 99 82" fill="none" xmlns="http://www.w3.org/2000/svg">
<g clip-path="url(#clip0_344_158)">
<path d="M50.3542 56.1236C47.6424 56.1236 44.9273 56.2146 42.2222 56.0883C40.7283 56.0189 39.2399 55.6377 37.7707 55.2975C36.6685 55.0415 35.5573 54.7274 34.5314 54.2586C33.0935 53.602 31.6669 52.8738 30.3515 51.9976C28.9226 51.0464 27.5409 49.9847 26.2872 48.8082C23.4216 46.1182 21.1206 42.9948 19.5571 39.3274C17.842 35.3038 17.1967 31.1028 17.4514 26.7618C17.5614 24.8991 17.7567 23.0159 18.1664 21.201C18.9196 17.8602 20.3518 14.7947 22.3475 12.0149C24.7146 8.71619 27.5892 5.9796 31.035 3.85291C33.2193 2.50452 35.5629 1.54529 38.0165 0.888737C39.3612 0.52803 40.7653 0.385795 42.1504 0.195769C44.2942 -0.0989408 46.4515 -0.0340818 48.5852 0.228768C50.169 0.423345 51.7426 0.793155 53.2871 1.21417C55.1772 1.72963 56.9608 2.55004 58.6567 3.54454C62.363 5.71903 65.4227 8.60923 67.9336 12.1219C69.423 14.2053 70.569 16.4708 71.394 18.8854C71.8609 20.2509 72.1774 21.6869 72.3941 23.116C72.6477 24.7955 72.7398 26.5012 72.8588 28.1989C72.9126 28.9659 72.7622 29.0808 71.981 29.0808C67.3982 29.0842 62.8153 29.0762 58.2336 29.0933C57.7352 29.0956 57.568 28.9181 57.5882 28.4322C57.6634 26.7072 57.3682 25.0447 56.7396 23.4381C55.8002 21.0405 54.1738 19.1926 52.1523 17.7054C49.6605 15.8712 46.8118 15.2237 43.7869 15.5457C39.6709 15.9838 36.5607 18.1469 34.3967 21.6618C32.7905 24.271 32.2899 27.1362 32.795 30.1982C33.4976 34.4538 35.8794 37.4499 39.516 39.473C41.1986 40.4084 43.0685 40.8214 44.9957 40.8282C49.5404 40.8442 54.0862 40.8328 58.6309 40.8339C59.1629 40.8339 59.4293 41.1051 59.4301 41.6475C59.4301 46.2172 59.4301 50.7869 59.4301 55.3566C59.4301 55.937 59.1356 56.2275 58.5467 56.2283M50.1151 42.7683C49.8536 42.7683 49.5909 42.7797 49.3294 42.766C46.7804 42.6397 44.1943 43.1245 41.6846 42.4224C40.4589 42.0788 39.2253 41.6418 38.1119 41.0308C35.7885 39.7552 33.9713 37.8845 32.5862 35.6031C31.5985 33.9759 30.9351 32.1974 30.7409 30.3086C30.5591 28.546 30.5277 26.7698 30.9261 24.9969C31.2449 23.5814 31.7085 22.2456 32.4134 20.995C33.5896 18.907 35.197 17.2093 37.1444 15.8518C38.8897 14.6354 40.8248 13.8036 42.9282 13.6034C45.191 13.3872 47.4651 13.353 49.6773 14.1541C51.2555 14.7253 52.7719 15.4297 54.0043 16.555C55.2008 17.6474 56.3266 18.8626 57.275 20.1792C58.5849 21.9975 59.3728 24.0844 59.4817 26.3715C59.5075 26.9188 59.7432 27.0337 60.2124 27.0315C63.5415 27.0212 66.8706 27.0201 70.1997 27.0337C70.6554 27.036 70.8687 26.8972 70.7991 26.4136C70.6038 25.0527 70.5017 23.6702 70.1986 22.3343C69.8619 20.8539 69.4511 19.3701 68.8798 17.9694C68.0604 15.9599 66.9559 14.0961 65.618 12.3779C63.7166 9.93714 61.5133 7.81158 58.9564 6.11387C56.789 4.67445 54.4387 3.59006 51.8964 2.95057C50.0623 2.48859 48.2148 2.19843 46.3303 2.11764C43.8553 2.01182 41.3927 2.16885 38.9908 2.76737C37.5552 3.12467 36.1712 3.70385 34.7817 4.23296C32.5031 5.10002 30.5254 6.4962 28.688 8.06761C26.4959 9.94169 24.5508 12.0729 23.0972 14.5967C22.2846 16.0089 21.5326 17.4756 20.9411 18.9935C20.4539 20.244 20.1744 21.5924 19.9298 22.9215C19.6738 24.3108 19.4943 25.724 19.4123 27.1339C19.2877 29.2754 19.4471 31.4112 19.9387 33.5071C20.2395 34.7884 20.482 36.0981 20.9366 37.3247C21.8379 39.7541 23.0838 42.0002 24.6944 44.0416C26.6722 46.5461 28.9417 48.7046 31.622 50.416C33.1373 51.3832 34.7166 52.2218 36.435 52.7486C37.5698 53.0957 38.7146 53.4279 39.8763 53.6646C41.0975 53.9127 42.3401 54.1744 43.577 54.1926C47.9713 54.2563 52.3667 54.2108 56.7621 54.2267C57.2964 54.229 57.4748 54.0549 57.4715 53.5076C57.4524 50.152 57.4524 46.7953 57.4715 43.4397C57.4748 42.9162 57.3053 42.7569 56.7958 42.7626C54.57 42.7854 52.3442 42.7729 50.1185 42.7717L50.1151 42.7683Z" fill="white"/>
<path d="M99.0001 81.4925C98.3928 81.4925 97.9517 81.4925 97.5106 81.4925C96.8001 81.4925 96.0896 81.4788 95.3791 81.4959C94.3779 81.5186 93.6865 81.0578 93.2083 80.1816C92.3082 78.534 91.3889 76.8977 90.4696 75.2603C90.0936 74.5912 89.1182 74.2203 88.4246 74.5309C88.2607 74.6049 88.1283 75.1681 88.1283 75.1681L88.1137 81.4959L87.3055 81.4925H84.5578L83.8081 81.4959C83.8081 81.4959 83.8081 70.5836 83.8081 65.5041C83.8081 64.6894 83.8047 62.5491 83.8047 62.5491L84.2952 62.5525C84.2952 62.5525 88.4841 62.5286 90.574 62.6196C92.1005 62.6868 93.6147 62.9394 94.9683 63.77C96.1502 64.496 96.8203 65.5394 97.1638 66.9003C97.4421 68.0029 97.3512 69.0782 97.0336 70.083C96.5969 71.4643 95.6597 72.5305 94.3622 73.2212C93.8268 73.5057 93.8908 73.5489 94.2791 73.9984C94.8841 74.6993 95.4128 75.4765 95.9156 76.2594C96.6946 77.4746 97.4309 78.7172 98.1717 79.9575C98.4377 80.4012 98.6656 80.8689 99.0001 81.4925ZM88.117 68.672H88.1148C88.1148 69.3536 88.1058 70.7156 88.1058 70.7156V71.4177C88.1058 71.4177 89.7423 71.4177 90.2272 71.4052C92.1667 71.3597 93.3442 69.8508 92.9592 67.9267C92.7785 67.0209 92.2307 66.1209 91.3867 65.9343C90.4887 65.7351 88.1058 65.7818 88.1058 65.7818L88.1159 66.5146C88.1159 66.5146 88.117 67.9529 88.117 68.672Z" fill="white"/>
<path d="M33.4426 72.0731C33.4426 69.134 33.4314 62.5468 33.4314 62.5468L34.1251 62.5446L45.4335 62.5571V63.3251V65.1457V66.0094C45.4335 66.0094 40.6587 66.0094 38.7146 66.0117C37.8942 66.0117 37.8088 66.0982 37.8055 66.9174C37.8032 67.8084 37.8234 68.7005 37.7987 69.5903C37.783 70.1308 37.9963 70.339 38.525 70.3333C40.0391 70.3163 43.7409 70.3197 43.7409 70.3197L43.7319 70.9694V73.0164L43.7206 73.6002L38.5979 73.5945C38.5979 73.5945 37.8133 73.6867 37.8088 74.3751C37.8032 75.3605 37.8178 76.347 37.8032 77.3324C37.7954 77.841 38.012 78.0459 38.5115 78.0436C40.5307 78.0322 45.4357 78.0402 45.4357 78.0402V78.9232V80.7438V81.4914C45.4357 81.4914 41.4242 81.4925 39.7787 81.4925C37.9087 81.4925 34.1688 81.505 34.1688 81.505L33.4325 81.4982C33.4325 81.4982 33.4449 74.9736 33.4449 72.0731H33.4426Z" fill="white"/>
<path d="M57.4422 75.9067C57.6835 75.1613 57.9159 74.4138 58.1696 73.6719C58.5198 72.6501 58.8857 71.6328 59.2437 70.6144C59.6916 69.3411 60.1349 68.0667 60.5884 66.7968C60.9767 65.7067 61.3763 64.62 61.7737 63.5334C62.024 62.8506 62.5986 62.6071 63.2317 62.5741C64.2205 62.5229 65.2128 62.5616 66.2039 62.5559C66.6371 62.5537 66.7213 62.7414 66.5653 63.1306C65.976 64.6018 65.4002 66.0799 64.8143 67.5524C64.5045 68.3295 64.1734 69.0987 63.867 69.8782C63.3697 71.1424 62.8938 72.4156 62.3932 73.6798C61.9869 74.7039 61.5537 75.7155 61.1395 76.7373C60.5614 78.1642 60.0058 79.5991 59.4031 81.0146C59.3155 81.2205 59.0248 81.4618 58.8194 81.4709C57.7554 81.5164 56.688 81.5073 55.6228 81.4766C55.469 81.472 55.2524 81.2808 55.1828 81.1227C54.7956 80.2363 54.4386 79.3351 54.0828 78.435C53.7405 77.5702 53.4183 76.6975 53.0726 75.8338C52.5956 74.6413 52.095 73.4579 51.6247 72.262C51.0859 70.8909 50.5831 69.5061 50.0432 68.1361C49.5785 66.9572 49.0824 65.7898 48.6031 64.6166C48.391 64.0978 48.18 63.5789 47.9847 63.0532C47.8792 62.7687 47.9454 62.5616 48.2978 62.5616C49.3451 62.5628 50.3934 62.5332 51.4384 62.5787C52.2353 62.614 52.8212 63.2318 53.0659 63.9954C53.4116 65.0797 53.8404 66.1368 54.2164 67.211C54.5497 68.1634 54.8506 69.1272 55.1805 70.0807C55.6284 71.3722 56.0942 72.658 56.5443 73.9484C56.7115 74.4286 56.8485 74.919 57.0179 75.3992C57.0909 75.6063 57.2088 75.7963 57.3053 75.9954C57.3502 75.9658 57.3962 75.9374 57.4411 75.9078L57.4422 75.9067Z" fill="white"/>
<path d="M17.466 64.884L14.8149 69.0782C14.8149 69.0782 12.6104 67.4841 11.8247 67.1074C11.1176 66.7479 9.89193 66.254 8.29472 66.8696C6.38324 67.4329 5.25183 69.0213 5.06776 70.9637C4.88031 72.9436 5.67611 74.9474 7.27332 76.3743C8.74482 77.709 11.1434 77.3859 11.9157 76.908C12.8697 76.3698 14.257 75.6097 14.257 75.6097L16.8768 78.9948C16.8768 78.9948 15.1965 80.5492 13.7553 81.1579C11.5767 82.0773 9.30378 82.2275 7.04996 81.6984C3.89707 80.9588 1.91711 79.3464 0.76214 76.2332C-0.0359035 74.0815 -0.222226 71.8569 0.266028 69.6438C1.01356 66.254 2.73985 64.0431 5.99376 62.746C8.11177 61.9016 10.2938 61.7617 12.487 62.2066C14.4198 62.5992 17.4638 64.884 17.4638 64.884H17.466ZM15.7813 65.3176C15.7813 65.3176 13.9192 64.0101 13.2042 63.7735C10.4183 62.8518 7.70321 63.0088 5.13286 64.5518C3.17423 65.7283 1.98221 67.5193 1.49733 69.7063C1.02479 71.8387 1.16172 73.995 2.0967 76.0238C3.2528 78.5329 4.76358 79.7811 7.4226 80.5867C11.5991 81.8532 15.3424 79.0074 15.3424 79.0074C15.3424 79.0074 14.3132 77.4598 13.9899 77.1321C13.6184 77.3688 10.8516 79.3658 7.93892 78.2655C6.3866 77.6795 5.49764 76.5848 5.21143 76.2252C3.74666 74.3773 3.73768 72.3303 3.73768 71.701C3.73768 68.2237 5.74233 66.592 7.68749 65.7192C10.6372 64.3947 14.513 67.3646 14.513 67.3646L15.7824 65.3176H15.7813Z" fill="white"/>
<path d="M19.6008 72.006C19.6008 69.0862 19.5896 62.5457 19.5896 62.5457H20.29L23.0949 62.557L23.9783 62.5457V76.9626L23.9996 77.8421L30.8004 77.8342V78.4384L30.7948 80.9975L30.8004 81.497L19.5896 81.4993L19.5986 80.8791C19.5986 80.8791 19.6019 74.9644 19.6008 72.0071V72.006Z" fill="white"/>
<path d="M81.7191 48.5066C81.7191 50.7243 81.7046 52.942 81.7304 55.1586C81.736 55.6888 81.5654 55.8333 81.0569 55.8311C76.6638 55.814 72.2706 55.814 67.8774 55.8311C67.3925 55.8333 67.232 55.6991 67.2343 55.1916C67.2522 50.7379 67.2522 46.2843 67.2343 41.8306C67.232 41.3106 67.3858 41.1513 67.9021 41.1536C72.2953 41.1718 76.6884 41.1707 81.0816 41.1547C81.5665 41.1524 81.7315 41.2901 81.727 41.7965C81.7034 44.0324 81.7169 46.2695 81.718 48.5054L81.7191 48.5066ZM74.4436 54.502C76.1811 54.502 80.37 54.5123 80.37 54.5123V53.7954L80.3678 43.2234L80.37 42.5156H68.5374L68.5385 43.2086V53.8375L68.5374 54.5123C68.5374 54.5123 72.7061 54.5043 74.4436 54.5032V54.502Z" fill="white"/>
<path d="M69.2446 72.0845C69.2446 69.1454 69.2334 62.5582 69.2334 62.5582L69.9271 62.5559L81.2355 62.5684V63.3365V65.1571V66.0207C81.2355 66.0207 76.4607 66.0207 74.5166 66.023C73.6962 66.023 73.6108 66.1095 73.6075 66.9288C73.6052 67.8197 73.6254 68.7118 73.6007 69.6016C73.585 70.1421 73.7983 70.3504 74.327 70.3447C75.8411 70.3276 79.5429 70.331 79.5429 70.331L79.5339 70.9807V73.0278L79.5227 73.6115L74.3999 73.6058C74.3999 73.6058 73.6153 73.698 73.6109 74.3864C73.6052 75.3718 73.6198 76.3584 73.6052 77.3438C73.5974 77.8524 73.814 78.0572 74.3135 78.0549C76.3327 78.0436 81.2377 78.0515 81.2377 78.0515V78.9345V80.7551V81.5027C81.2377 81.5027 77.2262 81.5038 75.5807 81.5038C73.7107 81.5038 69.9708 81.5164 69.9708 81.5164L69.2345 81.5095C69.2345 81.5095 69.2469 74.9849 69.2469 72.0845H69.2446Z" fill="white"/>
</g>
<defs>
<clipPath id="clip0_344_158">
<rect width="99" height="82" fill="white"/>
</clipPath>
</defs>
</svg>
