<svg width="202" height="76" viewBox="0 0 202 76" fill="none" xmlns="http://www.w3.org/2000/svg">
<path fill-rule="evenodd" clip-rule="evenodd" d="M37.0236 64.1252C36.917 64.4648 36.557 64.6484 36.2279 64.5274C25.5171 60.5911 17.8767 50.2668 17.8767 37.8708C17.8767 21.987 30.4214 9.11072 45.896 9.11072C61.3707 9.11072 73.9154 21.987 73.9154 37.8708C73.9154 52.6262 63.0897 64.446 49.1461 66.0511C48.7414 66.0979 48.4083 65.7374 48.4713 65.3276C48.5228 64.9931 48.5813 64.6209 48.6479 64.2065C49.6318 58.0879 49.8694 51.8669 49.3552 45.6877C49.3552 45.6877 49.2855 44.9724 49.0521 43.1092C48.992 42.6295 49.0364 42.4031 49.4057 42.2266C50.4952 41.85 51.5973 41.5235 52.6758 41.11C56.0356 39.9499 58.4398 36.9428 57.2694 33.1998C57.035 32.4502 55.6337 32.1615 54.794 32.1999C53.4578 32.2576 53.2886 30.8009 54.4404 30.6539C54.7971 30.6088 55.7347 31.008 55.7347 30.7962C55.7347 28.005 46.0153 29.5432 44.4418 29.8238C43.6136 29.9444 42.8166 30.2314 42.0965 30.6687C41.3763 31.1059 40.7471 31.6847 40.2447 32.372C39.7424 33.0593 39.3768 33.8416 39.1688 34.6741C38.9609 35.5067 38.9146 36.3732 39.0328 37.2242C39.0613 37.4268 39.1121 37.6949 39.152 37.9055C39.8425 41.5492 39.826 45.428 39.5612 49.1115C39.2525 53.1494 38.3013 58.5526 37.7375 61.5357C37.6145 62.1865 37.2831 63.298 37.0236 64.1252ZM38.3998 23.4C38.4993 25.2844 38.7479 27.1574 39.1429 29.0005C39.3334 30.0631 39.1005 31.3626 37.6172 31.7576C35.9678 32.1973 35.3252 30.451 35.0762 29.5253C34.5022 27.7031 34.3173 25.7752 34.5341 23.8729C34.8382 21.6806 35.5738 19.9373 36.7357 19.6777C37.9421 19.4072 38.3644 21.192 38.3998 23.4ZM42.2498 21.421C43.1197 19.7177 43.8967 18.5917 44.8878 18.7734V18.776C45.8816 18.9582 46.171 20.6298 45.7391 22.125C45.3985 23.5998 45.1454 25.0946 44.9813 26.601C44.9021 27.6768 43.8794 28.4776 42.8489 28.2706C41.8598 28.0888 41.2687 27.4249 41.2535 26.099C41.2159 24.4801 41.5575 22.8757 42.2498 21.421Z" fill="white"/>
<path d="M45.05 33.2656C44.8096 33.101 44.5271 33.0135 44.2382 33.014V33.0166C43.8518 33.017 43.4813 33.175 43.2081 33.4557C42.9348 33.7365 42.7812 34.1172 42.7808 34.5143C42.7808 34.8112 42.8664 35.1014 43.027 35.3481C43.1875 35.5949 43.4157 35.7872 43.6826 35.9007C43.9495 36.0142 44.2432 36.0437 44.5265 35.9856C44.8098 35.9275 45.0699 35.7844 45.274 35.5743C45.4781 35.3642 45.6169 35.0966 45.673 34.8054C45.729 34.5142 45.6997 34.2125 45.5889 33.9384C45.478 33.6643 45.2904 33.4301 45.05 33.2656Z" fill="white"/>
<path d="M108.358 26.9313V43.8367C108.358 48.0058 110.344 50.548 113.273 50.548C114.91 50.548 116.201 49.3278 115.705 47.8533C115.134 46.1246 112.627 47.2686 112.627 42.6927V26.9313C112.627 25.5077 111.858 24.6179 110.493 24.6179C109.128 24.6179 108.358 25.5077 108.358 26.9313ZM88.9258 41.5487C88.9258 46.5822 92.5243 50.548 98.4558 50.548C102.228 50.548 105.455 49.2261 105.455 47.1923C105.455 46.0738 104.76 45.4637 103.842 45.4637C102.625 45.4637 101.037 46.7348 98.3568 46.7348C95.9491 46.7348 94.0383 45.667 93.3433 43.5062H99.4981C103.023 43.5062 105.876 41.803 105.876 38.4473C105.876 35.3459 103.42 31.9394 98.2327 31.9394C92.7724 31.9394 88.9258 35.7526 88.9258 41.5487ZM93.1447 40.3285C93.6165 37.1762 95.8996 35.7526 98.4809 35.7526C100.417 35.7526 101.682 36.7186 101.682 38.0151C101.682 39.515 100.64 40.3285 98.2572 40.3285H93.1447ZM117.094 44.5485C117.094 47.9296 119.402 50.548 123.175 50.548C125.806 50.548 128.262 49.2769 129.702 46.8873C130.074 48.5651 131.067 50.548 133.375 50.548C134.69 50.548 135.609 49.7854 135.609 48.7431C135.609 46.8619 133.201 47.294 133.201 45.2857V39.7184C133.201 34.9391 130.471 31.9394 125.036 31.9394C120.892 31.9394 117.839 33.1342 117.839 35.0408C117.839 36.1594 118.584 36.7949 119.526 36.7949C120.941 36.7949 122.529 35.7526 125.135 35.7526C127.22 35.7526 128.66 36.6424 128.883 39.0574H123.224C119.353 39.0574 117.094 41.6504 117.094 44.5485ZM121.314 44.7264C121.289 43.5062 122.232 42.2351 124.118 42.2351H128.883C128.536 45.2857 125.93 47.0907 123.82 47.0907C122.331 47.0907 121.338 46.1755 121.314 44.7264ZM137.718 48.3109C137.718 49.582 138.487 50.548 139.853 50.548C141.218 50.548 141.987 49.582 141.987 48.3109V39.7184C141.987 36.7186 143.501 35.7018 145.015 35.7018C146.429 35.7018 147.323 36.7186 147.323 38.7778V48.3109C147.323 49.582 148.068 50.548 149.432 50.548C150.797 50.548 151.567 49.582 151.567 48.3109L151.617 39.7184C151.642 36.7186 153.106 35.7018 154.62 35.7018C156.034 35.7018 156.928 36.7186 156.928 38.7269L156.952 48.3109C156.952 49.582 157.697 50.548 159.062 50.548C160.427 50.548 161.196 49.582 161.196 48.3109V37.9643C161.196 34.1256 159.384 31.9648 156.53 31.9648C154.47 31.9648 152.361 33.185 151.219 35.2696C150.524 33.1342 148.887 31.9648 146.802 31.9648C144.94 31.9648 143.154 33.0833 141.987 34.8628V33.9985C141.987 32.9054 141.218 31.9394 139.853 31.9394C138.487 31.9394 137.718 32.9054 137.718 34.1765V48.3109ZM163.976 44.5485C163.976 47.9296 166.284 50.548 170.056 50.548C172.687 50.548 175.144 49.2769 176.584 46.8873C176.956 48.5651 177.949 50.548 180.257 50.548C181.572 50.548 182.49 49.7854 182.49 48.7431C182.49 46.8619 180.083 47.294 180.083 45.2857V39.7184C180.083 34.9391 177.353 31.9394 171.918 31.9394C167.773 31.9394 164.721 33.1342 164.721 35.0408C164.721 36.1594 165.465 36.7949 166.408 36.7949C167.823 36.7949 169.411 35.7526 172.017 35.7526C174.102 35.7526 175.541 36.6424 175.765 39.0574H170.106C166.235 39.0574 163.976 41.6504 163.976 44.5485ZM168.195 44.7264C168.17 43.5062 169.113 42.2351 170.999 42.2351H175.765C175.417 45.2857 172.811 47.0907 170.702 47.0907C169.213 47.0907 168.22 46.1755 168.195 44.7264Z" fill="white"/>
</svg>
