<svg width="211" height="57" viewBox="0 0 211 57" fill="none" xmlns="http://www.w3.org/2000/svg">
<g clip-path="url(#clip0_541_874)">
<path d="M160.715 28.0425C160.494 24.6142 162.099 21.1156 165.69 20.3052C169.667 19.2422 175 20.1483 176.531 24.4692C176.958 25.6697 177.688 29.871 176.335 30.4781C172.76 31.0268 168.99 30.3809 165.401 30.7427C165.103 32.7716 166.298 34.9993 168.563 34.9963C173.688 35.1593 171.468 31.0925 176.06 34.026C176.707 34.3624 176.838 34.9769 176.442 35.5749C174.24 38.9165 169.763 39.3695 166.138 38.6519C160.649 37.4513 160.545 32.6535 160.716 28.044L160.715 28.0425ZM172.374 27.431C172.924 22.678 164.704 22.9053 165.448 27.431H172.374Z" fill="white"/>
<path d="M148.681 20.3337C148.958 16.6168 147.415 15.7332 152.022 16.0128C152.636 15.9904 153.411 16.116 153.373 16.8844C153.426 18.0267 153.242 19.2288 153.43 20.3412C154.303 20.7389 158.014 19.7386 157.871 21.0887C158.044 26.063 157.776 24.3481 153.439 24.6815C153.222 26.5384 153.418 28.4627 153.358 30.342C153.466 31.7205 153.465 33.4758 155.171 33.8376C158.814 33.9273 157.716 34.3445 157.877 37.393C157.735 38.8687 155.829 38.2497 154.812 38.3529C153.379 38.2796 152.014 37.9358 150.848 37.0761C147.551 34.2936 149.075 28.5464 148.69 24.674C147.156 24.535 145.053 25.3349 145.367 23.0339C145.136 19.4306 145.99 20.709 148.682 20.3337H148.681Z" fill="white"/>
<path d="M157.877 37.3945C157.877 36.4929 157.877 35.5914 157.877 34.6898C157.985 35.5749 157.999 36.5124 157.877 37.3945Z" fill="white"/>
<path d="M107.539 20.3845C108.701 20.383 109.862 20.3756 111.023 20.3815C111.748 20.3277 112.029 20.8704 111.957 21.4894C112.088 25.9389 111.64 24.3571 107.533 24.6815C107.515 24.7069 107.495 24.7323 107.477 24.7578C107.477 26.8479 107.477 28.9381 107.477 31.0268C107.383 33.4085 109.107 34.1202 111.223 34.0215C112.455 33.8855 111.918 36.931 111.885 37.722C111.464 39.0377 107.321 38.1884 106.252 37.8326C103.602 36.9789 102.758 33.9797 102.728 31.4828C102.752 29.2641 102.728 26.9705 102.736 24.6157C100.903 24.5021 99.425 24.8549 99.425 23.6544C99.425 22.9831 99.416 22.3043 99.416 21.5687C99.416 20.0631 100.826 20.5819 102.784 20.3845V16.9129C102.772 16.255 103.285 16.0517 103.851 16.0263C108.516 15.7556 107.324 16.418 107.471 20.3277C107.494 20.3472 107.516 20.3651 107.539 20.3845Z" fill="white"/>
<path d="M121.003 20.4114C121.338 20.4384 121.583 20.5639 121.603 20.9422C121.603 26.5728 121.603 32.2035 121.603 37.8341C121.603 38.6265 120.96 38.4306 117.802 38.4306C117.271 38.4306 117.09 38.2796 117.01 37.8431C117.01 32.3066 117.013 26.7687 117.01 21.2323C116.5 19.8059 120.152 20.6088 121.001 20.4129L121.003 20.4114Z" fill="white"/>
<path d="M121.603 37.8341C121.603 32.2035 121.603 26.5728 121.603 20.9422C121.755 26.5624 121.76 32.2199 121.603 37.8341Z" fill="white"/>
<path d="M116.961 20.9437C117.107 26.5623 116.964 32.2139 117.01 37.843C116.812 32.2244 116.961 26.5728 116.961 20.9437Z" fill="white"/>
<path d="M69.2338 19.8837C69.7364 19.8956 77.2229 19.1989 77.2229 23.8547C77.2229 28.5105 77.2123 33.5326 77.2274 38.3723C77.4095 41.6437 76.0627 45.3127 72.5715 46.1978C69.6295 47.0321 66.325 46.6598 63.7562 44.9359C62.7766 44.2407 61.332 42.7829 62.5133 41.6556C66.5973 39.1289 65.258 40.7556 67.7636 42.2118C68.0254 42.3643 68.3189 42.4615 68.6213 42.4929C72.3473 42.8831 72.6648 40.6898 72.5218 37.393L72.4375 37.3302C67.44 38.5338 61.7473 37.5141 61.5562 31.3901C61.3064 24.9746 61.4448 20.2649 69.2323 19.8852L69.2338 19.8837ZM66.2587 27.1529C66.0044 32.8165 66.4769 34.2518 72.5293 33.0676V24.3242C70.0073 23.7829 65.9819 23.4122 66.2587 27.1544V27.1529Z" fill="white"/>
<path d="M68.5554 19.918C68.5282 19.9347 68.5025 19.9515 68.4753 19.9667C68.5025 19.9499 68.5282 19.9332 68.5554 19.918Z" fill="white"/>
<path d="M188.416 19.8822C192.035 19.776 195.7 21.3892 195.998 25.3902C196.129 29.5481 196.084 33.1992 196.084 37.3915C196.084 37.7234 195.958 38.4082 195.407 38.4276C195.38 38.4276 195.141 38.4232 195.114 38.4232C193.961 38.4232 193.664 38.3843 192.333 38.3783C191.868 38.3768 191.488 37.9985 191.488 37.5365C191.491 34.0424 191.513 30.5184 191.498 27.0124C191.591 23.6738 187.954 23.7799 185.54 24.3585C185.319 24.4124 185.155 24.6127 185.173 24.8385C185.174 24.8579 185.177 24.8788 185.182 24.8983C185.182 29.0159 185.177 33.1349 185.185 37.2525C185.186 38.0823 185.11 38.4351 183.993 38.4381C183.131 38.4396 182.425 38.4381 181.561 38.4306C180.878 38.4889 180.503 38.0853 180.503 37.4139C180.503 37.384 180.517 35.4359 180.515 34.4925C180.512 30.5214 180.509 26.5489 180.506 22.5779C180.666 20.377 186.635 19.9539 188.416 19.8807V19.8822Z" fill="white"/>
<path d="M191.437 26.6191C191.555 30.1895 191.555 33.8196 191.437 37.3915C191.442 33.8017 191.41 30.2104 191.437 26.6191Z" fill="white"/>
<path d="M96.7269 24.6785C96.8909 26.2753 98.1851 30.5693 95.6449 30.6605C92.2862 30.7053 88.9274 30.6889 85.5686 30.6934C85.5431 30.7098 85.5175 30.7263 85.4919 30.7412C84.8162 35.3462 90.3224 36.3315 92.867 33.247C93.6315 32.3529 94.7164 33.4668 95.5546 33.718C97.8811 34.5493 96.146 36.3016 94.9377 37.2749C93.1033 38.6728 90.7588 38.9255 88.5301 38.9449C84.1195 39.0391 80.5771 35.9382 80.8209 31.4349C80.7367 27.431 80.3258 22.1951 84.9772 20.5684C89.1652 18.9686 95.1348 20.0197 96.7254 24.6785H96.7269ZM85.4919 27.422H92.4096C93.0611 22.7707 84.9517 22.7647 85.4919 27.422Z" fill="white"/>
<path d="M103.849 16.0263C103.822 16.0233 103.795 16.0218 103.766 16.0187C103.794 16.0218 103.821 16.0233 103.849 16.0263Z" fill="white"/>
<path d="M102.79 16.8276C102.787 16.856 102.785 16.8845 102.782 16.9129C102.775 16.8815 102.752 16.8501 102.79 16.8276Z" fill="white"/>
<path d="M165.401 30.7427C168.648 30.5199 171.981 30.7367 175.256 30.6679C171.986 30.8458 168.681 30.6859 165.401 30.7427Z" fill="white"/>
<path d="M210.243 20.4084C210.719 20.4548 210.947 20.6103 210.953 21.0454C210.968 22.0486 210.941 23.0548 210.907 24.058C210.896 24.3735 210.704 24.5843 210.362 24.6082C209.977 24.6337 209.592 24.668 209.206 24.6725C208.308 24.6815 207.41 24.6755 206.475 24.6755C206.477 26.8778 206.46 29.0682 206.483 31.269C206.466 32.4247 207.166 33.7659 208.44 33.8585C209.048 33.9453 209.667 33.9662 210.281 34.0215C210.577 34.0484 210.827 34.1501 210.916 34.4715C210.916 35.4942 210.916 36.5169 210.916 37.5395C210.821 38.1301 210.546 38.3334 209.786 38.3723C209.196 38.3678 208.603 38.3962 208.016 38.3529C199.905 38.1017 202.242 30.1103 201.724 24.6815C198.057 24.7891 198.384 24.7906 198.448 21.304C198.522 19.6893 200.728 20.7359 201.735 20.3427C202.153 19.3977 201.08 16.0307 202.555 16.0517C207.456 15.8812 206.361 15.9051 206.481 20.3337C206.571 20.3621 206.662 20.4129 206.75 20.4129C207.915 20.4159 209.078 20.4114 210.243 20.4084Z" fill="white"/>
<path d="M201.724 24.6815C201.897 26.8838 201.846 29.1982 201.745 31.411C201.732 29.1683 201.717 26.9256 201.724 24.6815Z" fill="white"/>
<path d="M153.418 30.662C153.319 28.6959 153.271 26.6401 153.439 24.683C153.429 26.676 153.448 28.669 153.418 30.662Z" fill="white"/>
<path d="M157.133 20.3994C155.908 20.3471 154.623 20.5295 153.428 20.3426C154.661 20.3785 155.91 20.2634 157.133 20.3994Z" fill="white"/>
<path d="M153.43 20.3426C153.242 19.2288 153.424 18.0282 153.373 16.8859C153.508 18.0267 153.395 19.1929 153.43 20.3426Z" fill="white"/>
<path d="M76.1018 43.5918C76.1319 43.5365 76.162 43.4826 76.1921 43.4273L76.2583 43.535C76.2056 43.5544 76.1545 43.5738 76.1018 43.5918Z" fill="white"/>
<path d="M102.736 31.402C102.745 31.4349 102.769 31.4648 102.728 31.4843C102.731 31.4574 102.733 31.4304 102.736 31.402Z" fill="white"/>
<path d="M85.4918 30.742C85.5175 30.7253 85.5432 30.7086 85.5689 30.6934C85.5432 30.7101 85.5175 30.7268 85.4918 30.742Z" fill="white"/>
<path d="M75.7993 44.0388C75.8174 44.0134 75.8369 43.988 75.855 43.9641C75.8369 43.9895 75.8174 44.0149 75.7993 44.0388Z" fill="white"/>
<path d="M72.5143 39.4757C72.5007 39.5041 72.4872 39.5325 72.4736 39.5624C72.4872 39.534 72.5007 39.5056 72.5143 39.4757Z" fill="white"/>
<path d="M210.914 37.538C210.914 36.5154 210.914 35.4927 210.914 34.47C210.938 34.8842 210.968 35.2983 210.985 35.7125C210.998 36.0459 210.995 36.3793 211 36.7142C210.971 36.9893 210.943 37.2629 210.914 37.538Z" fill="white"/>
<path d="M61.5833 26.1751C61.5833 26.2484 61.5848 26.3201 61.5863 26.3934C61.5863 26.3201 61.5848 26.2484 61.5833 26.1751Z" fill="#F5F5F5"/>
<path d="M117.171 14.9781C119.314 12.0103 123.291 15.3415 121.23 17.8308C119.784 19.6818 116.727 18.5455 116.791 16.1877C116.818 15.8049 116.998 15.3579 117.171 14.9781Z" fill="white"/>
<path d="M121.003 20.4114C119.872 20.4114 118.742 20.4114 117.614 20.4114C118.729 20.2963 119.889 20.2903 121.003 20.4114Z" fill="white"/>
<path d="M107.468 31.1105C107.471 31.0836 107.474 31.0552 107.477 31.0283C107.486 31.0612 107.512 31.0925 107.468 31.1105Z" fill="white"/>
<path d="M110.988 24.6504C111.015 24.6444 111.042 24.6383 111.071 24.6307C111.044 24.6368 111.017 24.6428 110.988 24.6504Z" fill="white"/>
<path d="M148.681 20.3337C147.892 20.531 147.009 20.3471 146.189 20.3979C147.02 20.3501 147.85 20.3277 148.681 20.3337Z" fill="white"/>
<path d="M199.307 20.3994C200.116 20.3516 200.925 20.3292 201.735 20.3411L199.307 20.3994Z" fill="white"/>
<path d="M107.477 17.2821C107.474 17.2552 107.471 17.2268 107.468 17.1999C107.483 17.2313 107.521 17.2567 107.477 17.2821Z" fill="white"/>
<path d="M206.5 20.3845C207.662 20.383 208.824 20.3755 209.984 20.3815C210.709 20.3277 210.991 20.8704 210.919 21.4894C211.05 25.9388 210.601 24.357 206.494 24.6814C206.476 24.7069 206.457 24.7323 206.439 24.7577C206.439 26.8479 206.439 28.9381 206.439 31.0267C206.344 33.4085 208.068 34.1201 210.184 34.0215C211.417 33.8854 210.879 36.931 210.846 37.7219C210.425 39.0376 206.282 38.1884 205.214 37.8325C202.564 36.9788 201.72 33.9796 201.69 31.4828C201.714 29.264 201.69 26.9705 201.697 24.6157C199.864 24.502 198.386 24.8549 198.386 23.6543C198.386 22.983 198.377 22.3042 198.377 21.5686C198.377 20.063 199.787 20.5818 201.745 20.3845V16.9128C201.733 16.2549 202.246 16.0516 202.812 16.0262C207.477 15.7556 206.285 16.4179 206.433 20.3277C206.455 20.3471 206.478 20.365 206.5 20.3845Z" fill="white"/>
<path d="M134.505 19.8402C138.124 19.7341 141.79 21.3473 142.088 25.3482C142.219 29.5062 142.174 33.1573 142.174 37.3496C142.174 37.6815 142.048 38.3663 141.497 38.3857C141.47 38.3857 141.23 38.3812 141.203 38.3812C140.051 38.3812 139.754 38.3424 138.422 38.3364C137.957 38.3349 137.578 37.9566 137.578 37.4946C137.581 34.0005 137.602 30.4765 137.587 26.9705C137.681 23.6319 134.043 23.738 131.63 24.3166C131.408 24.3704 131.244 24.5708 131.262 24.7966C131.264 24.816 131.267 24.8369 131.272 24.8564C131.272 28.9739 131.267 33.093 131.275 37.2105C131.276 38.0403 131.199 38.3932 130.083 38.3962C129.22 38.3977 128.515 38.3962 127.651 38.3887C126.968 38.447 126.593 38.0433 126.593 37.372C126.593 37.3421 126.607 35.394 126.605 34.4505C126.602 30.4795 126.599 26.507 126.596 22.5359C126.756 20.3351 132.725 19.912 134.505 19.8387V19.8402Z" fill="white"/>
<path d="M48.2069 14.1768L36.7341 2.77795C33.0052 -0.92696 26.9603 -0.92696 23.2314 2.77795L20.7349 5.25836L36.4618 20.8839L20.7349 36.5094L23.2314 38.9898C26.9603 42.6947 33.0052 42.6947 36.7341 38.9898L48.2054 27.5925C51.9343 23.8876 51.9343 17.8817 48.2054 14.1768H48.2069Z" fill="white"/>
<path d="M2.79598 29.409L14.2672 18.0117C17.9962 14.3068 24.041 14.3068 27.77 18.0117L30.2665 20.4921L14.5396 36.1176L30.2665 51.7431L27.77 54.2236C24.041 57.9285 17.9962 57.9285 14.2672 54.2236L2.79598 42.8262C-0.932969 39.1213 -0.932969 33.1154 2.79598 29.4105V29.409Z" fill="white"/>
</g>
<defs>
<clipPath id="clip0_541_874">
<rect width="211" height="57" fill="white"/>
</clipPath>
</defs>
</svg>
