<svg width="202" height="76" viewBox="0 0 202 76" fill="none" xmlns="http://www.w3.org/2000/svg">
<path d="M140.146 15.9996H145.719V19.5495H140.146V15.9996Z" fill="white"/>
<path fill-rule="evenodd" clip-rule="evenodd" d="M57.2617 23.8094V36.8533C57.2617 43.7654 62.8749 49.3687 69.7989 49.3687C76.7232 49.3687 82.3361 43.7654 82.3361 36.8533V23.8094H76.8182V36.8533C76.8182 40.9792 73.9321 44.3238 69.7989 44.3238C65.6661 44.3238 62.7797 40.9792 62.7797 36.8533V23.8094H57.2617Z" fill="white"/>
<path d="M102.358 22.7235C105.864 22.7235 108.86 24.0069 111.345 26.5734C113.83 29.14 115.072 32.2976 115.072 36.0461C115.072 39.7609 113.83 42.9185 111.345 45.5189C108.86 48.0854 105.864 49.3687 102.358 49.3687C98.4777 49.3687 95.499 47.9335 93.4228 45.063V48.7102H87.9083V15.9996H93.4228V26.9787C95.499 24.1419 98.4777 22.7235 102.358 22.7235ZM95.7203 41.8716C97.2521 43.3913 99.1756 44.1511 101.49 44.1511C103.805 44.1511 105.728 43.3913 107.26 41.8716C108.792 40.3181 109.558 38.3763 109.558 36.0461C109.558 33.716 108.792 31.791 107.26 30.2713C105.728 28.7179 103.805 27.9411 101.49 27.9411C99.1756 27.9411 97.2521 28.7179 95.7203 30.2713C94.1885 31.791 93.4228 33.716 93.4228 36.0461C93.4228 38.3763 94.1885 40.3181 95.7203 41.8716Z" fill="white"/>
<path d="M126.711 26.8374C128.068 25.906 131.058 23.8094 136.664 23.8094V29.6315C134.451 29.9214 130.783 30.3299 128.52 33.124C127.163 34.9867 126.704 37.0194 126.704 39.6435V49.3687H121.341V23.8094H126.704L126.711 26.8374Z" fill="white"/>
<path d="M139.45 49.3687V23.8094H145.022V49.3687H139.45Z" fill="white"/>
<path d="M172.385 15.9996H177.758V48.7102H172.385V45.063C170.362 47.9335 167.46 49.3687 163.679 49.3687C160.262 49.3687 157.344 48.0854 154.923 45.5189C152.501 42.9185 151.291 39.7609 151.291 36.0461C151.291 32.2976 152.501 29.14 154.923 26.5734C157.344 24.0069 160.262 22.7235 163.679 22.7235C167.46 22.7235 170.362 24.1419 172.385 26.9787V15.9996ZM158.903 41.8716C160.395 43.3913 162.269 44.1511 164.524 44.1511C166.78 44.1511 168.654 43.3913 170.146 41.8716C171.639 40.3181 172.385 38.3763 172.385 36.0461C172.385 33.716 171.639 31.791 170.146 30.2713C168.654 28.7179 166.78 27.9411 164.524 27.9411C162.269 27.9411 160.395 28.7179 158.903 30.2713C157.41 31.791 156.664 33.716 156.664 36.0461C156.664 38.3763 157.41 40.3181 158.903 41.8716Z" fill="white"/>
<path fill-rule="evenodd" clip-rule="evenodd" d="M29.9845 15.9996H24.5258V49.3687H29.9845V15.9996ZM45.452 49.3687H50.9931V15.9996H45.452V49.3687Z" fill="white"/>
<path d="M28.7048 30.8054L47.0536 26.6493L48.2072 32.4328L29.8584 36.589L28.7048 30.8054Z" fill="white"/>
<path d="M57.2618 54.5424L77.4605 51.4985L77.4602 56.9744L57.2617 60.0183L57.2618 54.5424Z" fill="white"/>
<path d="M139.45 15.9996H145.022V19.5495H139.45V15.9996Z" fill="white"/>
</svg>
