<svg width="202" height="76" viewBox="0 0 202 76" fill="none" xmlns="http://www.w3.org/2000/svg">
<path fill-rule="evenodd" clip-rule="evenodd" d="M59.3341 38.5779C59.3341 56.2253 73.3304 70.5308 90.5955 70.5308C107.86 70.5308 121.856 56.2253 121.856 38.5779C121.856 20.9317 107.86 6.62549 90.5955 6.62549C73.3304 6.62549 59.3341 20.9317 59.3341 38.5779Z" fill="#594EAB"/>
<path fill-rule="evenodd" clip-rule="evenodd" d="M77.9593 38.5563C77.9593 52.7374 66.7128 64.2335 52.8385 64.2335C38.9642 64.2335 27.7175 52.7374 27.7175 38.5563C27.7175 24.3766 38.9642 12.8806 52.8385 12.8806C66.7128 12.8806 77.9593 24.3766 77.9593 38.5563Z" fill="#594EAB"/>
<path fill-rule="evenodd" clip-rule="evenodd" d="M46.2482 38.5565C46.2482 48.0109 38.75 55.6743 29.5013 55.6743C20.2507 55.6743 12.7532 48.0109 12.7532 38.5565C12.7532 29.1033 20.2507 21.4393 29.5013 21.4393C38.75 21.4393 46.2482 29.1033 46.2482 38.5565Z" fill="#645AA7"/>
<path fill-rule="evenodd" clip-rule="evenodd" d="M94.2012 38.5563C94.2012 52.7374 105.449 64.2335 119.323 64.2335C133.195 64.2335 144.442 52.7374 144.442 38.5563C144.442 24.3766 133.195 12.8806 119.323 12.8806C105.449 12.8806 94.2012 24.3766 94.2012 38.5563Z" fill="#645AA7"/>
<path fill-rule="evenodd" clip-rule="evenodd" d="M122.868 38.5563C122.868 52.7374 134.116 64.2335 147.99 64.2335C161.864 64.2335 173.111 52.7374 173.111 38.5563C173.111 24.3766 161.864 12.8806 147.99 12.8806C134.116 12.8806 122.868 24.3766 122.868 38.5563Z" fill="#362B82"/>
<path fill-rule="evenodd" clip-rule="evenodd" d="M152.878 38.911C152.878 48.3654 160.377 56.0288 169.628 56.0288C178.875 56.0288 186.374 48.3654 186.374 38.911C186.374 29.4572 178.875 21.7938 169.628 21.7938C160.377 21.7938 152.878 29.4572 152.878 38.911Z" fill="#645AA7"/>
<path fill-rule="evenodd" clip-rule="evenodd" d="M71.5578 21.4394C70.2473 19.9425 68.7656 18.6066 67.147 17.4578C65.4457 19.4292 63.9812 21.6166 62.793 23.9748C65.3429 22.3691 68.3434 21.4407 71.5578 21.4394Z" fill="#645AA7"/>
<path fill-rule="evenodd" clip-rule="evenodd" d="M46.248 38.5565C46.248 30.5733 40.9003 23.8665 33.6667 21.974C29.958 26.4477 27.7175 32.2329 27.7175 38.5565C27.7175 44.8801 29.958 50.666 33.6661 55.1396C40.9003 53.2472 46.248 46.541 46.248 38.5565Z" fill="#362B82"/>
<path fill-rule="evenodd" clip-rule="evenodd" d="M62.7932 23.9747C58.0084 26.9879 54.8173 32.3906 54.8173 38.5564C54.8173 44.7085 57.9949 50.1006 62.7607 53.1181C60.5753 48.7552 59.3344 43.8158 59.3344 38.5777C59.3344 33.3146 60.5876 28.3526 62.7932 23.9747Z" fill="#362B82"/>
<path fill-rule="evenodd" clip-rule="evenodd" d="M144.442 38.5565C144.442 29.8238 140.172 22.1142 133.656 17.4758C127.138 22.1142 122.868 29.8238 122.868 38.5565C122.868 47.2897 127.138 55 133.656 59.6381C140.172 55 144.442 47.2897 144.442 38.5565Z" fill="#594EAB"/>
<path fill-rule="evenodd" clip-rule="evenodd" d="M167.167 21.9792C159.083 23.1956 152.878 30.3124 152.878 38.9111C152.878 47.3232 158.817 54.3129 166.644 55.7522C170.662 51.2003 173.111 45.1715 173.111 38.5561C173.111 32.2363 170.873 26.4529 167.167 21.9792Z" fill="#594EAB"/>
<path fill-rule="evenodd" clip-rule="evenodd" d="M121.857 38.5778C121.857 28.8842 117.627 20.2042 110.958 14.3445C101.198 17.8678 94.2012 27.3749 94.2012 38.5566C94.2012 49.752 101.215 59.2683 110.992 62.7813C117.642 56.922 121.857 48.2558 121.857 38.5778Z" fill="#362B82"/>
<path fill-rule="evenodd" clip-rule="evenodd" d="M71.5098 55.9272H71.5165C80.8188 55.9272 88.3603 48.2194 88.3603 38.7111C88.3603 29.2034 80.8188 21.495 71.5165 21.495H71.5098C75.5118 26.0645 77.948 32.0964 77.948 38.7111C77.948 45.3264 75.5118 51.3583 71.5098 55.9272Z" fill="#362B82"/>
<path fill-rule="evenodd" clip-rule="evenodd" d="M71.5579 55.6739C68.3305 55.6727 65.3176 54.7361 62.761 53.1178C63.9493 55.4899 65.4179 57.6904 67.1248 59.6722C68.7522 58.5201 70.2406 57.1771 71.5579 55.6739Z" fill="#645AA7"/>
<path fill-rule="evenodd" clip-rule="evenodd" d="M59.3341 38.5777C59.3341 43.8158 60.575 48.7553 62.7604 53.1181C65.317 54.7365 68.3305 55.673 71.5578 55.6743C75.5366 51.1311 77.9588 45.1343 77.9588 38.5565C77.9588 31.9793 75.5366 25.9825 71.5578 21.4393C68.3429 21.4405 65.3423 22.369 62.7929 23.9748C60.5873 28.3527 59.3341 33.3147 59.3341 38.5777Z" fill="#8CC642"/>
<path fill-rule="evenodd" clip-rule="evenodd" d="M59.3341 38.5777C59.3341 43.8158 60.575 48.7553 62.7604 53.1181C65.317 54.7365 68.3305 55.673 71.5578 55.6743C75.5366 51.1311 77.9588 45.1343 77.9588 38.5565C77.9588 31.9793 75.5366 25.9825 71.5578 21.4393C68.3429 21.4405 65.3423 22.369 62.7929 23.9748C60.5873 28.3527 59.3341 33.3147 59.3341 38.5777Z" fill="#594EAB"/>
<path fill-rule="evenodd" clip-rule="evenodd" d="M171.67 41.4875C170.813 44.2822 170.118 46.7043 169.955 47.1626H169.791L168.077 41.5695C167.422 39.2732 164.646 30.6357 163.994 28.3813H161.748C162.932 32.137 167.096 44.8262 168.241 48.6231L168.825 50.4962L167.887 53.4223C167.527 54.4002 166.456 55.7963 165.991 56.2814C166.726 56.4223 167.936 56.1456 168.884 55.8545C169.171 55.4663 169.506 54.866 169.779 54.0277C172.388 46.0275 176.978 31.8258 178.081 28.3813H175.753C174.65 31.8039 172.976 37.3563 171.67 41.4875Z" fill="#FEFEFE"/>
<path fill-rule="evenodd" clip-rule="evenodd" d="M146.523 39.1409C143.435 39.2686 141.87 40.8256 141.87 43.2239C141.87 45.9616 143.187 47.3094 146.072 47.3094C148.008 47.3094 150.066 46.2577 152.25 44.4028V38.8047L146.523 39.1409ZM154.517 34.8031C154.517 34.8031 154.506 45.0494 154.517 45.7231C154.527 46.6146 154.964 47.4102 155.416 48.2128L153.67 49.1193C153.03 48.0895 152.365 47.0778 152.25 46.552C152.25 46.552 152.208 46.5094 152.167 46.5094C148.955 49.0768 146.523 49.1193 145.206 49.1193C140.674 49.1193 139.397 45.9616 139.397 43.4787C139.397 39.7288 142.116 37.7104 145.948 37.4568L152.25 37.1194V35.4366C152.25 31.6059 151.261 30.0896 147.634 30.0896C145.618 30.0896 143.394 30.5936 141.374 31.3085L140.799 29.6683C143.107 28.6566 145.823 28.1107 148.13 28.1107C152.208 28.1107 154.517 29.92 154.517 34.8031Z" fill="#FEFEFE"/>
<path fill-rule="evenodd" clip-rule="evenodd" d="M125.901 46.5366L127.34 40.6537L130.589 28.3815H132.98L127.168 49.0408H124.484L120.907 37.618L119.16 31.5117H118.997L117.452 37.3676L114.121 49.0408H111.393L105.667 28.3815H108.016L111.181 40.1899L112.744 46.5366H112.909L114.676 39.8543L117.924 28.3815H120.227L124.051 40.7795L125.695 46.5366H125.901Z" fill="#FEFEFE"/>
<path fill-rule="evenodd" clip-rule="evenodd" d="M90.7608 29.9204C85.8172 29.9204 84.5805 34.5944 84.5805 38.8471C84.5805 43.1843 85.5288 47.2673 90.7608 47.2673C95.6208 47.2673 96.6099 42.7636 96.6099 38.8045C96.6099 34.8893 95.7034 29.9204 90.7608 29.9204ZM90.4724 49.1617C84.0466 49.1617 82.1924 44.2367 82.1924 38.8045C82.1924 33.4569 84.457 28.026 90.7608 28.026C97.228 28.026 98.9995 33.4569 98.9995 38.72C98.9995 43.8147 97.1872 49.1617 90.4724 49.1617Z" fill="#FEFEFE"/>
<path fill-rule="evenodd" clip-rule="evenodd" d="M70.1754 49.0411H72.6255V18.9912H70.1754V49.0411Z" fill="#FEFEFE"/>
<path fill-rule="evenodd" clip-rule="evenodd" d="M53.0035 29.9204C48.0607 29.9204 46.8246 34.5944 46.8246 38.8471C46.8246 43.1843 47.7716 47.2673 53.0035 47.2673C57.8643 47.2673 58.8522 42.7636 58.8522 38.8045C58.8522 34.8893 57.9464 29.9204 53.0035 29.9204ZM52.715 49.1617C46.2887 49.1617 44.4353 44.2367 44.4353 38.8045C44.4353 33.4569 46.7009 28.026 53.0035 28.026C59.4708 28.026 61.2422 33.4569 61.2422 38.72C61.2422 43.8147 59.4292 49.1617 52.715 49.1617Z" fill="#FEFEFE"/>
<path fill-rule="evenodd" clip-rule="evenodd" d="M23.1972 45.919C25.5449 47.0979 27.6464 47.3095 29.1292 47.3095C32.0539 47.3095 34.3612 46.2152 34.3612 43.4788C34.3612 41.0353 32.0135 40.1507 29.5825 39.3099C26.2046 38.1744 22.9926 37.0775 22.9926 33.4997C22.9926 29.6264 26.1219 28.0256 29.7883 28.0256C31.2301 28.0256 33.6201 28.3205 35.3914 29.2896C35.2266 29.7103 34.8965 30.6362 34.6907 31.0143C32.7136 30.2142 31.107 29.9626 29.7478 29.9626C27.2764 29.9626 25.216 30.9724 25.216 33.5423C25.216 35.6458 27.9759 36.6556 29.8306 37.2459C33.1662 38.3409 36.5858 39.35 36.5858 43.4356C36.5858 47.4347 33.2495 49.1619 29.1292 49.1619C26.7809 49.1619 24.1447 48.6561 22.415 47.6031L23.1972 45.919Z" fill="#FEFEFE"/>
</svg>
