<svg width="201" height="88" viewBox="0 0 201 88" fill="none" xmlns="http://www.w3.org/2000/svg">
<g clip-path="url(#clip0_542_1165)">
<path d="M37.125 32.9056C37.8638 32.573 38.3648 32.0936 38.3192 31.1981C38.298 30.7811 38.0358 30.5129 37.8139 30.2457C36.6325 28.8234 35.4372 27.4095 34.0434 26.1836C32.3281 24.6736 30.5681 23.2207 28.6574 21.9494C28.0024 21.5143 27.357 21.0635 26.6978 20.6327C25.5397 19.8756 24.2712 20.0054 23.0282 20.2546C20.5825 20.7446 18.1081 20.8586 15.6391 20.7224C13.2337 20.5894 10.961 19.846 8.78921 18.7869C6.89867 17.8651 5.10366 16.7934 3.3681 15.6149C3.31609 15.579 3.23542 15.5854 3.16748 15.5717C3.90735 14.9297 4.62068 14.2592 5.37541 13.6309C7.60563 11.7725 10.0195 10.1897 12.5883 8.84336C14.1286 8.03664 15.7272 7.35558 17.3492 6.72097C20.2343 5.5922 23.2076 4.94387 26.3114 4.9048C28.7264 4.87418 31.1222 5.04101 33.5084 5.42536C37.1579 6.01351 40.5908 7.19191 43.8008 9.01864C47.1445 10.9225 49.9925 13.3965 52.3385 16.4259C53.9541 18.5113 55.3011 20.7657 56.3425 23.1943C58.0175 27.097 58.8518 31.1855 58.9718 35.4102C59.0535 38.2823 58.7436 41.1238 58.0345 43.9219C57.4305 46.3051 56.6482 48.6239 55.5368 50.816C54.3702 53.1179 52.9722 55.2741 51.2557 57.2254C49.603 59.1049 47.7889 60.7965 45.754 62.259C44.5247 63.1417 43.2382 63.9357 41.9092 64.6527C40.8042 65.2483 39.7087 65.8839 38.4359 66.1025C37.4891 66.2651 36.5507 66.4742 35.606 66.6484C35.433 66.6801 35.3172 66.6938 35.2896 66.9082C35.1771 67.8015 34.64 68.4287 34.0477 69.0844C32.2612 71.0611 30.2539 72.7864 28.1181 74.3608C26.3815 75.6416 24.5419 76.7778 22.576 77.688C21.8712 78.0143 21.1748 78.3807 20.281 78.6235C20.6717 78.1156 20.9816 77.7239 21.2789 77.3227C22.7098 75.3903 23.9783 73.3682 24.7829 71.0854C25.3625 69.4413 25.6607 67.7539 25.683 66.0127C25.6883 65.64 25.5334 65.2979 25.5525 64.9209C25.5673 64.6221 25.631 64.4669 25.9431 64.3486C27.1872 63.8756 28.4175 63.3656 29.6456 62.8524C29.7921 62.7911 30.0607 62.8302 30.0617 62.6063C30.0617 62.4363 29.8675 62.3255 29.7168 62.2326C28.5406 61.505 27.2838 61.0119 25.8985 60.8314C25.6066 60.7933 25.2287 60.8831 25.0132 60.5093C24.6215 59.8293 24.1842 59.1767 23.7214 58.539C22.5654 56.9445 21.2895 55.4663 19.7811 54.1844C19.4255 53.8813 18.9701 53.6522 18.6782 53.1063C19.5433 53.2826 20.3108 53.4378 21.0793 53.5952C23.6641 54.1242 26.0864 55.0745 28.3357 56.4398C30.5193 57.765 32.3578 59.4787 33.8619 61.5367C34.0657 61.8155 34.1422 61.7785 34.3598 61.5906C34.6623 61.3287 35.0041 61.1133 35.3289 60.8778C35.4552 60.975 35.572 60.881 35.6782 60.844C39.1196 59.6677 42.3147 58.0617 44.9642 55.5201C47.93 52.6765 49.5223 49.2068 49.7028 45.1088C49.7399 44.2757 49.7006 43.452 49.5743 42.6137C49.4522 41.8059 49.3652 40.9928 49.1932 40.1893C48.965 39.1217 48.6678 38.0743 48.2941 37.0521C48.0946 36.5062 47.9789 35.9096 47.5617 35.4588C48.2591 33.9245 48.7357 32.328 48.965 30.6512C48.2506 31.6173 47.4991 32.5381 46.7082 33.4198C44.8326 35.5116 42.7329 37.3425 40.2352 38.6867C39.8945 38.8704 39.6832 38.938 39.6216 38.4259C39.4253 36.8103 38.713 35.3933 37.8861 34.0153C37.6536 33.6268 37.2439 33.367 37.125 32.9087V32.9056ZM26.7509 18.0055C25.5047 17.9263 24.2808 17.6064 22.9985 17.6465C23.3477 17.5156 23.5696 17.2326 23.8169 17.0077C24.5186 16.371 25.0302 15.5738 25.1215 14.6234C25.2266 13.538 25.1746 12.4483 24.5154 11.4937C24.3657 11.2762 24.4379 11.1938 24.6799 11.0999C25.3678 10.8338 26.0344 10.5128 26.6586 10.12C27.1766 9.79369 27.7169 9.49803 28.151 9.05243C28.3209 8.87715 28.3686 8.68075 28.2965 8.47485C28.22 8.25839 28.0311 8.17391 27.7922 8.16441C27.5025 8.15279 27.2339 8.21509 26.9675 8.30801C25.975 8.65224 24.9633 8.93523 23.9613 9.24883C22.627 9.66592 21.2544 9.97108 19.9775 10.5687C17.2016 11.8686 15.1487 13.9614 13.4354 16.4291C13.2783 16.6561 12.928 16.9317 13.1456 17.183C13.3728 17.4448 13.774 17.2643 14.0882 17.1555C14.2008 17.1165 14.2963 17.0267 14.4003 16.9634C14.7145 16.7712 15.0213 16.5663 15.3472 16.3942C15.7898 16.1598 16.1698 16.1968 16.6019 16.5357C17.2706 17.0616 17.9298 17.6339 18.7833 17.8757C19.6601 18.1249 20.5539 18.2516 21.4614 18.3593C22.5389 18.4881 23.6142 18.4617 24.682 18.4121C25.3635 18.3804 26.0747 18.3244 26.752 18.0055H26.7509ZM21.1685 7.79801C21.3893 7.90993 21.5156 7.85714 21.6536 7.81807C23.2257 7.3767 24.8169 7.01768 26.4611 7.14862C27.7933 7.25526 29.0395 7.64173 29.9896 8.6628C30.2889 8.98485 30.5734 9.32064 30.9757 9.77679C30.9757 9.29424 30.9821 8.96902 30.9746 8.64379C30.9545 7.71564 30.5607 7.01029 29.7295 6.55308C29.1297 6.22364 28.479 6.09587 27.8124 6.06736C26.3751 6.00506 24.9962 6.34507 23.6343 6.74843C22.8011 6.99551 21.9795 7.28483 21.1695 7.79801H21.1685ZM39.9093 16.3995C39.9252 15.8494 39.9019 15.314 39.6227 14.8146C39.4561 14.5179 39.2246 14.3489 38.8966 14.4239C38.5793 14.4967 38.4911 14.7565 38.4742 15.0701C38.4519 15.4787 38.557 15.8684 38.5877 16.2686C38.679 17.4258 38.3585 18.4807 37.7959 19.4796C37.6059 19.8164 37.4742 20.1976 37.8394 20.4785C38.1865 20.7446 38.5049 20.4574 38.8022 20.2842C38.9019 20.2261 38.972 20.1089 39.041 20.0097C39.7904 18.9157 39.8446 17.655 39.9104 16.3995H39.9093ZM42.2308 17.5452C42.2521 17.1502 42.2489 16.5442 41.9081 15.9856C41.7309 15.6963 41.4899 15.616 41.1916 15.6804C40.8976 15.7438 40.8371 15.9982 40.8211 16.2474C40.8052 16.5093 40.7808 16.7838 40.8371 17.0362C41.0833 18.1449 40.871 19.1808 40.4029 20.1881C40.2628 20.4901 40.1152 20.791 40.0027 21.1036C39.9231 21.3232 39.9231 21.5566 40.1333 21.7308C40.3286 21.8924 40.525 21.8417 40.7245 21.7382C41.008 21.5925 41.25 21.4204 41.4262 21.13C42.0589 20.0899 42.2351 18.9527 42.2319 17.5452H42.2308ZM44.5831 18.9791C44.5035 18.4131 44.5215 17.8535 44.2806 17.3319C44.1076 16.9591 43.8125 16.8366 43.4632 16.9634C43.1278 17.0858 43.0684 17.3994 43.1182 17.7395C43.3369 19.2125 43.3454 20.6485 42.4888 21.9737C42.2924 22.2778 42.0748 22.7255 42.5089 23.0085C42.9229 23.2777 43.2106 22.8902 43.5046 22.6558C43.5301 22.6347 43.5397 22.5945 43.562 22.5682C44.4642 21.5217 44.4027 20.2113 44.5821 18.978L44.5831 18.9791Z" fill="white"/>
<path d="M35.3291 60.8745C35.0043 61.11 34.6625 61.3265 34.3599 61.5873C34.1423 61.7752 34.0648 61.8122 33.8621 61.5334C32.359 59.4765 30.5194 57.7627 28.3359 56.4365C26.0866 55.0712 23.6642 54.1198 21.0795 53.5919C20.3109 53.4345 19.5424 53.2793 18.6783 53.103C18.9702 53.6489 19.4246 53.878 19.7812 54.1811C21.2896 55.463 22.5656 56.9412 23.7215 58.5357C24.1833 59.1734 24.6206 59.826 25.0134 60.506C25.2289 60.8798 25.6068 60.79 25.8987 60.8281C27.2839 61.0086 28.5408 61.5017 29.7169 62.2293C29.8666 62.3222 30.0619 62.4331 30.0619 62.6031C30.0619 62.828 29.7933 62.7878 29.6458 62.8491C28.4176 63.3623 27.1873 63.8723 25.9433 64.3453C25.6312 64.4636 25.5675 64.6188 25.5526 64.9176C25.5335 65.2946 25.6885 65.6367 25.6832 66.0094C25.6609 67.7506 25.3626 69.438 24.783 71.0821C23.9784 73.3649 22.7099 75.387 21.279 77.3193C20.9818 77.7206 20.6718 78.1123 20.2812 78.6202C21.175 78.3774 21.8713 78.011 22.5762 77.6847C24.5421 76.7745 26.3806 75.6394 28.1183 74.3575C30.254 72.7821 32.2613 71.0578 34.0478 69.0811C34.6402 68.4254 35.1773 67.7982 35.2898 66.9049C35.3174 66.6905 35.4331 66.6768 35.6061 66.6451C36.5509 66.4719 37.4892 66.2618 38.4361 66.0992C39.7088 65.8806 40.8043 65.2449 41.9093 64.6494C43.2394 63.9324 44.526 63.1395 45.7541 62.2557C47.789 60.7932 49.6031 59.1016 51.2559 57.2221C52.9723 55.2708 54.3703 53.1135 55.5369 50.8127C56.6483 48.6206 57.4306 46.3018 58.0346 43.9186C58.7437 41.1215 59.0537 38.279 58.972 35.4069C58.852 31.1811 58.0177 27.0937 56.3426 23.191C55.3002 20.7624 53.9532 18.508 52.3386 16.4226C49.9927 13.3932 47.1447 10.9192 43.8009 9.01535C40.591 7.18861 37.1581 6.01021 33.5086 5.42207C31.1223 5.03771 28.7265 4.87088 26.3116 4.9015C23.2067 4.94057 20.2334 5.58996 17.3493 6.71767C15.7274 7.35228 14.1287 8.03334 12.5885 8.84006C10.0196 10.1864 7.60579 11.7692 5.37557 13.6276C4.6219 14.2559 3.90857 14.9264 3.16764 15.5684C2.34816 16.2389 1.68684 17.0635 0.95122 17.8164C0.720873 18.0529 1.00005 18.1754 1.08178 18.2789C1.79724 19.188 2.51163 20.1098 3.37782 20.8764C4.19093 21.5955 4.76733 22.3959 4.85755 23.4951C4.8618 23.5479 4.85331 23.6028 4.86498 23.6535C5.22059 25.1698 5.22059 25.1518 6.781 25.174C8.77663 25.2025 10.7521 25.0251 12.6777 24.5215C14.4482 24.0579 16.1636 23.4096 17.8758 22.756C19.0042 22.3252 20.0668 21.7075 21.2886 21.5227C21.8352 21.4403 22.3851 21.4276 22.919 21.5005C23.6207 21.5955 23.8861 22.2122 23.5326 22.8763C22.9212 24.0262 22.2758 25.1582 21.6421 26.2954C20.934 27.5678 20.226 28.8402 19.5127 30.1083C18.879 31.2371 17.999 31.6183 16.7071 31.4314C15.8462 31.3068 14.9705 31.2878 14.1033 31.2043C12.7371 31.0734 11.3741 30.8971 10.0048 30.8031C9.53454 30.7704 9.07066 30.6711 8.59829 30.6785C8.14397 30.6848 7.90088 30.462 7.92211 30.0112C7.9391 29.6332 7.83613 29.2499 8.01022 28.8761C8.09196 28.7008 7.96988 28.5572 7.83507 28.422C7.17375 27.7578 6.56764 27.0472 6.20885 26.1697C6.08996 25.8794 5.8628 25.8952 5.65474 25.9353C5.12505 26.0378 4.87242 25.7917 4.70151 25.3271C4.39368 24.4919 4.09115 23.6577 3.99561 22.7676C3.96483 22.4814 3.80136 22.2966 3.61347 22.1129C2.37788 20.9007 1.15715 19.679 0.1466 18.2599C-0.0614549 17.9674 -0.0274868 17.8111 0.137046 17.5957C0.265488 17.4289 0.417283 17.2789 0.566955 17.129C1.36521 16.3318 2.14329 15.5145 2.96914 14.7469C5.18556 12.6857 7.58456 10.8643 10.2001 9.32156C11.6374 8.47366 13.1054 7.69017 14.6372 7.03445C17.395 5.85288 20.2249 4.89094 23.1674 4.24472C24.5983 3.93006 26.0367 3.65235 27.4814 3.4475C28.683 3.27645 29.8974 3.12334 31.1202 3.098C32.1828 3.07582 33.1997 2.85408 34.2018 2.46445C36.3587 1.62605 38.589 1.03474 40.8807 0.665167C42.3552 0.42653 43.8317 0.251248 45.321 0.127706C46.8708 -0.00111613 48.4185 -0.0475764 49.963 0.047456C52.1253 0.180501 54.278 0.399076 56.4084 0.855231C58.1854 1.23536 59.9305 1.70313 61.6055 2.38736C63.8464 3.30284 65.9153 4.51292 67.7315 6.13692C68.4554 6.7842 69.087 7.50539 69.7133 8.23714C69.8471 8.39341 69.9957 8.54335 70.019 8.76615C68.9469 8.99528 67.9035 9.27616 66.929 9.76505C66.2019 10.1304 66.0214 10.1061 65.4312 9.5961C65.2391 9.43032 65.0321 9.27932 64.7444 9.18324C64.9663 9.58976 65.1849 9.9984 65.411 10.4028C65.5172 10.5918 65.6095 10.7059 65.3059 10.8579C63.4473 11.7892 62.3613 13.3552 61.7956 15.297C61.6087 15.9369 61.5525 16.6148 61.4357 17.2758C61.3986 17.4838 61.5249 17.6401 61.6109 17.8069C62.4229 19.3813 63.0651 21.0253 63.5853 22.7148C64.1001 24.3831 64.5374 26.0673 64.7402 27.8138C64.9323 29.4684 65.0809 31.1209 65.1775 32.7851C65.2391 33.8357 65.2953 34.8874 65.2391 35.9296C65.1319 37.8767 64.9939 39.8206 64.6468 41.7529C64.2275 44.0855 63.6086 46.3472 62.7127 48.5393C61.8263 50.7071 60.7033 52.7408 59.2851 54.6087C58.3903 55.7871 57.4434 56.9286 56.3585 57.938C54.4563 59.7067 52.379 61.2367 50.0988 62.5049C47.7338 63.8195 45.252 64.8395 42.6768 65.662C40.6801 66.2998 38.6516 66.8288 36.5901 67.1593C35.8418 67.2797 35.8641 67.6736 35.7006 68.1382C35.1784 69.6249 34.5287 71.0525 33.6742 72.3872C32.5129 74.2033 31.0979 75.8052 29.5078 77.2465C27.5238 79.0447 25.3361 80.5769 23.0209 81.9337C20.6188 83.3402 18.1338 84.5819 15.5756 85.6716C13.6404 86.4963 11.6597 87.2164 9.69695 87.9767C9.59186 88.0168 9.46236 87.9925 9.27766 88.001C9.69164 87.4899 10.215 87.2006 10.6534 86.8184C11.3699 86.1943 12.1522 85.6431 12.8645 85.0138C14.1489 83.8808 15.4514 82.7615 16.6562 81.5493C18.8705 79.3224 20.9287 76.955 22.5231 74.2361C23.6462 72.3206 24.5262 70.3028 24.8011 68.0695C24.9614 66.7686 25.0081 65.473 24.7002 64.1848C24.6291 63.887 24.7788 63.7392 25.0389 63.6294C25.7968 63.3084 26.5483 62.9726 27.3784 62.6094C26.9124 62.3327 26.4528 62.2356 26.007 62.1606C25.7373 62.1152 25.4497 62.0117 25.1875 62.0498C24.4381 62.1575 24.1589 61.6643 23.8298 61.1522C22.7312 59.4459 21.5677 57.7849 20.2801 56.2116C19.3842 55.1166 18.4512 54.0586 17.4396 53.0671C17.1561 52.7894 16.7613 52.6331 16.5352 52.2181C17.24 52.2836 17.9194 52.311 18.586 52.4177C19.7239 52.5993 20.8799 52.745 21.9828 53.0618C24.0198 53.6468 26.0261 54.3036 27.8901 55.3795C29.7413 56.4471 31.4121 57.7036 32.8855 59.2326C33.2443 59.6053 33.55 60.0298 33.8876 60.4247C34.0999 60.6728 34.2623 60.8534 34.6497 60.5567C36.0063 59.5177 37.3895 58.5156 38.7132 57.4333C40.0241 56.3615 41.3128 55.2697 42.5059 54.0681C42.542 54.0322 42.5664 53.9836 42.6662 53.839C41.2395 54.4334 39.987 55.1852 38.4191 55.5728C38.9955 54.8896 39.4743 54.3363 39.9371 53.7703C41.6694 51.6511 43.0653 49.3503 43.7627 46.6788C44.1003 45.3842 43.7373 44.1541 43.3625 42.9366C42.9273 41.5249 42.9103 41.5344 41.7873 42.3548C39.1441 44.284 36.4989 46.21 33.8525 48.1349C33.7517 48.2088 33.637 48.3176 33.4991 48.2437C33.3218 48.1476 33.4768 48.005 33.5171 47.9385C34.5223 46.2913 35.2304 44.5121 35.8259 42.6906C36.2515 41.3908 36.5201 40.055 36.7101 38.6929C36.9033 37.316 36.9542 35.9676 36.6061 34.5094C36.1114 35.1028 35.6539 35.6571 35.1879 36.2052C33.171 38.5789 31.065 40.8649 28.6448 42.8458C28.3295 43.1035 28.1448 43.0718 27.9591 42.6642C27.7744 42.2587 27.716 41.8332 27.6799 41.4224C27.5334 39.7361 27.3805 38.0467 27.4612 36.3509C27.475 36.0658 27.2574 35.7923 27.441 35.5093C27.441 34.9571 27.4432 34.4048 27.4442 33.8526C27.3009 33.5897 27.4878 33.5358 27.6799 33.4767C29.0789 33.0438 30.4685 32.6182 31.9397 32.4324C33.653 32.217 35.3004 32.4546 36.9553 32.7956C37.0179 32.8083 37.071 32.8695 37.1294 32.9075C37.2483 33.3658 37.658 33.6266 37.8905 34.0141C38.7174 35.3932 39.4297 36.8092 39.626 38.4247C39.6887 38.9368 39.8989 38.8692 40.2396 38.6855C42.7363 37.3413 44.837 35.5104 46.7127 33.4186C47.5035 32.5369 48.255 31.6162 48.9694 30.65C48.7401 32.3257 48.2624 33.9233 47.5661 35.4576C47.2859 35.9465 47.0173 36.4417 46.7243 36.9221C45.9993 38.109 45.1544 39.2145 44.1077 40.1289C43.2638 40.866 43.2437 40.8016 43.6863 41.8057C44.1619 42.8859 44.4421 44.0284 44.5589 45.2026C44.6565 46.1825 44.3635 47.1064 44.0653 48.023C43.4103 50.0366 42.3244 51.8137 41.0389 53.4821C40.954 53.5919 40.7587 53.6763 40.9211 53.9076C41.6365 53.5264 42.3552 53.1494 43.0696 52.764C44.1958 52.1558 45.2255 51.3966 46.2987 50.705C46.3846 50.649 46.4643 50.5487 46.5704 50.6385C46.6521 50.7071 46.6161 50.799 46.546 50.8644C45.7626 51.5888 45.1554 52.4758 44.3975 53.217C43.0271 54.557 41.6344 55.8737 40.1579 57.1038C38.5879 58.4111 36.9638 59.6475 35.3355 60.8787L35.3291 60.8745ZM19.898 27.9416C20.1751 27.4622 20.4351 26.9733 20.7345 26.5076C20.9181 26.2225 20.9213 25.9417 20.8342 25.6428C20.658 25.041 20.4723 24.4423 20.2833 23.8182C19.9341 24.3071 19.6953 25.4433 19.7345 26.3514C19.726 26.8603 19.7154 27.3693 19.7122 27.8782C19.7122 28.0144 19.7229 28.0144 19.898 27.9416ZM8.66835 25.8466H6.59842C7.14297 26.8054 7.68434 27.6153 8.57919 28.1264C8.63863 28.1887 8.7416 28.1897 8.74266 28.12C8.7469 27.3608 8.84775 26.5984 8.66835 25.8456V25.8466ZM15.6456 30.5782C15.4747 30.0006 15.3208 29.4188 15.1297 28.8486C14.9535 28.3217 14.7561 27.7959 14.2986 27.4316C14.2126 27.3629 14.1011 27.2616 13.9653 27.3186C13.8082 27.3851 13.8846 27.5319 13.8867 27.6396C13.8984 28.5635 14.0417 29.4822 14.0035 30.4092C14.0013 30.4642 14.065 30.5212 14.099 30.5771C14.6149 30.7112 15.1297 30.7376 15.6456 30.5782ZM68.8291 8.2836C68.6369 8.04707 68.4735 7.84328 68.3047 7.6416C68.2484 7.57402 68.1816 7.51489 68.12 7.45259C65.8876 5.18976 63.201 3.65341 60.2224 2.59538C56.0486 1.11287 51.7251 0.626098 47.3198 0.708459C47.1564 0.711627 46.9855 0.694732 46.8443 0.868958C49.2082 1.42965 51.482 2.15401 53.6559 3.16452C55.7896 4.15708 57.7809 5.36505 59.508 6.97637C60.8391 8.21813 62.0163 9.58343 62.9176 11.1705C63.0747 11.4471 63.2424 11.483 63.495 11.256C63.7551 11.0216 64.0375 10.8009 64.341 10.6277C64.6245 10.4672 64.5958 10.3057 64.4652 10.0744C63.9716 9.2033 63.4833 8.329 62.9982 7.45365C62.7934 7.08302 62.6012 6.70395 62.4027 6.3291C63.8602 7.07563 65.2327 7.89185 66.6042 8.71335C66.8197 8.84217 67.0065 8.95621 67.2878 8.8369C67.7708 8.63205 68.275 8.47894 68.8301 8.28254L68.8291 8.2836ZM16.463 24.3905C16.601 24.0231 16.4152 23.9893 16.1912 24.0695C15.5702 24.2944 14.9397 24.4834 14.2964 24.6334C14.1383 24.6703 14.0587 24.7337 14.1245 24.9227C14.4143 25.7516 14.6489 26.6037 14.9939 27.4083C15.1212 27.704 15.255 28.2372 15.6403 28.1939C16.0925 28.1443 16.1127 27.6068 16.187 27.2267C16.3738 26.2753 16.3865 25.3028 16.463 24.3905ZM16.7475 29.5107C16.7475 29.7387 16.7623 29.9668 16.7443 30.1938C16.7114 30.6014 16.9035 30.707 17.2814 30.6648C17.6625 30.6225 17.9597 30.4124 18.2728 30.2361C18.8652 29.9024 19.0679 29.3692 18.759 28.781C18.3885 28.0767 17.9576 27.402 17.534 26.7273C17.4258 26.5552 17.2994 26.4094 17.1774 26.7843C16.8876 27.6755 16.7294 28.5772 16.7485 29.5117L16.7475 29.5107ZM10.3869 25.6545C11.0727 26.5837 11.7117 27.4347 12.3327 28.2995C12.493 28.5223 12.6999 28.5762 12.9218 28.5213C13.1511 28.4653 13.2371 28.271 13.2137 28.0303C13.1383 27.2679 13.0863 26.5045 13.1161 25.7368C13.1214 25.5974 13.1086 25.457 13.1129 25.3166C13.1182 25.135 13.0364 25.042 12.8592 25.099C12.0726 25.3514 11.2467 25.4401 10.388 25.6534L10.3869 25.6545ZM12.6904 30.5771C11.8115 29.3913 11.0398 28.3196 10.2309 27.2763C9.9602 26.9268 9.80947 27.2605 9.75533 27.4738C9.55577 28.2657 9.65237 29.0883 9.53242 29.8908C9.5027 30.0914 9.58761 30.215 9.81902 30.2392C10.7266 30.3385 11.6321 30.4515 12.6904 30.5771ZM18.5297 27.0419C19.2293 25.7453 19.3672 24.3673 19.5838 23.0104C19.5997 22.9122 19.6263 22.7296 19.4055 22.8162C18.8004 23.0516 18.1975 23.2913 17.5924 23.5257C17.4438 23.5828 17.3525 23.6609 17.3992 23.8393C17.6795 24.9217 17.8886 26.0272 18.5297 27.0419ZM21.2121 22.341C21.054 22.341 20.8937 22.3526 20.7366 22.3389C20.3215 22.3019 20.2865 22.4772 20.485 22.7771C20.6931 23.0918 20.8693 23.4244 21.054 23.7506C21.1665 23.9492 21.2737 24.3261 21.5359 24.2881C21.7418 24.2585 21.7599 23.8995 21.8257 23.6704C21.8544 23.5722 21.8968 23.4772 21.9287 23.38C22.2216 22.4698 22.1325 22.341 21.2121 22.341Z" fill="#645AA7"/>
<path d="M67.673 32.8866C67.6645 32.6078 67.3482 29.2246 67.1773 27.6218C66.9331 25.3389 66.3249 23.1521 65.6126 20.9874C65.2039 19.7467 64.6711 18.5536 64.1191 17.3688C63.8017 16.6878 64.17 16.1313 64.3123 15.5294C64.3622 15.3193 64.5044 15.4196 64.6159 15.5294C65.3154 16.22 66.0319 16.8968 66.6444 17.6645C67.6167 18.883 68.5901 20.1026 69.4425 21.4109C71.9477 25.2533 73.697 29.4147 74.6407 33.8928C75.0388 35.7808 75.2914 37.6952 75.3562 39.6391C75.3891 40.6137 75.4857 41.5926 75.4315 42.5661C75.3169 44.6241 75.0844 46.6662 74.7214 48.7042C74.0717 52.3418 72.8001 55.7429 71.0889 58.9962C69.623 61.7827 67.7855 64.3074 65.654 66.6336C62.8166 69.7306 59.526 72.2384 55.8394 74.2446C53.0465 75.7652 50.0924 76.8675 47.0013 77.6236C45.3018 78.0386 43.5939 78.3648 41.8456 78.5116C41.1195 78.5718 40.3934 78.632 39.6652 78.6753C39.0888 78.4778 38.4965 78.6172 37.9127 78.6045C37.4711 78.595 37.0147 78.4841 36.5805 78.6753C35.6442 78.6045 34.7059 78.5422 33.7707 78.4599C33.3217 78.4208 32.8769 78.3289 32.4279 78.2877C32.1169 78.2592 32.0914 78.123 32.2676 77.9245C32.5489 77.6088 32.8589 77.3184 33.1487 77.0111C34.5084 75.5667 35.6538 73.9733 36.5911 72.2247C37.0444 71.3778 37.4467 70.5109 37.7736 69.6113C37.8384 69.4328 37.8925 69.3663 38.0772 69.3325C40.3658 68.9186 42.5971 68.2829 44.7891 67.5206C48.0278 66.3939 51.0828 64.884 53.9244 62.9727C55.0931 62.1861 56.1705 61.2685 57.2533 60.3604C58.2288 59.5421 59.1056 58.6361 59.9155 57.6805C61.8347 55.4156 63.4472 52.9532 64.6424 50.2162C65.4598 48.3441 66.1137 46.4276 66.5935 44.4541C66.896 43.2102 67.1115 41.9442 67.2718 40.6686C67.4342 39.373 67.5966 38.0817 67.5902 36.7744C67.5902 36.6773 67.6826 33.1664 67.6741 32.8887L67.673 32.8866Z" fill="white"/>
<path d="M3.39266 28.4115C3.94146 29.1887 4.37986 29.9447 4.91167 30.6374C5.77149 31.7577 6.76081 32.7598 7.83081 33.6689C8.628 34.3468 9.67145 34.6002 10.6618 34.8779C12.7105 35.4523 14.8006 35.8325 16.9205 36.0679C18.5891 36.2527 20.2621 36.3615 21.9318 36.5114C22.8023 36.5896 23.678 36.4903 24.5484 36.6624C24.9125 36.7342 24.972 36.9296 24.9964 37.1555C25.1259 38.3498 25.2119 39.5482 25.3371 40.7435C25.4581 41.8987 25.6195 43.0486 25.7426 44.2038C25.8668 45.3632 25.9666 46.5257 26.0749 47.6862C26.0812 47.7559 26.0759 47.8266 26.077 47.8974C26.077 48.06 26.1396 48.2331 26.2606 48.2986C26.4103 48.3789 26.5005 48.1899 26.5886 48.0948C27.7382 46.8499 29.0259 45.7475 30.2837 44.6187C31.2147 43.7835 32.2263 43.0359 33.0914 42.1226C33.1891 42.0191 33.3356 41.9621 33.5659 41.8174C33.2273 42.716 32.9959 43.5312 32.6254 44.2777C31.445 46.6524 30.5215 49.1349 29.4749 51.5646C29.2902 51.9943 29.1023 52.423 28.9452 52.8633C28.8645 53.0893 28.786 53.16 28.5609 53.0238C26.4867 51.7641 24.2066 51.0482 21.8554 50.516C20.4723 50.2035 19.07 50.0462 17.6656 49.8719C16.1095 49.6787 14.5448 49.5668 12.9876 49.3873C12.0896 49.2838 11.1841 49.1296 10.2733 49.1528C9.96655 49.1602 9.68207 48.9575 9.35406 49.0684C11.6894 51.2055 14.0374 53.2963 16.3175 55.4588C18.5117 57.5389 20.1825 60.0404 21.8331 62.5461C22.1271 62.9917 22.1218 63.5481 22.2184 64.055C22.3649 64.8205 22.4923 65.5913 22.4785 66.3854C22.453 67.9598 22.1197 69.4602 21.4892 70.8941C21.0816 71.8202 20.6145 72.7188 20.0572 73.5709C19.8852 73.8349 19.7918 73.8834 19.4914 73.7008C18.0711 72.836 16.6774 71.9332 15.3611 70.9195C14.2508 70.0642 13.2041 69.1308 12.2 68.153C9.75425 65.774 7.6737 63.1142 5.96256 60.166C4.52741 57.6941 3.38629 55.0924 2.53072 52.3734C2.05092 50.8486 1.70275 49.288 1.46285 47.6989C1.25267 46.3093 1.01701 44.926 1.02126 43.5195C1.02657 41.7213 0.95014 39.9241 1.1168 38.1238C1.25267 36.6593 1.45966 35.2116 1.77705 33.7798C2.17724 31.9784 2.67402 30.2034 3.39266 28.4126V28.4115Z" fill="white"/>
<path d="M109.216 23.9599C109.216 19.7373 109.225 15.5146 109.205 11.2931C109.203 10.782 109.307 10.592 109.87 10.6015C112.008 10.6363 114.149 10.5582 116.285 10.6321C118.116 10.6954 119.957 10.7694 121.711 11.4451C123.698 12.2107 124.882 13.5707 125.227 15.691C125.527 17.542 125.429 19.3613 124.993 21.167C124.671 22.5038 123.828 23.4667 122.624 24.1109C122.29 24.2904 122.197 24.4477 122.312 24.8458C123.464 28.8245 124.582 32.8137 125.722 36.7956C125.814 37.1155 125.786 37.2169 125.418 37.2137C123.649 37.1958 121.88 37.201 120.111 37.2095C119.79 37.2105 119.679 37.0954 119.601 36.7713C118.7 33.0333 117.773 29.3017 116.856 25.568C116.826 25.4455 116.82 25.3125 116.652 25.3104C116.21 25.3062 115.767 25.2861 115.326 25.3146C115.026 25.3347 115.132 25.6124 115.131 25.7771C115.121 27.6397 115.127 29.5034 115.127 31.366C115.127 33.159 115.111 34.9519 115.133 36.7438C115.138 37.1271 115.028 37.2169 114.663 37.2127C113.017 37.1958 111.372 37.1884 109.728 37.2158C109.291 37.2232 109.208 37.0796 109.209 36.6794C109.222 32.4399 109.217 28.1994 109.217 23.9599H109.216ZM115.123 18.2495C115.123 18.2495 115.131 18.2495 115.135 18.2495C115.135 19.3392 115.145 20.4299 115.129 21.5196C115.124 21.8153 115.208 21.9336 115.514 21.9241C116.08 21.9061 116.647 21.9357 117.211 21.9082C118.619 21.8385 119.379 21.2271 119.757 19.8893C120.067 18.7901 120.084 17.6803 119.775 16.5853C119.499 15.6033 118.977 14.8832 117.83 14.6984C117.068 14.5759 116.319 14.6572 115.568 14.5907C115.219 14.5601 115.111 14.6879 115.117 15.0342C115.136 16.106 115.124 17.1788 115.124 18.2505L115.123 18.2495Z" fill="white"/>
<path d="M111.547 47.5596V46.4033C111.664 46.1552 111.663 45.907 111.547 45.66V44.5037C111.664 44.2556 111.663 44.0075 111.547 43.7604C111.55 43.4478 111.554 43.1342 111.557 42.8217C111.582 42.7963 111.609 42.7699 111.634 42.7446C113.506 42.7414 115.377 42.7382 117.247 42.7351C117.414 42.9325 117.358 43.1701 117.358 43.394C117.361 46.5564 117.358 49.7178 117.364 52.8803C117.364 53.0788 117.273 53.3048 117.466 53.4748L117.464 53.4737C117.601 53.6406 117.793 53.5719 117.96 53.574C118.985 53.5804 120.012 53.5519 121.036 53.5867C121.51 53.6026 121.629 53.4526 121.626 52.9912C121.608 49.5785 121.618 46.1647 121.619 42.7509C123.553 42.7087 125.488 42.7087 127.422 42.7509C127.422 51.3978 127.421 60.0458 127.435 68.6926C127.435 69.1203 127.304 69.2206 126.897 69.2153C125.324 69.1942 123.751 69.1847 122.179 69.2195C121.687 69.2301 121.605 69.0643 121.607 68.6219C121.625 65.1775 121.619 61.7321 121.612 58.2877C121.612 58.0902 121.709 57.8632 121.509 57.6953C120.162 57.6974 118.815 57.7006 117.467 57.7027C117.273 57.8727 117.363 58.0997 117.363 58.2982C117.357 61.7278 117.351 65.1574 117.367 68.5871C117.37 69.039 117.295 69.2333 116.771 69.2206C115.198 69.1826 113.623 69.2069 112.049 69.2079C111.872 69.2079 111.694 69.2217 111.545 69.0971C111.545 68.8531 111.545 68.6082 111.545 68.3643C111.665 67.9757 111.665 67.5871 111.545 67.1985V66.4647C111.662 66.2165 111.661 65.9684 111.545 65.7213V64.9874C111.665 64.5989 111.665 64.2103 111.545 63.8217V62.6655C111.662 62.4173 111.661 62.1692 111.545 61.9221V60.7659C111.668 60.2369 111.668 59.7068 111.545 59.1778V57.5992C111.662 57.3511 111.661 57.1029 111.545 56.8558V56.122C111.662 55.8738 111.661 55.6257 111.545 55.3786V54.6447C111.67 53.9742 111.67 53.3048 111.545 52.6343C111.545 51.8265 111.545 51.0187 111.545 50.211C111.648 50.1033 111.647 49.9956 111.545 49.8889V49.1561C111.648 49.0484 111.647 48.9407 111.545 48.834C111.545 48.6598 111.545 48.4856 111.545 48.3114C111.662 48.0632 111.661 47.8151 111.545 47.568L111.547 47.5596Z" fill="white"/>
<path d="M158.542 42.8078C160.298 42.999 162.031 43.2439 163.557 44.2492C164.775 45.0517 165.384 46.2195 165.642 47.5922C165.798 48.4232 165.925 49.269 165.861 50.1179C165.766 51.4019 165.723 52.706 165.214 53.914C164.761 54.9847 163.961 55.7766 162.929 56.295C162.596 56.4629 162.633 56.6572 162.695 56.8769C163.105 58.3414 163.54 59.7986 163.956 61.261C164.671 63.7762 165.378 66.2935 166.09 68.8087C166.108 68.8731 166.154 68.9301 166.186 68.9903C166.153 69.2522 165.95 69.2026 165.781 69.2026C164.069 69.2047 162.356 69.2004 160.644 69.2078C160.434 69.2078 160.264 69.1751 160.148 68.9914C159.779 67.9249 159.564 66.8162 159.289 65.7254C158.769 63.6696 158.279 61.6063 157.778 59.5452C157.641 58.9802 157.499 58.4164 157.374 57.8483C157.303 57.5252 157.179 57.3108 156.791 57.3805C156.637 57.408 156.473 57.3848 156.315 57.3848C155.498 57.3848 155.506 57.3848 155.514 58.1968C155.534 60.6148 155.549 63.0318 155.561 65.4498C155.568 66.7 155.563 67.9492 155.563 69.1994C153.797 69.2004 152.031 69.1888 150.264 69.2131C149.838 69.2194 149.738 69.0875 149.738 68.6788C149.75 60.0351 149.749 51.3914 149.749 42.7476C152.219 42.7424 154.689 42.7371 157.16 42.7318C157.614 42.8923 158.081 42.7983 158.544 42.8068L158.542 42.8078ZM157.374 54.0174C157.479 54.01 157.585 53.9995 157.691 53.9963C159.088 53.9604 159.86 53.1294 160.146 52.1918C160.485 51.0788 160.476 49.9881 160.264 48.8498C160.041 47.6503 159.408 46.9449 158.223 46.7063C157.381 46.4888 156.526 46.6313 155.677 46.6281C155.645 46.6281 155.613 46.6989 155.581 46.7369C155.56 46.8193 155.52 46.9027 155.521 46.985C155.563 49.0916 155.576 51.1971 155.533 53.3036C155.528 53.4884 155.315 53.9203 155.778 54.0174C156.31 54.1505 156.843 54.1505 157.374 54.0174Z" fill="white"/>
<path d="M185.504 42.9187C184.873 44.4435 184.239 45.9661 183.612 47.4919C182.68 49.7611 181.757 52.0345 180.817 54.3005C180.694 54.5972 180.685 54.8495 180.794 55.1547C182.068 58.7152 183.332 62.279 184.589 65.8469C184.959 66.8975 185.279 67.9651 185.717 68.9904C185.654 69.3156 185.392 69.1984 185.206 69.1994C183.585 69.2079 181.963 69.2037 180.342 69.2047C180.149 69.2047 179.953 69.2258 179.784 69.097C179.264 67.7729 178.873 66.4065 178.426 65.0581C177.686 62.8249 176.931 60.5979 176.186 58.3657C176.12 58.1651 176.158 57.842 175.927 57.8209C175.69 57.7987 175.637 58.1271 175.513 58.3119C175.465 58.3847 175.423 58.4629 175.379 58.5379C175.23 58.7047 175.3 58.9074 175.299 59.0933C175.295 62.2885 175.288 65.4847 175.304 68.6799C175.306 69.0854 175.209 69.2216 174.78 69.2153C173.015 69.1889 171.249 69.2005 169.484 69.1973C169.479 69.0748 169.468 68.9513 169.468 68.8288C169.468 60.2812 169.468 51.7346 169.468 43.187C169.468 43.0645 169.479 42.942 169.485 42.8184C169.553 42.7899 169.621 42.7614 169.689 42.7329C171.557 42.7382 173.425 42.7435 175.294 42.7487C175.294 45.9851 175.296 49.2215 175.297 52.4579C175.297 52.7039 175.295 52.9499 175.299 53.197C175.3 53.2783 175.275 53.4082 175.388 53.4082C175.519 53.4082 175.525 53.2752 175.529 53.1685C176.045 51.7378 176.676 50.3535 177.256 48.948C178.083 46.9471 178.889 44.9377 179.707 42.9325C179.725 42.8881 179.78 42.8575 179.817 42.8216C179.839 42.7984 179.862 42.7762 179.885 42.753C181.752 42.7487 183.619 42.7456 185.487 42.7414C185.494 42.8005 185.499 42.8596 185.505 42.9198L185.504 42.9187Z" fill="white"/>
<path d="M191.253 23.8087C191.253 25.9639 191.253 28.1179 191.253 30.2731C191.253 31.0154 191.331 31.7418 191.616 32.4377C191.907 33.1452 192.453 33.4672 193.41 33.4218C194.049 33.3922 194.729 33.1568 194.912 32.3712C195.05 31.7788 195.191 31.1949 195.189 30.5835C195.186 29.6511 195.198 28.7188 195.181 27.7864C195.177 27.5361 195.189 27.401 195.499 27.4031C197.215 27.4147 198.93 27.4094 200.645 27.4073C200.84 27.4073 200.987 27.4179 200.985 27.6787C200.97 29.4473 201.071 31.2192 200.564 32.9551C199.851 35.389 198.3 36.9496 195.782 37.3688C193.572 37.7373 191.354 37.7764 189.205 36.8926C187.713 36.2791 186.81 35.1482 186.158 33.7586C185.744 32.8759 185.496 31.9372 185.428 30.9689C185.138 26.8825 185.377 22.7887 185.292 18.7002C185.263 17.3286 185.491 16.0098 185.914 14.7099C186.608 12.5738 187.999 11.2032 190.225 10.6879C192.425 10.1779 194.606 10.1843 196.782 10.8189C198.871 11.4271 199.987 12.9223 200.565 14.9032C201.04 16.5367 201.01 18.2177 200.987 19.8966C200.984 20.1405 200.911 20.2398 200.654 20.2387C198.957 20.2313 197.258 20.2302 195.561 20.2387C195.216 20.2408 195.152 20.0624 195.155 19.773C195.164 18.8586 195.141 17.9431 195.165 17.0287C195.18 16.4786 195.048 15.9559 194.918 15.4396C194.74 14.7405 193.829 14.2823 193.068 14.4502C191.777 14.7363 191.26 15.3593 191.255 16.6729C191.249 19.0518 191.253 21.4308 191.253 23.8087Z" fill="white"/>
<path d="M127.684 37.2052C127.942 35.8494 128.184 34.5813 128.425 33.3131C128.689 31.9278 128.958 30.5435 129.216 29.1581C129.588 27.1592 129.947 25.1593 130.322 23.1605C130.642 21.451 130.977 19.7435 131.307 18.0351C131.7 16.0056 132.134 13.9835 132.446 11.9382C132.5 11.5824 132.613 11.2339 132.664 10.8781C132.697 10.6468 132.853 10.6394 133.004 10.6384C135.069 10.6352 137.134 10.6405 139.198 10.6373C139.427 10.6373 139.501 10.7535 139.538 10.9509C140.03 13.615 140.526 16.2791 141.023 18.9432C141.456 21.2641 141.892 23.5839 142.328 25.9038C142.953 29.2383 143.577 32.5729 144.203 35.9064C144.265 36.2327 144.331 36.5579 144.401 36.8832C144.448 37.1049 144.384 37.2084 144.137 37.2073C142.528 37.2021 140.918 37.2042 139.309 37.2042C139.063 37.2042 138.964 37.1229 138.921 36.8399C138.699 35.3563 138.433 33.8791 138.187 32.3987C138.164 32.2625 138.176 32.1199 138.175 31.9805C138.173 31.7166 138.041 31.6068 137.777 31.6078C136.698 31.6131 135.619 31.6173 134.539 31.6046C134.263 31.6015 134.167 31.7314 134.128 31.971C133.879 33.5422 133.616 35.1103 133.379 36.6836C133.324 37.0521 133.221 37.2232 132.792 37.2158C131.097 37.1883 129.401 37.2042 127.684 37.2042V37.2052ZM136.196 18.3846C136.097 18.4796 136.055 18.5007 136.051 18.5261C135.625 21.5977 135.206 24.6694 134.776 27.74C134.736 28.0251 134.868 28.0663 135.099 28.0642C135.753 28.0589 136.406 28.0409 137.058 28.0705C137.476 28.0895 137.559 27.9575 137.502 27.5542C137.172 25.2649 136.874 22.9704 136.555 20.6791C136.452 19.9347 136.323 19.1934 136.195 18.3846H136.196Z" fill="white"/>
<path d="M135.512 42.7329C137.631 42.7329 139.751 42.7329 141.871 42.7329C141.903 42.7603 141.936 42.7878 141.968 42.8152C142.344 44.7349 142.728 46.6535 143.097 48.5752C143.506 50.7029 143.907 52.8316 144.303 54.9614C144.568 56.389 144.829 57.8177 145.076 59.2484C145.476 61.5715 145.995 63.8734 146.351 66.2048C146.498 67.1699 146.75 68.1202 146.873 69.0917C146.758 69.248 146.588 69.2026 146.436 69.2026C144.781 69.2026 143.127 69.1983 141.472 69.1952C141.319 67.8721 141.111 66.5575 140.855 65.2492C140.764 64.7804 140.754 64.2957 140.708 63.8184C140.684 63.7794 140.661 63.7403 140.637 63.7012C140.59 63.6875 140.543 63.6727 140.496 63.659C139.388 63.5323 138.276 63.6326 137.166 63.6041C137.031 63.6009 136.879 63.5608 136.777 63.7012C136.482 64.2978 136.475 64.9631 136.375 65.5966C136.206 66.6599 136.025 67.7201 135.834 68.7781C135.81 68.9143 135.814 69.0558 135.806 69.1941C133.943 69.1941 132.08 69.1941 130.217 69.1941C130.424 68.1171 130.628 67.039 130.839 65.963C131.081 64.7308 131.338 63.5017 131.574 62.2684C131.798 61.1005 132 59.9295 132.218 58.7606C132.448 57.522 132.689 56.2866 132.919 55.048C133.15 53.8115 133.362 52.5729 133.601 51.3386C133.909 49.741 134.288 48.155 134.536 46.5489C134.729 45.2977 135.124 44.0855 135.206 42.8173C135.312 42.8047 135.429 42.8279 135.512 42.7318V42.7329ZM140.073 60.128C140.12 59.5093 139.918 58.9201 139.835 58.3182C139.506 55.9191 139.149 53.5254 138.871 51.1189C138.842 50.8602 138.905 50.5477 138.629 50.3407C138.388 51.0303 138.422 51.7514 138.29 52.4473C138.074 53.5771 138.017 54.7355 137.838 55.8727C137.628 57.2148 137.419 58.5558 137.297 59.9094C137.119 60.1977 137.303 60.2336 137.528 60.2347C138.056 60.2368 138.585 60.2547 139.111 60.2283C139.432 60.2125 139.775 60.354 140.073 60.1259V60.128Z" fill="white"/>
<path d="M102.73 62.4448C102.52 61.8208 102.396 61.1714 102.007 60.6065C101.334 59.6255 100.517 58.7924 99.5734 58.0754C99.2274 57.8125 98.927 57.4968 98.5979 57.2138C97.1712 55.9847 95.7042 54.7736 94.7744 53.0926C94.2648 52.1708 93.9209 51.1824 94.0026 50.098C94.0026 49.569 94.0026 49.04 94.0026 48.5099C93.9135 48.0675 94.0483 47.6493 94.1491 47.2291C94.5005 45.7613 95.2106 44.49 96.5067 43.6833C97.6192 42.9906 98.8643 42.5767 100.204 42.488C101.441 42.4057 102.671 42.3877 103.876 42.7108C105.142 43.0498 106.132 43.7488 106.756 44.9441C107.426 46.2302 107.854 47.5722 107.916 49.0252C107.92 49.1244 107.991 49.2195 108.002 49.3198C108.043 49.6841 108.086 49.9639 107.519 50.0125C106.208 50.1244 104.906 50.3419 103.602 50.5182C103.029 50.5953 102.927 50.5056 102.922 49.9185C102.917 49.1202 102.767 48.3378 102.587 47.567C102.489 47.1488 102.161 46.793 101.729 46.7402C101.174 46.6726 100.561 46.5976 100.148 47.1541C99.324 48.2628 99.4938 50.0917 100.488 51.3313C101.494 52.5836 102.748 53.573 103.939 54.6247C105.565 56.0597 107.103 57.5665 107.93 59.6065C108.473 60.9486 108.632 62.3519 108.479 63.8302C108.327 65.3116 107.728 66.5418 106.783 67.6009C105.896 68.5945 104.733 69.2639 103.408 69.5078C101.796 69.8045 100.175 69.7644 98.5841 69.3104C97.1744 68.9081 96.0736 68.0823 95.2796 66.8638C94.4612 65.6073 94.1364 64.1955 94.0016 62.7267C93.9729 62.4174 93.9145 62.1122 93.8848 61.8007C93.8455 61.391 94.0313 61.2537 94.3795 61.2052C95.4261 61.0573 96.4717 60.9085 97.5173 60.7606C97.8602 60.7121 98.2211 60.7142 98.5416 60.6022C98.8941 60.4787 98.8654 60.6466 98.8919 60.8852C98.9981 61.807 98.9843 62.7489 99.3123 63.6348C99.5235 64.205 99.7772 64.753 100.393 65.0181C101.492 65.4901 102.322 65.1353 102.697 64.0276C102.929 63.505 102.864 62.977 102.727 62.4469L102.73 62.4448Z" fill="white"/>
<path d="M161.437 23.9355C161.437 19.7129 161.445 15.4903 161.426 11.2677C161.424 10.7725 161.539 10.6183 162.064 10.6215C165.504 10.6479 168.945 10.65 172.385 10.6236C172.898 10.6194 173.001 10.7767 172.985 11.2413C172.952 12.2075 172.959 13.1768 172.983 14.144C172.991 14.5073 172.893 14.6266 172.514 14.6213C170.957 14.6013 169.4 14.6298 167.844 14.6013C167.418 14.5939 167.271 14.7153 167.282 15.1271C167.339 17.0668 167.242 19.0086 167.338 20.9494C167.351 21.2387 167.451 21.2936 167.717 21.2915C169.04 21.2799 170.365 21.3032 171.689 21.2789C172.111 21.2715 172.275 21.3665 172.258 21.8216C172.222 22.7878 172.247 23.7571 172.247 24.7243C172.247 25.4138 172.182 25.5025 171.503 25.4835C170.654 25.4592 169.806 25.4751 168.958 25.473C168.602 25.4719 168.239 25.4708 167.88 25.4349C167.495 25.3959 167.335 25.531 167.336 25.9513C167.349 29.5192 167.336 33.0872 167.353 36.6551C167.355 37.0859 167.258 37.2232 166.805 37.2158C165.178 37.1873 163.55 37.1905 161.923 37.2147C161.514 37.2211 161.426 37.0954 161.427 36.709C161.441 32.4515 161.436 28.193 161.436 23.9355H161.437Z" fill="white"/>
<path d="M147.168 23.9324C147.168 19.6929 147.175 15.4534 147.157 11.2139C147.155 10.7577 147.261 10.6215 147.738 10.6247C151.195 10.6458 154.653 10.6405 158.11 10.6268C158.502 10.6257 158.674 10.6902 158.658 11.1379C158.621 12.1389 158.631 13.143 158.655 14.1451C158.663 14.5094 158.563 14.6266 158.185 14.6213C156.629 14.6013 155.073 14.6213 153.517 14.6055C153.16 14.6013 153.025 14.6857 153.029 15.069C153.047 16.9866 153.044 18.9041 153.03 20.8206C153.026 21.1828 153.12 21.3021 153.504 21.2958C154.828 21.2725 156.153 21.3074 157.475 21.2831C157.885 21.2757 157.993 21.4151 157.986 21.7963C157.967 22.7455 157.979 23.6959 157.979 24.6462C157.979 25.4825 157.891 25.5543 157.079 25.4888C156.285 25.4255 155.487 25.4783 154.693 25.4635C154.364 25.4571 154.028 25.5163 153.685 25.4223C153.147 25.2755 153.037 25.3948 153.037 25.9534C153.037 29.5066 153.025 33.0597 153.049 36.6139C153.052 37.1123 152.9 37.2232 152.428 37.2148C150.855 37.1862 149.279 37.1862 147.706 37.2148C147.25 37.2232 147.157 37.0733 147.159 36.6488C147.174 32.4093 147.169 28.1698 147.169 23.9303L147.168 23.9324Z" fill="white"/>
<path d="M102.893 26.1361C102.893 29.6544 102.885 33.1727 102.902 36.691C102.904 37.1123 102.785 37.2211 102.37 37.2147C100.761 37.1915 99.1509 37.1873 97.5427 37.2168C97.0809 37.2253 96.9514 37.1123 96.9525 36.6393C96.9695 29.6554 96.9642 22.6716 96.9642 15.6878C96.9642 15.2408 96.732 15.0173 96.2678 15.0173C95.2955 15.0173 94.3221 14.9993 93.3497 15.0257C92.9612 15.0363 92.8296 14.9402 92.8402 14.5326C92.8699 13.407 92.8699 12.2803 92.8402 11.1558C92.8296 10.7345 92.9549 10.6278 93.3731 10.63C96.7423 10.6468 100.112 10.6384 103.481 10.6373C104.504 10.6373 105.527 10.6437 106.551 10.6268C106.85 10.6215 106.95 10.7218 106.948 11.0143C106.938 12.2265 106.937 13.4397 106.948 14.6519C106.951 14.9835 106.765 15.0204 106.506 15.0194C105.534 15.0152 104.56 15.0173 103.588 15.0183C103.124 15.0183 102.892 15.2418 102.892 15.6888C102.892 19.1723 102.892 22.6547 102.892 26.1382L102.893 26.1361Z" fill="white"/>
<path d="M175.766 23.9671C175.766 19.7466 175.766 15.5262 175.766 11.3057C175.766 10.8615 175.998 10.6394 176.461 10.6394C178.048 10.6394 179.636 10.6468 181.223 10.632C181.539 10.6288 181.64 10.6742 181.637 11.0364C181.61 14.0795 181.562 17.1238 181.621 20.1669C181.728 25.6735 181.629 31.1801 181.683 36.6856C181.687 37.0943 181.585 37.222 181.158 37.2157C179.532 37.1893 177.905 37.1893 176.279 37.2157C175.847 37.2231 175.756 37.0858 175.757 36.6825C175.771 32.444 175.766 28.2056 175.766 23.9682V23.9671Z" fill="white"/>
<path d="M41.3668 46.0896C41.2246 46.9048 40.887 47.6714 40.5314 48.4253C39.7417 50.1 38.6377 51.5688 37.434 52.9647C36.3799 54.1874 35.294 55.3838 34.2378 56.6055C34.0478 56.8262 33.9374 56.8948 33.7049 56.6615C32.6349 55.5855 31.3484 54.7883 30.1053 53.9351C29.6362 53.613 29.6255 53.5761 30.1 53.2424C30.876 52.6954 31.6679 52.1696 32.4491 51.629C34.0881 50.4939 35.7133 49.3376 37.366 48.2236C38.5645 47.4159 39.8011 46.6651 41.0123 45.8763C41.1099 45.813 41.1959 45.756 41.2904 45.794C41.4135 45.8436 41.3424 45.9766 41.3668 46.0907V46.0896Z" fill="#645AA7"/>
<path d="M121.51 57.6921C121.71 57.8599 121.613 58.087 121.613 58.2844C121.62 61.7288 121.626 65.1743 121.608 68.6187C121.606 69.0621 121.689 69.2279 122.18 69.2163C123.752 69.1815 125.325 69.191 126.897 69.2121C127.305 69.2174 127.436 69.1171 127.436 68.6894C127.422 60.0425 127.424 51.3946 127.423 42.7477C127.602 42.8818 127.511 43.074 127.511 43.2345C127.516 51.7472 127.511 60.259 127.526 68.7718C127.526 69.2216 127.39 69.324 126.96 69.3177C125.334 69.2934 123.707 69.2934 122.08 69.3177C121.649 69.324 121.514 69.2184 121.517 68.7697C121.536 65.2873 121.527 61.8048 121.526 58.3224C121.526 58.1113 121.516 57.9011 121.509 57.6899L121.51 57.6921Z" fill="white"/>
<path d="M149.747 42.7488C149.747 51.3925 149.749 60.0362 149.737 68.68C149.737 69.0886 149.837 69.2195 150.263 69.2142C152.03 69.1889 153.796 69.2016 155.562 69.2005C155.482 69.38 155.318 69.3061 155.192 69.3061C153.495 69.3114 151.797 69.2998 150.1 69.3177C149.751 69.3209 149.649 69.2206 149.649 68.8753C149.657 60.277 149.655 51.6776 149.657 43.0793C149.657 42.9663 149.602 42.828 149.747 42.7498V42.7488Z" fill="white"/>
<path d="M111.547 69.0938C111.696 69.2195 111.874 69.2047 112.051 69.2047C113.626 69.2037 115.2 69.1794 116.773 69.2174C117.297 69.2301 117.372 69.0347 117.369 68.5838C117.354 65.1542 117.359 61.7246 117.365 58.295C117.365 58.0965 117.275 57.8695 117.469 57.6995C117.469 61.3751 117.46 65.0518 117.477 68.7274C117.479 69.1762 117.389 69.3314 116.901 69.3219C115.275 69.2881 113.648 69.3156 112.021 69.2997C111.863 69.2987 111.559 69.4824 111.548 69.0938H111.547Z" fill="white"/>
<path d="M169.485 69.1963C171.25 69.1984 173.016 69.1879 174.781 69.2143C175.21 69.2206 175.307 69.0844 175.305 68.6789C175.289 65.4837 175.296 62.2875 175.3 59.0923C175.3 58.9075 175.231 58.7048 175.38 58.5369C175.382 61.9834 175.384 65.4288 175.388 68.8753C175.388 69.115 175.409 69.3188 175.047 69.3157C173.262 69.3009 171.476 69.3093 169.691 69.3083C169.605 69.3083 169.512 69.3104 169.485 69.1974V69.1963Z" fill="white"/>
<path d="M121.621 42.7488C121.621 46.1626 121.61 49.5753 121.628 52.989C121.63 53.4494 121.513 53.6004 121.038 53.5846C120.014 53.5497 118.987 53.5782 117.962 53.5719C117.795 53.5709 117.603 53.6384 117.466 53.4716C118.594 53.4716 119.723 53.4452 120.85 53.4811C121.375 53.498 121.545 53.3586 121.541 52.8117C121.515 49.6376 121.526 46.4624 121.534 43.2873C121.534 43.1088 121.437 42.9019 121.621 42.7488Z" fill="white"/>
<path d="M175.528 53.1675C175.524 53.2741 175.518 53.4071 175.387 53.4071C175.273 53.4071 175.299 53.2783 175.298 53.196C175.294 52.9499 175.297 52.7039 175.296 52.4568C175.296 49.2204 175.294 45.9841 175.293 42.7477C175.477 42.9008 175.38 43.1077 175.381 43.2862C175.388 46.3906 175.384 49.496 175.391 52.6015C175.391 52.7905 175.277 53.0291 175.527 53.1675H175.528Z" fill="white"/>
<path d="M117.467 53.4726C117.274 53.3026 117.365 53.0767 117.365 52.8781C117.359 49.7157 117.362 46.5543 117.359 43.3918C117.359 43.1679 117.415 42.9314 117.249 42.7329C117.644 42.7741 117.456 43.0814 117.457 43.2545C117.469 46.4677 117.466 49.6798 117.466 52.8929C117.466 53.0862 117.466 53.2794 117.466 53.4726H117.467Z" fill="white"/>
<path d="M160.148 68.9914C160.264 69.1751 160.435 69.2089 160.644 69.2079C162.356 69.2005 164.069 69.2047 165.781 69.2026C165.95 69.2026 166.153 69.2522 166.186 68.9904C166.354 69.2026 166.29 69.3082 166.03 69.3082C164.165 69.3092 162.3 69.3082 160.434 69.3092C160.208 69.3092 160.104 69.2205 160.147 68.9904L160.148 68.9914Z" fill="white"/>
<path d="M179.784 69.0959C179.952 69.2247 180.149 69.2036 180.342 69.2036C181.963 69.2036 183.585 69.2068 185.206 69.1983C185.392 69.1983 185.654 69.3145 185.717 68.9893C185.87 69.2004 185.818 69.3081 185.554 69.3081C183.726 69.3081 181.899 69.3081 180.071 69.3081C179.924 69.3081 179.781 69.2997 179.785 69.0959H179.784Z" fill="white"/>
<path d="M141.473 69.1953C143.128 69.1984 144.782 69.2016 146.437 69.2027C146.589 69.2027 146.759 69.2491 146.874 69.0918C146.826 69.3051 146.826 69.3093 146.548 69.3093C145.386 69.3104 144.223 69.3093 143.061 69.3093C142.674 69.3093 142.286 69.3167 141.899 69.3051C141.753 69.3009 141.576 69.3758 141.473 69.1953Z" fill="white"/>
<path d="M130.217 69.1963C132.08 69.1963 133.943 69.1963 135.806 69.1963C135.743 69.3526 135.602 69.3072 135.488 69.3082C133.816 69.3114 132.146 69.3103 130.474 69.3082C130.377 69.3082 130.255 69.341 130.217 69.1973V69.1963Z" fill="white"/>
<path d="M136.778 63.7035C136.88 63.562 137.032 63.6021 137.168 63.6063C138.278 63.6348 139.389 63.5345 140.498 63.6612C139.259 63.7615 138.018 63.6802 136.778 63.7035Z" fill="white"/>
<path d="M36.5815 78.6741C37.0157 78.4819 37.4721 78.5928 37.9137 78.6034C38.4976 78.616 39.0899 78.4756 39.6663 78.6741C38.6377 78.6741 37.6101 78.6741 36.5815 78.6741Z" fill="white"/>
<path d="M111.547 52.6268C111.672 53.2973 111.672 53.9668 111.547 54.6373C111.5 53.9668 111.5 53.2973 111.547 52.6268Z" fill="white"/>
<path d="M27.44 33.8506C27.44 34.4028 27.4379 34.9561 27.4368 35.5073C27.3476 34.954 27.3052 34.4018 27.44 33.8506Z" fill="#6983B8"/>
<path d="M111.547 59.1714C111.67 59.7004 111.67 60.2305 111.547 60.7595C111.499 60.2305 111.499 59.7004 111.547 59.1714Z" fill="white"/>
<path d="M94.0036 48.5099C94.0036 49.0389 94.0036 49.5679 94.0036 50.098C93.8699 49.569 93.8699 49.04 94.0036 48.5099Z" fill="white"/>
<path d="M102.73 62.4447C102.867 62.9748 102.932 63.5027 102.701 64.0254C102.71 63.4985 102.721 62.9716 102.73 62.4447Z" fill="white"/>
<path d="M158.542 42.8079C158.08 42.7995 157.612 42.8924 157.158 42.733C157.622 42.7097 158.088 42.6538 158.542 42.8079Z" fill="white"/>
<path d="M111.547 63.8164C111.667 64.205 111.667 64.5936 111.547 64.9821C111.5 64.5936 111.5 64.205 111.547 63.8164Z" fill="white"/>
<path d="M111.547 67.1953C111.667 67.5839 111.667 67.9725 111.547 68.361C111.5 67.9725 111.5 67.5839 111.547 67.1953Z" fill="white"/>
<path d="M111.547 55.3712C111.663 55.6194 111.664 55.8675 111.547 56.1146C111.502 55.8664 111.502 55.6183 111.547 55.3712Z" fill="white"/>
<path d="M111.547 56.8495C111.663 57.0976 111.664 57.3458 111.547 57.5928C111.502 57.3447 111.502 57.0966 111.547 56.8495Z" fill="white"/>
<path d="M111.547 47.5596C111.663 47.8077 111.664 48.0559 111.547 48.3029C111.502 48.0548 111.502 47.8067 111.547 47.5596Z" fill="white"/>
<path d="M111.547 45.6588C111.663 45.907 111.664 46.1551 111.547 46.4022C111.502 46.154 111.502 45.9059 111.547 45.6588Z" fill="white"/>
<path d="M111.547 61.9167C111.663 62.1649 111.664 62.413 111.547 62.6601C111.502 62.412 111.502 62.1638 111.547 61.9167Z" fill="white"/>
<path d="M111.547 43.7582C111.663 44.0063 111.664 44.2545 111.547 44.5015C111.502 44.2534 111.502 44.0053 111.547 43.7582Z" fill="white"/>
<path d="M111.547 65.717C111.663 65.9652 111.664 66.2133 111.547 66.4604C111.502 66.2123 111.502 65.9641 111.547 65.717Z" fill="white"/>
<path d="M111.547 49.8815C111.649 49.9892 111.65 50.0969 111.547 50.2035V49.8815Z" fill="white"/>
<path d="M111.547 48.8256C111.649 48.9333 111.65 49.041 111.547 49.1476V48.8256Z" fill="white"/>
<path d="M135.512 42.7329C135.429 42.829 135.312 42.8057 135.206 42.8184C135.264 42.6368 135.398 42.7192 135.512 42.7329Z" fill="white"/>
<path d="M185.504 42.9188C185.498 42.8597 185.493 42.8005 185.486 42.7404C185.666 42.7826 185.545 42.8544 185.504 42.9188Z" fill="white"/>
<path d="M169.689 42.7329C169.621 42.7614 169.553 42.79 169.485 42.8185C169.505 42.6759 169.6 42.7097 169.689 42.7329Z" fill="white"/>
<path d="M140.638 63.7024C140.661 63.7415 140.684 63.7805 140.709 63.8196C140.685 63.7805 140.662 63.7415 140.638 63.7024Z" fill="white"/>
<path d="M179.883 42.753C179.861 42.7762 179.838 42.7984 179.816 42.8216C179.805 42.7656 179.827 42.7424 179.883 42.753Z" fill="white"/>
<path d="M111.634 42.7424C111.609 42.7677 111.582 42.7941 111.557 42.8195C111.54 42.7519 111.566 42.7255 111.634 42.7424Z" fill="white"/>
<path d="M141.968 42.8143C141.936 42.7868 141.903 42.7594 141.871 42.7319C141.945 42.7108 141.973 42.7425 141.968 42.8143Z" fill="white"/>
<path d="M35.329 60.8747C36.9574 59.6435 38.5815 58.407 40.1514 57.0998C41.628 55.8696 43.0207 54.5529 44.3911 53.2129C45.149 52.4717 45.7562 51.5847 46.5396 50.8604C46.6107 50.7949 46.6468 50.703 46.564 50.6344C46.4578 50.5457 46.3793 50.646 46.2922 50.7009C45.2201 51.3925 44.1905 52.1517 43.0631 52.7599C42.3488 53.1454 41.6301 53.5234 40.9147 53.9035C40.7523 53.6723 40.9476 53.5878 41.0325 53.478C42.318 51.8096 43.4039 50.0325 44.0588 48.0189C44.3571 47.1024 44.6501 46.1795 44.5524 45.1985C44.4357 44.0244 44.1554 42.8819 43.6799 41.8017C43.2372 40.7975 43.2563 40.8619 44.1013 40.1249C45.1479 39.2104 45.9929 38.1049 46.7179 36.918C47.0119 36.4376 47.2794 35.9424 47.5597 35.4535C47.9768 35.9044 48.0926 36.502 48.2921 37.0469C48.6658 38.069 48.963 39.1165 49.1912 40.184C49.3632 40.9875 49.4502 41.8006 49.5723 42.6084C49.6986 43.4468 49.7379 44.2704 49.7007 45.1035C49.5203 49.2015 47.928 52.6712 44.9622 55.5148C42.3127 58.0554 39.1175 59.6614 35.6761 60.8388C35.57 60.8747 35.4532 60.9697 35.3269 60.8725L35.329 60.8747Z" fill="white"/>
<path d="M26.7511 18.0055C26.0728 18.3244 25.3627 18.3803 24.6812 18.412C23.6133 18.4616 22.538 18.488 21.4606 18.3592C20.554 18.2505 19.6603 18.1237 18.7824 17.8756C17.93 17.6338 17.2697 17.0615 16.601 16.5357C16.169 16.1967 15.789 16.1597 15.3463 16.3942C15.0215 16.5663 14.7147 16.7722 14.3994 16.9633C14.2944 17.0267 14.1999 17.1164 14.0874 17.1555C13.7732 17.2642 13.3719 17.4437 13.1447 17.1829C12.9271 16.9316 13.2774 16.655 13.4345 16.429C15.1478 13.9613 17.2008 11.8685 19.9766 10.5687C21.2536 9.97103 22.6261 9.66587 23.9604 9.24878C24.9625 8.93517 25.9741 8.65219 26.9666 8.30796C27.233 8.21504 27.5026 8.15274 27.7914 8.16435C28.0302 8.17386 28.2192 8.25833 28.2956 8.47479C28.3678 8.6807 28.3211 8.87815 28.1502 9.05238C27.716 9.49903 27.1757 9.79469 26.6577 10.1199C26.0325 10.5127 25.3669 10.8337 24.679 11.0998C24.4381 11.1927 24.3648 11.2761 24.5145 11.4937C25.1748 12.4482 25.2268 13.5379 25.1206 14.6234C25.0283 15.5737 24.5166 16.3709 23.816 17.0076C23.5687 17.2326 23.3469 17.5145 22.9976 17.6465C24.2799 17.6053 25.5038 17.9252 26.75 18.0055H26.7511ZM21.3226 13.7142C21.3226 14.1873 21.3332 14.6614 21.3183 15.1345C21.3088 15.4607 21.3385 15.6117 21.7525 15.4914C22.59 15.2474 23.1346 14.9359 23.2885 13.7005C23.418 12.6657 22.6303 11.822 21.6155 11.8843C21.3863 11.8981 21.3109 11.9625 21.3173 12.1895C21.3311 12.6974 21.3215 13.2064 21.3215 13.7142H21.3226ZM19.69 12.5168C18.6943 13.01 17.9173 13.6055 17.3111 14.4365C17.0606 14.7797 17.1806 14.9528 17.4778 15.0626C18.0903 15.2886 18.7314 15.3995 19.3832 15.4565C19.6709 15.4818 19.6953 15.352 19.6932 15.1249C19.6847 14.2834 19.69 13.4418 19.69 12.5158V12.5168Z" fill="#645AA7"/>
<path d="M21.1685 7.79798C21.9785 7.28481 22.8001 6.99549 23.6334 6.7484C24.9953 6.34504 26.3742 6.00504 27.8114 6.06734C28.4791 6.09585 29.1298 6.22361 29.7285 6.55306C30.5597 7.01027 30.9535 7.71562 30.9737 8.64377C30.9811 8.96899 30.9747 9.29527 30.9747 9.77677C30.5724 9.32061 30.2879 8.98483 29.9886 8.66278C29.0385 7.64171 27.7934 7.25524 26.4601 7.14859C24.8159 7.01766 23.2236 7.37667 21.6526 7.81805C21.5135 7.85711 21.3872 7.90991 21.1675 7.79798H21.1685Z" fill="#645AA7"/>
<path d="M39.9095 16.3995C39.8437 17.655 39.7895 18.9147 39.0401 20.0096C38.9711 20.11 38.901 20.2272 38.8013 20.2842C38.5051 20.4563 38.1866 20.7446 37.8385 20.4785C37.4723 20.1987 37.6049 19.8164 37.7949 19.4796C38.3586 18.4807 38.6792 17.4258 38.5868 16.2685C38.555 15.8694 38.4499 15.4787 38.4733 15.0701C38.4902 14.7554 38.5783 14.4967 38.8957 14.4239C39.2237 14.3489 39.4562 14.5178 39.6218 14.8145C39.902 15.314 39.9254 15.8493 39.9084 16.3995H39.9095Z" fill="#645AA7"/>
<path d="M42.2309 17.544C42.2341 18.9516 42.0579 20.0899 41.4252 21.1289C41.249 21.4193 41.007 21.5903 40.7236 21.7371C40.524 21.8395 40.3266 21.8912 40.1323 21.7297C39.9221 21.5555 39.9221 21.3221 40.0017 21.1025C40.1143 20.7899 40.2618 20.489 40.4019 20.187C40.8701 19.1807 41.0834 18.1438 40.8361 17.0351C40.7798 16.7827 40.8042 16.5082 40.8202 16.2463C40.835 15.9971 40.8966 15.7426 41.1906 15.6793C41.49 15.6149 41.7299 15.6951 41.9071 15.9845C42.2489 16.543 42.2521 17.1491 42.2298 17.544H42.2309Z" fill="#645AA7"/>
<path d="M44.5832 18.979C44.4038 20.2123 44.4643 21.5216 43.5631 22.5691C43.5408 22.5955 43.5312 22.6356 43.5057 22.6568C43.2128 22.8901 42.9251 23.2787 42.5101 23.0094C42.0748 22.7264 42.2935 22.2787 42.4899 21.9746C43.3465 20.6484 43.338 19.2134 43.1194 17.7404C43.0684 17.4004 43.1289 17.0868 43.4643 16.9643C43.8125 16.8365 44.1087 16.959 44.2817 17.3328C44.5237 17.8544 44.5057 18.4141 44.5842 18.9801L44.5832 18.979Z" fill="#645AA7"/>
<path d="M68.829 8.28367C68.2738 8.48007 67.7696 8.63318 67.2866 8.83803C67.0053 8.95735 66.8185 8.84331 66.603 8.71448C65.2326 7.89404 63.859 7.07676 62.4016 6.33023C62.6001 6.70508 62.7912 7.08415 62.9971 7.45478C63.4822 8.33119 63.9705 9.20443 64.4641 10.0756C64.5957 10.3068 64.6233 10.4684 64.3399 10.6289C64.0363 10.801 63.754 11.0227 63.4939 11.2571C63.2413 11.4842 63.0735 11.4493 62.9164 11.1716C62.0152 9.58456 60.838 8.21926 59.5069 6.9775C57.7798 5.36723 55.7884 4.15821 53.6548 3.16565C51.4808 2.15408 49.2071 1.42972 46.8431 0.870089C46.9843 0.695862 47.1552 0.712757 47.3187 0.709589C51.725 0.627228 56.0485 1.11401 60.2213 2.59651C63.1999 3.65454 65.8865 5.19089 68.1189 7.45372C68.1804 7.51602 68.2473 7.57515 68.3036 7.64273C68.4713 7.84441 68.6358 8.04926 68.8279 8.28473L68.829 8.28367Z" fill="white"/>
<path d="M16.463 24.3906C16.3866 25.3029 16.3738 26.2754 16.187 27.2268C16.1127 27.6069 16.0915 28.1444 15.6403 28.194C15.2561 28.2363 15.1213 27.7041 14.9939 27.4084C14.6478 26.6038 14.4132 25.7517 14.1245 24.9228C14.0587 24.7338 14.1383 24.6704 14.2965 24.6335C14.9397 24.4835 15.5703 24.2945 16.1912 24.0696C16.4152 23.9883 16.601 24.0221 16.463 24.3906Z" fill="white"/>
<path d="M16.7474 29.5119C16.7283 28.5774 16.8864 27.6756 17.1762 26.7844C17.2983 26.4085 17.4246 26.5553 17.5329 26.7274C17.9575 27.4021 18.3885 28.0769 18.7579 28.7812C19.0668 29.3693 18.864 29.9026 18.2717 30.2362C17.9585 30.4126 17.6624 30.6227 17.2802 30.6649C16.9024 30.7072 16.7102 30.6016 16.7431 30.194C16.7612 29.968 16.7463 29.7389 16.7463 29.5108L16.7474 29.5119Z" fill="white"/>
<path d="M10.388 25.6557C11.2468 25.4434 12.0726 25.3547 12.8592 25.1013C13.0375 25.0443 13.1182 25.1372 13.1129 25.3188C13.1087 25.4582 13.1214 25.5986 13.1161 25.7391C13.0864 26.5067 13.1384 27.2702 13.2137 28.0325C13.2371 28.2722 13.1511 28.4676 12.9218 28.5235C12.7 28.5774 12.4919 28.5235 12.3327 28.3018C11.7128 27.437 11.0738 26.5859 10.387 25.6567L10.388 25.6557Z" fill="white"/>
<path d="M12.6915 30.5783C11.6332 30.4526 10.7266 30.3397 9.82011 30.2404C9.58976 30.2151 9.50378 30.0926 9.5335 29.892C9.65345 29.0895 9.55685 28.2669 9.75642 27.475C9.81055 27.2617 9.96129 26.9269 10.232 27.2775C11.0398 28.3208 11.8125 29.3925 12.6915 30.5783Z" fill="white"/>
<path d="M18.5307 27.0431C17.8885 26.0283 17.6794 24.9217 17.4002 23.8405C17.3546 23.662 17.4459 23.585 17.5934 23.5269C18.1985 23.2925 18.8014 23.0528 19.4065 22.8173C19.6273 22.7318 19.5997 22.9134 19.5848 23.0116C19.3693 24.3684 19.2313 25.7464 18.5307 27.0431Z" fill="white"/>
<path d="M14.0989 30.5772C14.066 30.5212 14.0012 30.4642 14.0033 30.4093C14.0416 29.4822 13.8972 28.5635 13.8866 27.6396C13.8855 27.533 13.8091 27.3851 13.9651 27.3186C14.101 27.2616 14.2125 27.363 14.2984 27.4316C14.7549 27.7959 14.9534 28.3217 15.1296 28.8486C15.3207 29.4188 15.4746 30.0017 15.6455 30.5782C15.1296 30.5782 14.6148 30.5782 14.0989 30.5782V30.5772Z" fill="white"/>
<path d="M8.57915 28.1275C7.68431 27.6154 7.14294 26.8055 6.59839 25.8478C7.34993 25.8478 8.00913 25.8478 8.66832 25.8478C8.66832 26.1751 8.68 26.5024 8.66408 26.8287C8.64285 27.2617 8.79676 27.7072 8.57915 28.1275Z" fill="white"/>
<path d="M19.7345 26.3515C19.6963 25.4424 19.9341 24.3072 20.2833 23.8184C20.4722 24.4435 20.658 25.0422 20.8342 25.643C20.9213 25.9407 20.9181 26.2216 20.7344 26.5078C20.4351 26.9724 20.175 27.4623 19.899 27.9407C19.7037 27.7992 19.813 27.5922 19.7865 27.4148C19.7324 27.0621 19.8958 26.6989 19.7356 26.3504L19.7345 26.3515Z" fill="white"/>
<path d="M21.2131 22.3422C22.1334 22.3422 22.2226 22.471 21.9296 23.3812C21.8978 23.4794 21.8553 23.5734 21.8267 23.6716C21.7608 23.9007 21.7417 24.2608 21.5369 24.2893C21.2747 24.3263 21.1675 23.9504 21.055 23.7518C20.8692 23.4256 20.694 23.093 20.486 22.7783C20.2875 22.4784 20.3225 22.3031 20.7376 22.3401C20.8947 22.3538 21.0539 22.3422 21.2131 22.3422Z" fill="white"/>
<path d="M8.5791 28.1275C8.79671 27.7072 8.64279 27.2616 8.66402 26.8287C8.67994 26.5024 8.66721 26.1741 8.66827 25.8478C8.84766 26.6006 8.74682 27.363 8.74257 28.1222C8.74257 28.1919 8.63855 28.1898 8.5791 28.1286V28.1275Z" fill="#6983B8"/>
<path d="M19.7345 26.3514C19.8948 26.6999 19.7313 27.0631 19.7855 27.4158C19.8131 27.5932 19.7027 27.8002 19.898 27.9416C19.7228 28.0156 19.7112 28.0156 19.7122 27.8794C19.7154 27.3704 19.726 26.8614 19.7345 26.3525V26.3514Z" fill="#6983B8"/>
<path d="M14.0989 30.5773C14.6148 30.5773 15.1307 30.5773 15.6455 30.5773C15.1296 30.7378 14.6137 30.7114 14.0989 30.5773Z" fill="#6983B8"/>
<path d="M158.223 46.7063C157.343 46.719 156.46 46.6472 155.582 46.7369C155.613 46.6989 155.645 46.6282 155.677 46.6282C156.526 46.6313 157.38 46.4888 158.223 46.7063Z" fill="white"/>
<path d="M155.779 54.0175C156.311 53.9689 156.844 53.9689 157.375 54.0175C156.844 54.1506 156.311 54.1506 155.779 54.0175Z" fill="white"/>
<path d="M137.297 59.9105C137.315 60.1777 137.515 60.1344 137.686 60.1344C138.482 60.1333 139.277 60.1302 140.073 60.127C139.775 60.3551 139.432 60.2125 139.111 60.2294C138.585 60.2558 138.056 60.2379 137.528 60.2357C137.303 60.2357 137.119 60.1988 137.297 59.9105Z" fill="white"/>
</g>
<defs>
<clipPath id="clip0_542_1165">
<rect width="201" height="88" fill="white"/>
</clipPath>
</defs>
</svg>
