<svg width="183" height="50" viewBox="0 0 183 50" fill="none" xmlns="http://www.w3.org/2000/svg">
<g clip-path="url(#clip0_539_809)">
<g style="mix-blend-mode:luminosity">
<path d="M26.3116 49.996C22.2828 49.996 19.5927 49.996 16.8986 49.996C15.2406 49.996 13.5951 49.8246 11.9413 49.7075C11.1994 49.6532 10.4657 49.5821 9.73625 49.4567C9.18084 49.3606 8.64201 49.1683 8.08659 49.0512C6.35818 48.6917 4.87018 47.8808 3.5977 46.6643C2.56563 45.682 1.81956 44.4864 1.37191 43.1404C0.804064 41.4306 0.476619 39.6708 0.335694 37.8649C-0.223863 30.7208 0.0870017 23.5726 0.078712 16.4244C0.078712 14.2924 0.227927 12.148 0.600965 10.0495C0.90354 8.3523 1.28901 6.65094 2.2299 5.15023C3.45263 3.20641 5.15617 1.91053 7.33223 1.24169C9.47098 0.589571 11.6678 0.313674 13.8936 0.175726C17.9638 -0.0750896 22.0341 0.0294167 26.1043 0.00851546C28.156 0.000154956 30.2119 -0.00820555 32.2636 0.0252365C34.6096 0.067039 36.9556 0.154824 39.2767 0.510146C40.6155 0.714978 41.9502 0.999235 43.206 1.51759C45.1956 2.33274 46.8245 3.61607 47.811 5.58079C48.4742 6.89757 48.8182 8.3314 49.1 9.76941C49.4358 11.4749 49.5435 13.2098 49.614 14.9404C49.8088 19.8313 49.7093 24.7263 49.7176 29.6214C49.7176 30.4366 49.7093 31.2517 49.7093 32.0669C49.7093 34.203 49.556 36.3307 49.357 38.4585C49.2824 39.2569 49.2327 40.0595 49.0006 40.8287C48.6731 41.903 48.4825 43.0233 48.0017 44.0475C46.866 46.4804 44.9842 48.0396 42.4517 48.8255C40.5658 49.4066 38.626 49.6741 36.6572 49.8162C32.761 50.0921 28.8648 49.9542 26.3074 49.9876L26.3116 49.996ZM37.0468 18.1341C37.0468 18.1341 37.0468 18.1383 37.0468 18.1425C37.5815 18.1425 38.1161 18.1299 38.6508 18.1425C39.5088 18.1675 40.2217 17.8833 40.8186 17.2479C41.374 16.6543 41.9792 16.1108 42.5429 15.5256C43.405 14.631 44.2879 13.749 45.0961 12.8043C45.8007 11.9766 45.6142 10.873 45.0298 10.2C44.5573 9.65654 43.9355 9.51023 43.2599 9.50605C42.4475 9.49769 41.6393 9.50605 40.8269 9.50605C40.2839 9.50605 40.2798 9.50605 40.2756 8.97516C40.2715 8.17673 40.2756 7.3783 40.259 6.57987C40.2466 5.94447 40.085 5.4094 39.6166 4.89523C39.1234 4.3518 38.5555 4.27237 37.9338 4.25147C37.4074 4.23475 36.9887 4.53573 36.6157 4.88687C36.1266 5.35088 35.6665 5.85251 35.1567 6.28725C34.1039 7.18601 33.1382 8.17673 32.1393 9.12983C31.6916 9.55621 31.4761 10.0746 31.4927 10.71C31.5175 11.6296 31.4968 12.5493 31.5092 13.4689C31.5092 13.7824 31.4388 14.0458 31.2067 14.2632C30.444 14.9905 29.7228 15.7639 29.043 16.5707C28.3053 17.4443 27.4307 18.1843 26.7095 19.0746C26.6266 19.1792 26.552 19.2293 26.4069 19.1917C25.151 18.8656 23.9324 18.9869 22.7055 19.4049C21.4206 19.8438 20.4922 20.7049 19.6922 21.7458C19.2943 22.2642 19.1036 22.8954 18.9047 23.5141C18.4488 24.9312 18.5607 26.3232 19.2031 27.6274C19.8746 28.986 20.8777 30.0562 22.3035 30.7041C23.9324 31.444 25.5738 31.4984 27.2152 30.8504C28.3508 30.4031 29.3373 29.7259 30.0337 28.66C30.6595 27.6985 31.0947 26.6827 31.1279 25.5206C31.1486 24.7347 31.074 23.9655 30.8005 23.2215C30.7093 22.979 30.6388 22.7407 30.8668 22.5025C31.7331 21.5828 32.5745 20.6422 33.4698 19.756C33.9257 19.3046 34.365 18.8406 34.7754 18.3515C34.9163 18.1801 35.0448 18.1257 35.2438 18.1299C35.8489 18.1383 36.4499 18.1299 37.0551 18.1299L37.0468 18.1341Z" fill="#3B4690"/>
</g>
<path d="M142.326 37.8146C140.838 37.8146 139.375 37.8104 137.916 37.8187C137.721 37.8187 137.684 37.7017 137.643 37.5763C137.166 36.0672 136.619 34.5791 136.08 33.0909C135.997 32.8568 136.022 32.5265 135.84 32.3886C135.632 32.2297 135.309 32.3301 135.035 32.3301C131.467 32.3217 127.894 32.3217 124.325 32.3175C123.753 32.3175 123.732 32.3217 123.538 32.8442C123.136 33.9437 122.775 35.0556 122.356 36.1466C122.191 36.5856 122.008 37.0203 121.88 37.4718C121.801 37.756 121.66 37.8146 121.407 37.8104C120.441 37.802 119.476 37.8104 118.51 37.8104C118.116 37.8104 117.718 37.8104 117.295 37.8104C117.523 37.175 117.731 36.5563 117.963 35.9502C118.394 34.8257 118.841 33.7054 119.273 32.5809C119.641 31.6111 119.994 30.6371 120.363 29.6673C120.719 28.7267 121.092 27.7861 121.449 26.8456C121.942 25.5497 122.431 24.2538 122.924 22.9579C123.359 21.8126 123.803 20.6713 124.238 19.526C124.769 18.1298 125.295 16.7336 125.826 15.3415C126.19 14.3842 126.567 13.4353 126.912 12.4697C126.974 12.2983 127.032 12.2607 127.185 12.2607C128.996 12.2649 130.808 12.2774 132.619 12.2607C132.872 12.2607 132.967 12.3861 133.029 12.5491C133.527 13.8826 134.003 15.2203 134.492 16.5538C134.94 17.7786 135.396 18.9992 135.84 20.2241C136.188 21.1813 136.511 22.1512 136.876 23.1043C137.352 24.3374 137.754 25.5957 138.231 26.8247C139.056 28.9608 139.819 31.122 140.623 33.2665C141.186 34.7713 141.742 36.2804 142.326 37.8104V37.8146ZM134.451 28.3212C134.289 27.9074 134.124 27.5311 133.995 27.1424C133.261 24.9185 132.42 22.7322 131.649 20.5209C131.239 19.3337 130.729 18.1799 130.422 16.9551C130.406 16.884 130.389 16.7921 130.327 16.7879C130.086 16.7712 129.838 16.7419 129.61 16.7921C129.49 16.8172 129.448 17.0136 129.403 17.1599C129.266 17.5905 129.1 18.0127 128.942 18.4349C128.379 19.9356 127.803 21.4322 127.247 22.937C126.704 24.4127 126.174 25.8925 125.589 27.3472C125.469 27.6482 125.399 27.9742 125.299 28.317H134.451V28.3212Z" fill="white"/>
<path d="M159.416 21.8836C159.416 18.807 159.416 15.8724 159.416 12.9379C159.416 12.5003 159.634 12.2816 160.07 12.2816C161.107 12.2816 162.139 12.2774 163.175 12.2816C163.548 12.2816 163.548 12.2899 163.556 12.6494C163.556 12.7372 163.556 12.825 163.556 12.9086C163.556 20.9974 163.556 29.0862 163.556 37.175C163.556 37.8564 163.66 37.8104 162.914 37.8104C162.205 37.8104 161.5 37.8187 160.792 37.8146C160.369 37.8146 160.361 37.8104 160.278 37.3798C160.145 36.665 159.954 35.9627 159.743 35.2646C159.706 35.1392 159.648 35.018 159.577 34.8257C159.291 35.1016 159.043 35.3524 158.777 35.5949C157.571 36.6984 156.22 37.5094 154.616 37.9191C153.406 38.2284 152.212 38.1406 150.993 38.0487C149.721 37.9525 148.614 37.4425 147.565 36.7737C146.148 35.8666 145.108 34.6376 144.361 33.1201C143.972 32.3217 143.665 31.4898 143.524 30.6329C143.416 29.9766 143.358 29.2952 143.371 28.6138C143.383 27.7987 143.35 26.971 143.512 26.1809C143.781 24.8892 144.241 23.6602 145.016 22.565C145.646 21.6746 146.413 20.9431 147.259 20.2659C148.042 19.6346 148.95 19.3002 149.866 18.9909C150.301 18.8404 150.778 18.7108 151.263 18.7443C151.573 18.7652 151.872 18.669 152.175 18.6481C153.091 18.5729 153.969 18.761 154.848 18.9783C156.435 19.3755 157.724 20.2742 158.897 21.382C159.043 21.5199 159.188 21.6621 159.42 21.892L159.416 21.8836ZM147.657 28.5219C147.677 29.1991 147.719 29.985 147.988 30.7374C148.336 31.7114 148.954 32.4973 149.7 33.1828C150.421 33.8433 151.308 34.2028 152.249 34.3533C153.314 34.5247 154.392 34.5205 155.445 34.1652C156.572 33.789 157.521 33.1619 158.247 32.2256C158.939 31.3352 159.2 30.265 159.366 29.1656C159.49 28.3505 159.362 27.5604 159.183 26.7662C159.047 26.1517 158.823 25.5831 158.516 25.0355C158.325 24.6928 157.994 24.5005 157.795 24.1869C157.534 23.7731 157.136 23.4847 156.75 23.2506C155.308 22.3644 153.725 22.2055 152.079 22.5023C151.387 22.6277 150.707 22.8618 150.164 23.2715C149.389 23.8609 148.726 24.6008 148.262 25.4828C147.781 26.3983 147.669 27.3974 147.657 28.526V28.5219Z" fill="white"/>
<path d="M89.7363 12.2983C90.8927 12.2899 92.045 12.2774 93.2014 12.2774C93.4874 12.2774 93.848 12.152 94.0346 12.3442C94.2045 12.5198 94.0801 12.8751 94.0801 13.1469C94.0843 16.1148 94.0843 19.0828 94.0843 22.0508C94.0843 22.2431 94.0843 22.4312 94.0843 22.6527C94.3703 22.7405 94.6812 22.6653 94.9796 22.6987C95.162 22.7196 95.2076 22.5482 95.2822 22.4646C95.9412 21.7331 96.5836 20.9848 97.222 20.2366C98.0012 19.3253 98.739 18.3805 99.5555 17.5069C100.219 16.792 100.84 16.0396 101.475 15.3039C102.204 14.4511 102.996 13.6485 103.663 12.7414C103.908 12.4111 104.214 12.2439 104.674 12.2565C106.121 12.2983 107.572 12.2732 109.018 12.2732C109.118 12.2732 109.221 12.2356 109.317 12.2983C109.375 12.4529 109.238 12.5115 109.167 12.5951C108.475 13.4019 107.8 14.2212 107.074 14.9987C106.506 15.609 105.934 16.2193 105.421 16.8631C104.782 17.6657 103.986 18.3262 103.414 19.1873C103.153 19.5803 102.768 19.8854 102.44 20.2324C102.37 20.3076 102.287 20.3787 102.233 20.4623C101.848 21.0768 101.317 21.5617 100.82 22.0759C100.534 22.3727 100.26 22.682 100.011 23.0123C99.6467 23.493 99.2778 23.9695 98.8219 24.3625C98.6478 24.513 98.6727 24.6467 98.797 24.7889C99.0291 25.0648 99.2488 25.3616 99.5182 25.5956C99.8788 25.9133 100.19 26.2687 100.484 26.6449C101.093 27.435 101.86 28.0829 102.486 28.8604C103.141 29.6798 103.883 30.4197 104.55 31.2264C104.931 31.6863 105.371 32.1085 105.752 32.5683C106.179 33.0867 106.664 33.5465 107.074 34.0816C107.364 34.462 107.717 34.7922 108.032 35.1642C108.674 35.9251 109.354 36.6524 110.017 37.3923C110.117 37.501 110.195 37.6264 110.332 37.8062C110.133 37.8062 109.972 37.8062 109.81 37.8062C108.239 37.8062 106.672 37.8062 105.101 37.8145C104.786 37.8145 104.587 37.7351 104.372 37.4717C104.011 37.037 103.676 36.5772 103.253 36.1926C102.975 35.9376 102.759 35.6199 102.519 35.3315C101.906 34.5916 101.197 33.9394 100.604 33.187C100.223 32.7063 99.7876 32.2799 99.4353 31.7699C99.1493 31.3519 98.768 30.9965 98.4198 30.6287C97.8893 30.0727 97.3836 29.4916 96.9028 28.9022C96.4261 28.3212 95.8542 27.8237 95.4189 27.2092C95.2324 26.9459 95.0418 26.8414 94.7433 26.8706C94.677 26.879 94.6065 26.8706 94.5361 26.8706C94.1133 26.8748 94.0884 26.7787 94.0884 27.3137C94.1009 30.7666 94.105 34.2195 94.1092 37.6724C94.1092 37.7017 94.0884 37.7351 94.0677 37.7769H89.7405C89.8648 37.4425 89.8275 37.1206 89.8275 36.8029C89.8275 33.4378 89.8275 30.0685 89.8275 26.7034C89.8275 22.3309 89.8358 17.9583 89.8275 13.5858C89.8275 13.1761 89.898 12.7581 89.7405 12.3568C89.7653 12.3359 89.7653 12.3108 89.7446 12.2857L89.7363 12.2983Z" fill="white"/>
<path d="M62.206 12.2774C63.6733 12.2774 65.0826 12.2899 66.496 12.269C66.7861 12.2648 66.7861 12.4487 66.84 12.6118C67.4451 14.38 68.0503 16.1441 68.643 17.9165C69.472 20.387 70.3341 22.8492 71.1548 25.3239C71.4242 26.1349 71.76 26.9375 71.9962 27.761C72.2698 28.7225 72.6304 29.6547 72.933 30.6036C73.1526 31.2933 73.3433 32.0081 73.65 32.6728C73.6707 32.7188 73.7205 32.7648 73.7163 32.8066C73.708 33.003 73.7578 33.2246 73.9029 33.304C74.1101 33.4127 74.3754 33.35 74.6158 33.3375C74.7608 33.3291 74.7318 33.2037 74.7608 33.1075C75.1339 32.0249 75.5111 30.9464 75.8924 29.8679C76.1577 29.1279 76.4892 28.4048 76.6882 27.644C76.9618 26.6073 77.3597 25.6124 77.7037 24.6007C78.4373 22.4354 79.2207 20.2867 79.9751 18.1297C80.5968 16.3656 81.2061 14.6016 81.832 12.8375C81.861 12.7581 81.8941 12.6828 81.8983 12.5951C81.9149 12.361 82.0641 12.2732 82.2796 12.269C83.693 12.269 85.1064 12.269 86.5447 12.269C86.5323 12.7288 86.325 13.1092 86.1965 13.4938C85.8774 14.4469 85.5002 15.3791 85.152 16.3238C84.7707 17.3647 84.3935 18.4056 84.0163 19.4465C83.4526 20.9932 82.8889 22.5357 82.3294 24.0824C81.7118 25.7796 81.0818 27.4726 80.4849 29.1781C80.1367 30.173 79.772 31.1554 79.4155 32.1461C78.9472 33.4503 78.4954 34.7587 77.998 36.0504C77.8363 36.4685 77.7078 36.9032 77.5462 37.3254C77.3845 37.7476 77.3224 37.8062 76.8996 37.8062C75.0717 37.8062 73.2438 37.7978 71.4118 37.8145C71.1465 37.8145 71.0636 37.7476 70.9683 37.4843C70.4999 36.2302 70.0771 34.9636 69.6212 33.7053C69.273 32.7397 68.9332 31.7657 68.6099 30.7875C68.2534 29.7132 67.8348 28.6598 67.4742 27.5896C66.9768 26.1098 66.4048 24.6551 65.924 23.1669C65.3478 21.3819 64.6557 19.6388 64.0671 17.8538C63.7687 16.9551 63.4122 16.073 63.1096 15.1743C62.8361 14.3549 62.5625 13.5314 62.2475 12.7288C62.1977 12.6034 62.2143 12.4571 62.1936 12.2774H62.206Z" fill="white"/>
<path d="M167.191 32.5307C167.842 32.3384 168.518 32.2757 169.185 32.1963C169.724 32.1294 170.246 31.9747 170.793 31.9204C171.042 31.8953 171.166 31.9037 171.262 32.1252C171.398 32.4429 171.597 32.7188 171.784 33.0073C172.306 33.8057 173.073 34.2154 173.968 34.4578C174.917 34.717 175.867 34.7295 176.812 34.4787C177.355 34.3366 177.927 34.2028 178.329 33.743C178.905 33.0783 178.892 32.0583 178.308 31.5107C177.744 30.9798 177.06 30.7625 176.381 30.5116C175.299 30.1187 174.171 29.8804 173.094 29.4791C172.074 29.0987 171.059 28.7058 170.18 28.0578C169.285 27.3932 168.58 26.578 168.34 25.4117C168.149 24.4921 168.174 23.5724 168.381 22.6988C168.592 21.8084 169.102 20.9974 169.848 20.4205C170.768 19.7057 171.78 19.1623 172.94 18.9156C174.387 18.6105 175.825 18.5143 177.272 18.8655C178.155 19.0787 179.021 19.3629 179.779 19.8729C180.38 20.2784 180.981 20.6964 181.429 21.3109C181.69 21.6704 181.98 22.0007 182.225 22.3769C182.54 22.8576 182.672 23.4052 182.917 23.9361C182.573 24.1284 182.183 24.0741 181.819 24.1368C181.33 24.2204 180.849 24.3291 180.364 24.4168C180.065 24.4712 179.767 24.5255 179.468 24.5799C179.199 24.6259 179.004 24.5172 178.897 24.2664C178.532 23.4136 177.835 22.8994 177.052 22.5023C176.331 22.1344 175.531 22.0801 174.748 22.2222C174.2 22.3225 173.624 22.3978 173.148 22.7656C172.746 23.075 172.526 23.4512 172.476 23.957C172.393 24.8056 172.895 25.2863 173.521 25.6793C174.287 26.16 175.154 26.3983 176.008 26.6616C177.268 27.0504 178.536 27.4141 179.738 27.945C181.097 28.5469 182.208 29.4833 182.755 30.9213C183.033 31.6487 183.05 32.4429 182.934 33.2205C182.751 34.4076 182.229 35.4276 181.338 36.2344C180.778 36.7402 180.123 37.0914 179.427 37.4007C177.496 38.2577 175.473 38.2577 173.446 38.0737C172.169 37.9567 170.992 37.4509 169.952 36.6692C169.612 36.4142 169.264 36.1592 168.953 35.8666C168.514 35.4569 168.211 34.9385 167.908 34.4202C167.564 33.8349 167.37 33.1996 167.191 32.5307Z" fill="white"/>
<g style="mix-blend-mode:luminosity">
<path d="M24.8693 40.9748C33.6191 40.9748 40.7109 33.8224 40.7109 24.9979C40.7109 22.5148 40.1514 20.1655 39.1483 18.0712C38.9867 18.0921 38.8209 18.1047 38.6468 18.0963C38.1121 18.0796 37.5774 18.0963 37.0427 18.0963V18.0879C36.4376 18.0879 35.8366 18.0921 35.2314 18.0879C35.0283 18.0879 34.904 18.1381 34.763 18.3095C34.3527 18.7986 33.9092 19.2668 33.4574 19.7141C32.558 20.6003 31.7166 21.545 30.8544 22.4605C30.6265 22.6988 30.7011 22.9412 30.7881 23.1795C31.0617 23.9236 31.1404 24.6927 31.1156 25.4786C31.0824 26.6407 30.6472 27.6565 30.0213 28.618C29.3291 29.684 28.3385 30.3653 27.2028 30.8084C25.5614 31.4522 23.9242 31.3979 22.2911 30.6621C20.8653 30.0142 19.8623 28.944 19.1908 27.5855C18.5483 26.2854 18.4406 24.8892 18.8924 23.4721C19.0913 22.8492 19.282 22.2222 19.6799 21.7039C20.4798 20.663 21.4083 19.8018 22.6932 19.3629C23.9201 18.9449 25.1387 18.8195 26.3946 19.1497C26.5396 19.1873 26.6142 19.1372 26.6971 19.0327C27.4183 18.1423 28.2929 17.4024 29.0307 16.5287C29.7105 15.7219 30.4317 14.9486 31.1943 14.2212C31.4264 13.9996 31.501 13.7363 31.4969 13.427C31.4845 12.5073 31.5052 11.5876 31.4803 10.668C31.4803 10.6053 31.4886 10.5509 31.4927 10.4924C29.4742 9.55186 27.2277 9.02515 24.8568 9.02515C16.107 9.02515 9.01514 16.1776 9.01514 25.0021C9.01514 33.8266 16.107 40.979 24.8568 40.979L24.8693 40.9748Z" fill="#7A85CF"/>
</g>
</g>
<defs>
<clipPath id="clip0_539_809">
<rect width="183" height="50" fill="white"/>
</clipPath>
</defs>
</svg>
