<svg width="202" height="76" viewBox="0 0 202 76" fill="none" xmlns="http://www.w3.org/2000/svg">
<path d="M163.592 53.1636C166.325 53.1636 168.26 52.6608 169.702 51.5777V46.6655C168.222 47.7098 166.438 48.3673 163.934 48.3673C159.721 48.3673 157.975 45.0409 157.975 39.7805C157.975 34.2494 160.1 31.4258 163.971 31.4258C166.249 31.4258 168.488 32.2381 169.664 33.0116V27.906C168.412 27.2097 166.249 26.7069 163.288 26.7069C155.736 26.7069 151.826 32.2381 151.826 39.9739C151.864 48.4447 155.698 53.1636 163.592 53.1636ZM126.663 50.9202V46.0079C124.842 47.2843 121.73 48.406 118.883 48.406C114.556 48.406 112.924 46.3173 112.659 42.0626H126.929V38.8909C126.929 30.0333 123.096 26.7069 117.213 26.7069C110.002 26.7069 106.586 32.3154 106.586 40.0126C106.586 48.8702 110.875 53.1636 118.39 53.1636C122.147 53.1636 124.918 52.1192 126.663 50.9202ZM72.5042 27.1711V37.2277H64.6099V27.1711H58.6892V52.6608H64.6099V42.0239H72.5042V52.6608H78.4249V27.1711H72.5042ZM105.106 47.8645H102.487V27.1711H85.2565V29.3371C85.2565 35.5645 84.8769 43.6098 82.7895 47.8645H80.8919V58.4627H86.3571V52.6608H99.6028V58.4627H105.068V47.8645H105.106ZM145.526 52.6608H152.244L142.756 38.9296L151.105 27.1711H145.147L136.797 38.9296V27.1711H130.876V52.6608H136.797V40.1286L145.526 52.6608ZM117.061 31.4258C119.984 31.4258 120.895 33.9013 120.895 37.1117V37.6145H112.659C112.811 33.5532 114.253 31.4258 117.061 31.4258ZM96.5665 47.8645H88.2168C89.8488 44.0353 90.3043 37.073 90.3043 32.6635V31.8899H96.5665V47.8645Z" fill="white"/>
<path d="M53.7553 52.6608H47.7207V22.2202H45.0261C40.0921 22.2202 37.5113 24.7344 37.5113 28.4863C37.5113 32.741 39.2951 34.7136 42.9766 37.2278L46.0128 39.3165L37.2836 52.6608H30.7936L38.6499 40.7476C34.1335 37.4599 31.5906 34.2495 31.5906 28.8344C31.5906 22.0655 36.2209 17.4626 44.9881 17.4626H53.7173V52.6608H53.7553Z" fill="white"/>
</svg>
