<svg width="36" height="29" viewBox="0 0 36 29" fill="none" xmlns="http://www.w3.org/2000/svg">
<path d="M7.33544 22.8504H28.1926V17.6361H7.33544V22.8504ZM3.85925 28.0647C2.90329 28.0647 2.08494 27.7243 1.40419 27.0435C0.723434 26.3628 0.383057 25.5444 0.383057 24.5885V3.73132C0.383057 2.77537 0.723434 1.95701 1.40419 1.27626C2.08494 0.595504 2.90329 0.255127 3.85925 0.255127H31.6688C32.6247 0.255127 33.4431 0.595504 34.1238 1.27626C34.8046 1.95701 35.145 2.77537 35.145 3.73132V24.5885C35.145 25.5444 34.8046 26.3628 34.1238 27.0435C33.4431 27.7243 32.6247 28.0647 31.6688 28.0647H3.85925ZM3.85925 24.5885H31.6688V3.73132H3.85925V24.5885Z" fill="white"/>
</svg>
