<svg width="107" height="89" viewBox="0 0 107 89" fill="none" xmlns="http://www.w3.org/2000/svg">
<g clip-path="url(#clip0_45_725)">
<path d="M54.7848 60.5334C51.8827 60.5334 48.9769 60.6311 46.0819 60.4956C44.483 60.4211 42.8902 60.012 41.3178 59.6469C40.1382 59.3721 38.9489 59.0351 37.851 58.532C36.3122 57.8274 34.7855 57.0458 33.3776 56.1056C31.8484 55.0847 30.3697 53.9454 29.0279 52.6827C25.9612 49.796 23.4986 46.4439 21.8253 42.5082C19.9898 38.1903 19.2991 33.6818 19.5718 29.0232C19.6895 27.0242 19.8985 25.0032 20.337 23.0555C21.143 19.4702 22.6758 16.1805 24.8116 13.1973C27.345 9.65719 30.4214 6.72036 34.1092 4.43806C36.4468 2.99101 38.9549 1.96159 41.5808 1.25699C43.0199 0.869895 44.5227 0.717252 46.005 0.513323C48.2994 0.197048 50.6081 0.266653 52.8917 0.548736C54.5866 0.75755 56.2708 1.15442 57.9237 1.60624C59.9466 2.15942 61.8553 3.03985 63.6704 4.10713C67.6369 6.44072 70.9114 9.54241 73.5986 13.3121C75.1927 15.548 76.4191 17.9792 77.302 20.5705C77.8017 22.0359 78.1405 23.5769 78.3723 25.1107C78.6438 26.9131 78.7423 28.7436 78.8696 30.5655C78.9273 31.3885 78.7663 31.5119 77.9303 31.5119C73.0256 31.5155 68.121 31.507 63.2175 31.5253C62.6842 31.5278 62.5052 31.3373 62.5268 30.8158C62.6073 28.9646 62.2914 27.1805 61.6187 25.4563C60.6132 22.8833 58.8727 20.9002 56.7092 19.3042C54.0425 17.3357 50.9937 16.6409 47.7564 16.9865C43.3515 17.4566 40.0228 19.778 37.7069 23.5501C35.9879 26.3501 35.4521 29.425 35.9927 32.711C36.7447 37.2781 39.2937 40.4933 43.1857 42.6645C44.9864 43.6683 46.9876 44.1116 49.0501 44.1189C53.9139 44.136 58.779 44.1238 63.6428 44.125C64.2122 44.125 64.4972 44.416 64.498 44.9981C64.498 49.9022 64.498 54.8063 64.498 59.7104C64.498 60.3331 64.1829 60.6449 63.5527 60.6458M54.529 46.2009C54.2491 46.2009 53.968 46.2131 53.6881 46.1985C50.9601 46.0629 48.1925 46.5831 45.5065 45.8297C44.1947 45.4609 42.8746 44.992 41.683 44.3363C39.1964 42.9674 37.2516 40.9598 35.7693 38.5114C34.7122 36.7652 34.0022 34.8566 33.7944 32.8295C33.5998 30.9379 33.5662 29.0317 33.9926 27.1292C34.3338 25.6101 34.8299 24.1765 35.5843 22.8345C36.8432 20.5937 38.5633 18.7718 40.6475 17.3149C42.5154 16.0095 44.5863 15.1169 46.8375 14.902C49.2592 14.67 51.6929 14.6333 54.0605 15.493C55.7494 16.106 57.3723 16.8619 58.6913 18.0696C59.9718 19.2419 61.1766 20.5461 62.1917 21.9589C63.5935 23.9103 64.4368 26.1499 64.5533 28.6044C64.5809 29.1917 64.8332 29.3151 65.3353 29.3126C68.8982 29.3016 72.461 29.3004 76.0239 29.3151C76.5116 29.3175 76.7399 29.1685 76.6654 28.6495C76.4564 27.1891 76.347 25.7054 76.0227 24.2718C75.6623 22.6831 75.2227 21.0907 74.6113 19.5875C73.7344 17.431 72.5523 15.4307 71.1205 13.5868C69.0856 10.9675 66.7275 8.68639 63.9911 6.86445C61.6715 5.31972 59.1561 4.15597 56.4353 3.46969C54.4725 2.97391 52.4953 2.66252 50.4784 2.57582C47.8297 2.46226 45.1942 2.63077 42.6235 3.27309C41.0871 3.65653 39.606 4.27809 38.1189 4.84592C35.6804 5.77642 33.5638 7.27476 31.5974 8.96115C29.2514 10.9724 27.1696 13.2595 25.614 15.968C24.7443 17.4835 23.9395 19.0575 23.3064 20.6865C22.7851 22.0285 22.486 23.4756 22.2241 24.9019C21.9502 26.3929 21.758 27.9095 21.6703 29.4225C21.537 31.7207 21.7076 34.0128 22.2337 36.2621C22.5557 37.6371 22.8151 39.0426 23.3016 40.359C24.2662 42.9661 25.5996 45.3767 27.3234 47.5674C29.4399 50.2551 31.8688 52.5716 34.7374 54.4082C36.3591 55.4462 38.0492 56.3461 39.8883 56.9115C41.1028 57.284 42.328 57.6405 43.5713 57.8945C44.8782 58.1607 46.208 58.4416 47.5318 58.4611C52.2346 58.5295 56.9387 58.4807 61.6427 58.4978C62.2145 58.5002 62.4055 58.3134 62.4019 57.726C62.3815 54.1249 62.3815 50.5225 62.4019 46.9214C62.4055 46.3597 62.2241 46.1887 61.6787 46.1948C59.2967 46.2192 56.9146 46.2058 54.5326 46.2046L54.529 46.2009Z" fill="white"/>
<path d="M106.846 87.7587C106.196 87.7587 105.724 87.7587 105.252 87.7587C104.492 87.7587 103.732 87.744 102.971 87.7624C101.9 87.7868 101.16 87.2922 100.648 86.3519C99.6846 84.5837 98.7007 82.8277 97.7169 81.0705C97.3145 80.3525 96.2706 79.9544 95.5283 80.2878C95.3529 80.3671 95.2111 80.9716 95.2111 80.9716L95.1955 87.7624L94.3306 87.7587H91.39L90.5876 87.7624C90.5876 87.7624 90.5876 76.0516 90.5876 70.6005C90.5876 69.7262 90.584 67.4292 90.584 67.4292L91.1089 67.4329C91.1089 67.4329 95.5919 67.4072 97.8286 67.5049C99.4623 67.577 101.083 67.848 102.531 68.7395C103.796 69.5186 104.514 70.6383 104.881 72.0988C105.179 73.2821 105.082 74.4361 104.742 75.5143C104.274 76.9968 103.271 78.141 101.883 78.8822C101.31 79.1875 101.378 79.2339 101.794 79.7163C102.441 80.4685 103.007 81.3025 103.545 82.1427C104.379 83.4468 105.167 84.7803 105.96 86.1114C106.245 86.5876 106.488 87.0895 106.846 87.7587ZM95.1991 74.0001H95.1967C95.1967 74.7316 95.1871 76.1933 95.1871 76.1933V76.9467C95.1871 76.9467 96.9385 76.9467 97.4575 76.9333C99.5332 76.8845 100.793 75.2652 100.381 73.2003C100.188 72.2283 99.6017 71.2623 98.6983 71.0621C97.7373 70.8484 95.1871 70.8984 95.1871 70.8984L95.1979 71.6849C95.1979 71.6849 95.1991 73.2284 95.1991 74.0001Z" fill="white"/>
<path d="M36.6858 77.6501C36.6858 74.4959 36.6738 67.4268 36.6738 67.4268L37.4162 67.4243L49.5187 67.4378V68.262V70.2158V71.1427C49.5187 71.1427 44.4086 71.1427 42.3281 71.1451C41.4499 71.1451 41.3587 71.2379 41.355 72.1172C41.3526 73.0733 41.3743 74.0307 41.3478 74.9856C41.331 75.5656 41.5593 75.7891 42.125 75.783C43.7455 75.7647 47.7072 75.7683 47.7072 75.7683L47.6976 76.4656V78.6624L47.6856 79.2889L42.2031 79.2828C42.2031 79.2828 41.3635 79.3817 41.3587 80.1205C41.3526 81.178 41.3683 82.2367 41.3526 83.2942C41.3442 83.8401 41.5761 84.0599 42.1106 84.0574C44.2716 84.0452 49.5211 84.0538 49.5211 84.0538V85.0014V86.9552V87.7575C49.5211 87.7575 45.2278 87.7587 43.4668 87.7587C41.4656 87.7587 37.463 87.7721 37.463 87.7721L36.675 87.7648C36.675 87.7648 36.6882 80.7628 36.6882 77.6501H36.6858Z" fill="white"/>
<path d="M62.3707 81.7642C62.629 80.9643 62.8777 80.162 63.1492 79.3659C63.5239 78.2693 63.9155 77.1776 64.2987 76.0847C64.778 74.7182 65.2525 73.3505 65.7378 71.9878C66.1534 70.8179 66.5811 69.6517 67.0063 68.4855C67.2742 67.7529 67.8892 67.4915 68.5667 67.4561C69.625 67.4012 70.6869 67.4427 71.7476 67.4366C72.2113 67.4341 72.3014 67.6356 72.1344 68.0533C71.5038 69.6322 70.8875 71.2184 70.2605 72.7986C69.9289 73.6326 69.5746 74.4581 69.2466 75.2946C68.7145 76.6513 68.2052 78.0177 67.6694 79.3744C67.2346 80.4734 66.7709 81.559 66.3276 82.6556C65.709 84.1869 65.1144 85.7268 64.4693 87.2459C64.3756 87.4669 64.0645 87.7258 63.8447 87.7355C62.7059 87.7844 61.5635 87.7746 60.4235 87.7416C60.259 87.7368 60.0271 87.5316 59.9527 87.3619C59.5382 86.4106 59.1562 85.4435 58.7754 84.4775C58.4091 83.5495 58.0643 82.6129 57.6943 81.686C57.1838 80.4063 56.6481 79.1363 56.1447 77.8529C55.5681 76.3814 55.03 74.8953 54.4522 73.425C53.9549 72.1599 53.4239 70.907 52.911 69.6481C52.684 69.0912 52.4581 68.5344 52.2491 67.9702C52.1362 67.6649 52.2071 67.4427 52.5843 67.4427C53.705 67.4439 54.827 67.4122 55.9453 67.461C56.7982 67.4989 57.4253 68.1619 57.6871 68.9813C58.0571 70.1451 58.516 71.2795 58.9184 72.4322C59.2752 73.4543 59.5971 74.4886 59.9503 75.512C60.4296 76.8979 60.9281 78.2778 61.4098 79.6626C61.5887 80.1779 61.7353 80.7042 61.9167 81.2195C61.9948 81.4418 62.1209 81.6457 62.2242 81.8594C62.2722 81.8277 62.3215 81.7971 62.3695 81.7654L62.3707 81.7642Z" fill="white"/>
<path d="M19.5875 69.935L16.7502 74.4361C16.7502 74.4361 14.391 72.7253 13.5501 72.3211C12.7933 71.9352 11.4816 71.4052 9.7722 72.0658C7.72649 72.6703 6.51565 74.375 6.31864 76.4595C6.11804 78.5843 6.96971 80.7347 8.67907 82.266C10.2539 83.6984 12.8209 83.3516 13.6474 82.8387C14.6684 82.2611 16.1532 81.4454 16.1532 81.4454L18.9569 85.0783C18.9569 85.0783 17.1586 86.7464 15.6162 87.3997C13.2846 88.3863 10.8521 88.5475 8.44003 87.9797C5.06575 87.186 2.94677 85.4556 1.7107 82.1146C0.856619 79.8054 0.657213 77.4181 1.17975 75.043C1.97978 71.4052 3.82728 69.0325 7.30966 67.6404C9.5764 66.7344 11.9116 66.5842 14.2588 67.0616C16.3273 67.4829 19.5851 69.935 19.5851 69.935H19.5875ZM17.7845 70.4002C17.7845 70.4002 15.7916 68.9971 15.0264 68.7431C12.0449 67.754 9.13915 67.9225 6.38832 69.5784C4.29216 70.841 3.01644 72.7631 2.49751 75.1101C1.99179 77.3986 2.13834 79.7126 3.13897 81.8899C4.37624 84.5825 5.99311 85.9221 8.83884 86.7866C13.3086 88.1458 17.3148 85.0917 17.3148 85.0917C17.3148 85.0917 16.2132 83.431 15.8673 83.0793C15.4697 83.3333 12.5086 85.4764 9.39141 84.2955C7.7301 83.6666 6.77872 82.4919 6.4724 82.106C4.90479 80.1229 4.89518 77.9261 4.89518 77.2508C4.89518 73.519 7.04059 71.7679 9.12233 70.8313C12.2792 69.4099 16.4271 72.597 16.4271 72.597L17.7857 70.4002H17.7845Z" fill="white"/>
<path d="M21.8721 77.5781C21.8721 74.4446 21.8601 67.4255 21.8601 67.4255H22.6097L25.6116 67.4378L26.5569 67.4255V82.8973L26.5798 83.8413L33.8581 83.8327V84.4812L33.8521 87.2275L33.8581 87.7636L21.8601 87.766L21.8697 87.1005C21.8697 87.1005 21.8733 80.753 21.8721 77.5793V77.5781Z" fill="white"/>
<path d="M88.3523 52.3592C88.3523 54.7391 88.3367 57.1191 88.3643 59.4979C88.3703 60.067 88.1878 60.2221 87.6436 60.2196C82.942 60.2013 78.2403 60.2013 73.5387 60.2196C73.0197 60.2221 72.848 60.078 72.8504 59.5333C72.8696 54.7538 72.8696 49.9743 72.8504 45.1947C72.848 44.6367 73.0125 44.4657 73.5651 44.4682C78.2667 44.4877 82.9684 44.4865 87.67 44.4694C88.189 44.4669 88.3655 44.6147 88.3607 45.1581C88.3355 47.5576 88.3499 49.9584 88.3511 52.3579L88.3523 52.3592ZM80.5659 58.7933C82.4254 58.7933 86.9084 58.8043 86.9084 58.8043V58.035L86.906 46.6894L86.9084 45.9299H74.245L74.2462 46.6735V58.0802L74.245 58.8043C74.245 58.8043 78.7064 58.7958 80.5659 58.7945V58.7933Z" fill="white"/>
<path d="M75.0018 77.6623C75.0018 74.5081 74.9897 67.439 74.9897 67.439L75.7321 67.4365L87.8346 67.45V68.2742V70.228V71.1549C87.8346 71.1549 82.7245 71.1549 80.644 71.1573C79.7659 71.1573 79.6746 71.2501 79.671 72.1294C79.6686 73.0855 79.6902 74.0429 79.6638 74.9978C79.6469 75.5778 79.8752 75.8013 80.441 75.7952C82.0614 75.7769 86.0231 75.7806 86.0231 75.7806L86.0135 76.4778V78.6746L86.0015 79.3011L80.519 79.295C80.519 79.295 79.6794 79.3939 79.6746 80.1327C79.6686 81.1902 79.6842 82.2489 79.6686 83.3064C79.6602 83.8523 79.892 84.0721 80.4265 84.0696C82.5876 84.0574 87.837 84.066 87.837 84.066V85.0136V86.9674V87.7697C87.837 87.7697 83.5438 87.7709 81.7827 87.7709C79.7815 87.7709 75.779 87.7843 75.779 87.7843L74.9909 87.777C74.9909 87.777 75.0042 80.775 75.0042 77.6623H75.0018Z" fill="white"/>
</g>
<defs>
<clipPath id="clip0_45_725">
<rect width="105.951" height="88" fill="white" transform="translate(0.89502 0.303345)"/>
</clipPath>
</defs>
</svg>
