<svg width="203" height="77" viewBox="0 0 203 77" fill="none" xmlns="http://www.w3.org/2000/svg">
<path fill-rule="evenodd" clip-rule="evenodd" d="M37.9996 64.4289C37.8931 64.7685 37.5331 64.9521 37.204 64.8311C26.4932 60.8948 18.8528 50.5705 18.8528 38.1745C18.8528 22.2907 31.3975 9.41443 46.8721 9.41443C62.3467 9.41443 74.8914 22.2907 74.8914 38.1745C74.8914 52.9299 64.0657 64.7497 50.1222 66.3548C49.7175 66.4016 49.3843 66.0411 49.4474 65.6313C49.4988 65.2968 49.5574 64.9246 49.624 64.5102C50.6078 58.3916 50.8455 52.1706 50.3313 45.9914C50.3313 45.9914 50.2616 45.2761 50.0282 43.4129C49.9681 42.9332 50.0125 42.7068 50.3818 42.5303C51.4712 42.1537 52.5734 41.8272 53.6519 41.4137C57.0117 40.2536 59.4159 37.2466 58.2455 33.5035C58.0111 32.7539 56.6097 32.4652 55.7701 32.5036C54.4339 32.5613 54.2647 31.1046 55.4165 30.9576C55.7732 30.9125 56.7108 31.3117 56.7108 31.0999C56.7108 28.3087 46.9913 29.8469 45.4179 30.1275C44.5896 30.2481 43.7927 30.5351 43.0725 30.9724C42.3524 31.4096 41.7232 31.9884 41.2208 32.6757C40.7185 33.363 40.3529 34.1453 40.1449 34.9778C39.9369 35.8104 39.8907 36.677 40.0088 37.5279C40.0374 37.7305 40.0882 37.9986 40.1281 38.2092C40.8186 41.853 40.8021 45.7317 40.5372 49.4152C40.2286 53.4531 39.2773 58.8563 38.7135 61.8395C38.5906 62.4902 38.2592 63.6017 37.9996 64.4289ZM39.3758 23.7037C39.4754 25.5881 39.7239 27.4612 40.119 29.3042C40.3094 30.3668 40.0765 31.6663 38.5933 32.0613C36.9439 32.501 36.3013 30.7547 36.0522 29.829C35.4783 28.0069 35.2934 26.0789 35.5102 24.1766C35.8143 21.9843 36.5498 20.241 37.7117 19.9814C38.9181 19.711 39.3405 21.4958 39.3758 23.7037ZM43.2259 21.7247C44.0958 20.0214 44.8727 18.8954 45.8639 19.0771V19.0797C46.8577 19.2619 47.1471 20.9335 46.7152 22.4287C46.3746 23.9035 46.1215 25.3983 45.9574 26.9047C45.8781 27.9805 44.8555 28.7813 43.825 28.5743C42.8358 28.3925 42.2448 27.7286 42.2296 26.4027C42.1919 24.7838 42.5336 23.1794 43.2259 21.7247Z" fill="white"/>
<path d="M46.0261 33.5693C45.7857 33.4047 45.5031 33.3172 45.2143 33.3178V33.3203C44.8279 33.3208 44.4574 33.4787 44.1841 33.7594C43.9109 34.0402 43.7572 34.421 43.7568 34.818C43.7568 35.1149 43.8425 35.4051 44.0031 35.6518C44.1636 35.8986 44.3918 36.091 44.6587 36.2044C44.9256 36.3179 45.2193 36.3475 45.5026 36.2893C45.7858 36.2312 46.046 36.0881 46.2501 35.878C46.4541 35.6679 46.593 35.4003 46.649 35.1091C46.7051 34.8179 46.6758 34.5162 46.5649 34.2421C46.454 33.968 46.2665 33.7339 46.0261 33.5693Z" fill="white"/>
<path d="M109.334 27.235V44.1404C109.334 48.3096 111.32 50.8517 114.249 50.8517C115.886 50.8517 117.177 49.6315 116.681 48.157C116.11 46.4283 113.603 47.5723 113.603 42.9964V27.235C113.603 25.8114 112.834 24.9216 111.469 24.9216C110.104 24.9216 109.334 25.8114 109.334 27.235ZM89.9019 41.8525C89.9019 46.8859 93.5003 50.8517 99.4319 50.8517C103.205 50.8517 106.431 49.5298 106.431 47.4961C106.431 46.3775 105.736 45.7674 104.818 45.7674C103.601 45.7674 102.013 47.0385 99.3329 47.0385C96.9252 47.0385 95.0144 45.9708 94.3194 43.8099H100.474C103.999 43.8099 106.853 42.1067 106.853 38.751C106.853 35.6496 104.396 32.2431 99.2088 32.2431C93.7485 32.2431 89.9019 36.0563 89.9019 41.8525ZM94.1208 40.6322C94.5926 37.4799 96.8757 36.0563 99.4569 36.0563C101.393 36.0563 102.658 37.0223 102.658 38.3188C102.658 39.8187 101.616 40.6322 99.2333 40.6322H94.1208ZM118.07 44.8522C118.07 48.2333 120.378 50.8517 124.151 50.8517C126.782 50.8517 129.238 49.5806 130.678 47.191C131.05 48.8688 132.043 50.8517 134.351 50.8517C135.666 50.8517 136.585 50.0891 136.585 49.0468C136.585 47.1656 134.177 47.5977 134.177 45.5894V40.0221C134.177 35.2428 131.447 32.2431 126.012 32.2431C121.868 32.2431 118.815 33.4379 118.815 35.3445C118.815 36.4631 119.56 37.0986 120.502 37.0986C121.917 37.0986 123.506 36.0563 126.111 36.0563C128.196 36.0563 129.636 36.9461 129.859 39.3611H124.201C120.329 39.3611 118.07 41.9541 118.07 44.8522ZM122.29 45.0302C122.265 43.8099 123.208 42.5388 125.094 42.5388H129.859C129.512 45.5894 126.906 47.3944 124.796 47.3944C123.307 47.3944 122.314 46.4792 122.29 45.0302ZM138.694 48.6146C138.694 49.8857 139.464 50.8517 140.829 50.8517C142.194 50.8517 142.963 49.8857 142.963 48.6146V40.0221C142.963 37.0223 144.477 36.0055 145.991 36.0055C147.405 36.0055 148.299 37.0223 148.299 39.0815V48.6146C148.299 49.8857 149.044 50.8517 150.409 50.8517C151.774 50.8517 152.543 49.8857 152.543 48.6146L152.593 40.0221C152.618 37.0223 154.082 36.0055 155.596 36.0055C157.01 36.0055 157.904 37.0223 157.904 39.0306L157.928 48.6146C157.928 49.8857 158.673 50.8517 160.038 50.8517C161.403 50.8517 162.172 49.8857 162.172 48.6146V38.268C162.172 34.4293 160.36 32.2685 157.506 32.2685C155.447 32.2685 153.337 33.4887 152.195 35.5733C151.5 33.4379 149.863 32.2685 147.778 32.2685C145.916 32.2685 144.13 33.387 142.963 35.1666V34.3022C142.963 33.2091 142.194 32.2431 140.829 32.2431C139.464 32.2431 138.694 33.2091 138.694 34.4802V48.6146ZM164.952 44.8522C164.952 48.2333 167.26 50.8517 171.032 50.8517C173.663 50.8517 176.12 49.5806 177.56 47.191C177.932 48.8688 178.925 50.8517 181.233 50.8517C182.548 50.8517 183.466 50.0891 183.466 49.0468C183.466 47.1656 181.059 47.5977 181.059 45.5894V40.0221C181.059 35.2428 178.329 32.2431 172.894 32.2431C168.749 32.2431 165.697 33.4379 165.697 35.3445C165.697 36.4631 166.441 37.0986 167.384 37.0986C168.799 37.0986 170.387 36.0563 172.993 36.0563C175.078 36.0563 176.517 36.9461 176.741 39.3611H171.082C167.211 39.3611 164.952 41.9541 164.952 44.8522ZM169.171 45.0302C169.146 43.8099 170.089 42.5388 171.975 42.5388H176.741C176.393 45.5894 173.787 47.3944 171.678 47.3944C170.189 47.3944 169.196 46.4792 169.171 45.0302Z" fill="white"/>
</svg>
