<svg width="128" height="44" viewBox="0 0 128 44" fill="none" xmlns="http://www.w3.org/2000/svg">
<path d="M0 38.1226H2.39765C3.83448 38.1226 4.68071 38.844 4.68071 40.1374C4.68071 41.4308 3.92263 42.1171 2.52988 42.1171H1.05779V43.912H0V38.1226ZM2.46817 41.3692C3.23507 41.3692 3.67581 40.9821 3.67581 40.1902C3.67581 39.3983 3.20862 39.0024 2.36239 39.0024H1.05779V41.3692H2.46817Z" fill="white"/>
<path d="M5.57983 38.1226H9.54654V39.0024H6.63762V40.6565H8.94712V41.3428H6.63762V43.0322H9.62587V43.912H5.57983V38.1226Z" fill="white"/>
<path d="M10.4456 38.1226H12.9931C14.4828 38.1226 15.2497 38.7649 15.2497 39.8031C15.2497 40.551 14.9235 41.0613 14.2448 41.1845V41.2021C14.95 41.3076 15.2144 41.8004 15.2144 42.4954V43.912H14.1478V42.513C14.1478 41.9323 13.9098 41.6156 13.1341 41.6156H11.5033V43.912H10.4456V38.1226ZM13.0107 40.9205C13.8657 40.9205 14.236 40.551 14.236 39.9351C14.236 39.3544 13.8305 39.0024 12.9842 39.0024H11.5033V40.9205H13.0107Z" fill="white"/>
<path d="M16.0784 41.9324H17.0304C17.0304 42.6715 17.383 43.1818 18.4937 43.1818C19.6749 43.1818 19.9746 42.7419 19.9746 42.2668C19.9746 41.95 19.8424 41.7653 19.5691 41.6685C19.2782 41.5541 18.6524 41.4749 18.1499 41.4045C17.5681 41.3253 16.9511 41.1933 16.6338 40.991C16.2812 40.771 16.0608 40.3751 16.0608 39.8296C16.0608 38.7737 16.9687 38.0347 18.4849 38.0347C20.2038 38.0347 20.8296 38.7913 20.8296 40.1111H19.8776C19.8776 39.2577 19.4104 38.8529 18.5025 38.8529C17.5946 38.8529 17.1098 39.2137 17.1098 39.7416C17.1098 40.0671 17.2244 40.2607 17.4535 40.3663C17.7092 40.4895 18.3615 40.595 18.8639 40.6654C19.4721 40.7622 20.0363 40.859 20.3977 41.0526C20.7944 41.2549 21.0236 41.6597 21.0236 42.1964C21.0236 43.129 20.477 44.0001 18.5025 44.0001C16.528 44.0001 16.0784 42.9883 16.0784 41.9324Z" fill="white"/>
<path d="M21.7551 40.991C21.7551 39.1521 23.0774 38.0347 24.761 38.0347C26.4446 38.0347 27.7757 39.1521 27.7757 40.991C27.7757 42.8299 26.4535 44.0001 24.761 44.0001C23.0685 44.0001 21.7551 42.8651 21.7551 40.991ZM26.7003 40.991C26.7003 39.6976 25.8364 38.9145 24.761 38.9145C23.6856 38.9145 22.8305 39.6976 22.8305 40.991C22.8305 42.2844 23.6944 43.1202 24.761 43.1202C25.8276 43.1202 26.7003 42.3196 26.7003 40.991Z" fill="white"/>
<path d="M28.7014 38.1226H30.2881L33.0472 42.5218H33.0648L33.0472 38.1226H34.0432V43.912H32.7915L29.6975 39.0024H29.6887L29.6975 43.912H28.7014V38.1226Z" fill="white"/>
<path d="M39.0853 42.6098H36.3792L35.8855 43.912H34.7925L37.1549 38.1226H38.4418L40.7954 43.912H39.5702L39.0853 42.6098ZM38.8209 41.9059L37.7455 39.02H37.7278L36.6436 41.9059H38.8209Z" fill="white"/>
<path d="M41.5535 38.1226H42.6113V43.0322H45.4849V43.912H41.5535V38.1226Z" fill="white"/>
<path d="M47.6841 38.1226H49.9054C51.7213 38.1226 52.8408 39.1696 52.8408 41.0085C52.8408 42.8474 51.783 43.912 50.0905 43.912H47.6841V38.1226ZM50.0729 43.0322C51.1131 43.0322 51.7918 42.3371 51.7918 41.0085C51.7918 39.6799 51.0602 39.0024 49.9495 39.0024H48.7419V43.0322H50.0729Z" fill="white"/>
<path d="M53.8103 38.1226H54.8593V43.912H53.8103V38.1226Z" fill="white"/>
<path d="M55.8291 41.079C55.8291 39.2225 57.1161 38.0347 58.8262 38.0347C60.2894 38.0347 61.3913 38.8177 61.3913 40.1375C61.3913 40.2343 61.3825 40.3751 61.3737 40.4807H60.4305C60.4393 40.3751 60.4393 40.2783 60.4393 40.1991C60.4393 39.3808 59.7341 38.9145 58.8438 38.9145C57.7243 38.9145 56.8957 39.7504 56.8957 41.0878C56.8957 42.4252 57.7507 43.1818 58.7997 43.1818C59.7253 43.1818 60.4128 42.6451 60.4128 41.862V41.7301H58.6146V41.0614H61.4354V43.9121H60.5539C60.5715 43.6833 60.598 43.2698 60.6068 42.8739H60.598C60.4217 43.5426 59.7694 44.0001 58.7116 44.0001C57.0544 44.0001 55.8291 42.8915 55.8291 41.079Z" fill="white"/>
<path d="M62.5371 38.1226H63.5861V43.912H62.5371V38.1226Z" fill="white"/>
<path d="M66.1688 38.9936H64.3706V38.1226H69.0249V38.9936H67.2266V43.912H66.1688V38.9936Z" fill="white"/>
<path d="M72.6742 42.6098H69.968L69.4744 43.912H68.3813L70.7437 38.1226H72.0307L74.3843 43.912H73.159L72.6742 42.6098ZM72.4098 41.9059L71.3343 39.02H71.3167L70.2325 41.9059H72.4098Z" fill="white"/>
<path d="M75.1426 38.1226H76.2004V43.0322H79.074V43.912H75.1426V38.1226Z" fill="white"/>
<path d="M85.4945 42.6098H82.7883L82.2947 43.912H81.2017L83.5641 38.1226H84.851L87.2046 43.912H85.9793L85.4945 42.6098ZM85.2301 41.9059L84.1547 39.02H84.137L83.0528 41.9059H85.2301Z" fill="white"/>
<path d="M87.5572 41.9324H88.5092C88.5092 42.6715 88.8618 43.1818 89.9725 43.1818C91.1537 43.1818 91.4534 42.7419 91.4534 42.2668C91.4534 41.95 91.3211 41.7652 91.0479 41.6685C90.757 41.5541 90.1311 41.4749 89.6287 41.4045C89.0469 41.3253 88.4299 41.1934 88.1125 40.991C87.7599 40.771 87.5396 40.3751 87.5396 39.8296C87.5396 38.7737 88.4475 38.0347 89.9636 38.0347C91.6825 38.0347 92.3084 38.7913 92.3084 40.1111H91.3564C91.3564 39.2577 90.8892 38.8529 89.9813 38.8529C89.0733 38.8529 88.5885 39.2137 88.5885 39.7416C88.5885 40.0671 88.7031 40.2607 88.9323 40.3663C89.1879 40.4895 89.8402 40.595 90.3427 40.6654C90.9509 40.7622 91.5151 40.859 91.8765 41.0526C92.2731 41.2549 92.5023 41.6597 92.5023 42.1964C92.5023 43.129 91.9558 44.0001 89.9813 44.0001C88.0067 44.0001 87.5572 42.9883 87.5572 41.9324Z" fill="white"/>
<path d="M93.2606 41.9324H94.2126C94.2126 42.6715 94.5652 43.1818 95.6758 43.1818C96.857 43.1818 97.1567 42.7419 97.1567 42.2668C97.1567 41.95 97.0245 41.7652 96.7513 41.6685C96.4604 41.5541 95.8345 41.4749 95.3321 41.4045C94.7503 41.3253 94.1332 41.1934 93.8159 40.991C93.4633 40.771 93.2429 40.3751 93.2429 39.8296C93.2429 38.7737 94.1509 38.0347 95.667 38.0347C97.3859 38.0347 98.0118 38.7913 98.0118 40.1111H97.0598C97.0598 39.2577 96.5926 38.8529 95.6846 38.8529C94.7767 38.8529 94.2919 39.2137 94.2919 39.7416C94.2919 40.0671 94.4065 40.2607 94.6357 40.3663C94.8913 40.4895 95.5436 40.595 96.0461 40.6654C96.6543 40.7622 97.2184 40.859 97.5798 41.0526C97.9765 41.2549 98.2057 41.6597 98.2057 42.1964C98.2057 43.129 97.6592 44.0001 95.6846 44.0001C93.7101 44.0001 93.2606 42.9883 93.2606 41.9324Z" fill="white"/>
<path d="M99.1841 38.1226H100.233V43.912H99.1841V38.1226Z" fill="white"/>
<path d="M101.229 41.9324H102.181C102.181 42.6715 102.534 43.1818 103.645 43.1818C104.826 43.1818 105.125 42.7419 105.125 42.2668C105.125 41.95 104.993 41.7652 104.72 41.6685C104.429 41.5541 103.803 41.4749 103.301 41.4045C102.719 41.3253 102.102 41.1934 101.785 40.991C101.432 40.771 101.212 40.3751 101.212 39.8296C101.212 38.7737 102.12 38.0347 103.636 38.0347C105.355 38.0347 105.981 38.7913 105.981 40.1111H105.029C105.029 39.2577 104.561 38.8529 103.653 38.8529C102.745 38.8529 102.261 39.2137 102.261 39.7416C102.261 40.0671 102.375 40.2607 102.604 40.3663C102.86 40.4895 103.512 40.595 104.015 40.6654C104.623 40.7622 105.187 40.859 105.549 41.0526C105.945 41.2549 106.174 41.6597 106.174 42.1964C106.174 43.129 105.628 44.0001 103.653 44.0001C101.679 44.0001 101.229 42.9883 101.229 41.9324Z" fill="white"/>
<path d="M108.29 38.9936H106.492V38.1226H111.146V38.9936H109.348V43.912H108.29V38.9936Z" fill="white"/>
<path d="M114.795 42.6098H112.089L111.595 43.912H110.502L112.865 38.1226H114.152L116.505 43.912H115.28L114.795 42.6098ZM114.531 41.9059L113.455 39.02H113.438L112.354 41.9059H114.531Z" fill="white"/>
<path d="M117.263 38.1226H118.85L121.609 42.5218H121.627L121.609 38.1226H122.605V43.912H121.354L118.26 39.0024H118.251L118.26 43.912H117.263V38.1226Z" fill="white"/>
<path d="M125.144 38.9936H123.346V38.1226H128V38.9936H126.202V43.912H125.144V38.9936Z" fill="white"/>
<path d="M9.63185 22.155L9.63185 18.2195L25.4696 18.2195C30.6653 18.2195 33.6919 15.4135 33.6919 11.3099C33.6919 7.20637 30.6653 4.48241 25.4696 4.48241L4.89423 4.48241L4.89423 30.8662L0 30.8662L-1.33341e-06 0.417948L25.4696 0.417947C33.6919 0.417946 38.4804 4.60747 38.4804 11.1809C38.4804 17.7544 33.688 22.155 25.4696 22.155L9.63185 22.155Z" fill="white"/>
<path d="M43.5273 30.8662L43.5273 0.417948L64.4081 0.417947C74.545 0.417946 81.9099 6.49119 81.9099 15.3275C81.9099 24.1638 74.545 30.8662 64.4081 30.8662L43.5273 30.8662ZM64.4081 26.8057C71.6711 26.8057 77.0156 21.9908 77.0156 15.5385C77.0156 9.08619 71.6711 4.48241 64.4081 4.48241L48.4216 4.48241L48.4216 26.8057L64.4081 26.8057Z" fill="white"/>
<path d="M122.058 30.8662L116.209 22.6982L96.9409 22.6982L99.3607 19.1809L113.683 19.1809L104 5.69393L85.9974 30.8662L80.3984 30.8662L101.784 1.34027C102.391 0.503926 103.096 -0.000222241 104.204 -0.000222289C105.312 -0.000222337 105.97 0.503926 106.573 1.34027L127.959 30.8662L122.058 30.8662Z" fill="white"/>
</svg>
