<svg width="125" height="89" viewBox="0 0 125 89" fill="none" xmlns="http://www.w3.org/2000/svg">
<g clip-path="url(#clip0_45_800)">
<path d="M62.7021 0.0125375C82.4267 0.0125375 102.148 0.0125375 121.873 0.0125375C122.762 0.0125375 123.65 0.0282574 124.536 0.00310555C124.889 -0.00632641 124.97 0.116289 124.967 0.449552C124.951 1.69143 124.967 2.93016 124.967 4.17203C124.967 31.4524 124.967 58.7328 124.967 86.0132C124.967 86.862 124.945 87.7109 124.967 88.5598C124.976 88.9214 124.846 88.9968 124.521 88.9937C123.22 88.9748 121.919 88.9811 120.618 88.9811C81.417 88.9811 42.2125 88.9811 3.01105 88.9811C2.28946 88.9811 1.56786 88.9654 0.849365 88.9968C0.462244 89.0157 0.369335 88.8679 0.375529 88.5032C0.397208 87.4971 0.38482 86.4911 0.38482 85.4881C0.38482 57.5412 0.38482 29.5975 0.38482 1.65055C0.38482 1.21983 0.394111 0.789102 0.378626 0.358376C0.375529 0.0817052 0.48702 -0.00318243 0.750262 -3.8438e-05C1.70413 0.0156815 2.6549 0.0125375 3.60877 0.0125375C23.3055 0.0125375 43.0053 0.0125375 62.7021 0.0125375ZM62.7021 0.92115C42.7978 0.92115 22.8936 0.92115 2.98627 0.92115C2.52173 0.92115 2.06028 0.927438 1.59574 0.927438C1.38824 0.927438 1.29223 1.00289 1.30462 1.2324C1.3201 1.57196 1.30772 1.91151 1.30772 2.25106C1.30772 30.5375 1.30772 58.824 1.30772 87.1104C1.30772 87.7539 1.62361 88.0746 2.25539 88.0725C26.4985 88.0725 50.7416 88.0725 74.9846 88.0725C91.0393 88.0725 107.094 88.0693 123.149 88.063C124.069 88.063 124.069 88.0536 124.069 87.123C124.069 82.1869 124.069 77.2509 124.069 72.3148C124.069 51.2407 124.069 30.1665 124.069 9.09237C124.069 6.49544 124.059 3.89536 124.065 1.29843C124.065 1.00604 123.985 0.911718 123.694 0.924294C123.155 0.946302 122.613 0.924294 122.071 0.924294C102.281 0.924294 82.4948 0.924294 62.7052 0.924294L62.7021 0.92115Z" fill="white"/>
<path d="M62.7021 1.83294C81.8259 1.83294 100.95 1.83294 120.074 1.83294C120.934 1.83294 121.795 1.84866 122.656 1.82351C122.997 1.81408 123.078 1.93355 123.074 2.25424C123.059 3.44267 123.074 4.63424 123.074 5.82266C123.074 31.9869 123.074 58.1543 123.074 84.3186C123.074 85.1329 123.053 85.9472 123.074 86.7615C123.084 87.1073 122.957 87.1828 122.644 87.1765C121.384 87.1608 120.123 87.1639 118.863 87.1639C80.8535 87.1639 42.8413 87.1639 4.83215 87.1639C4.13223 87.1639 3.43232 87.1482 2.7355 87.1796C2.36077 87.1954 2.27096 87.057 2.27715 86.708C2.29883 85.7428 2.28644 84.7808 2.28644 83.8156C2.28644 57.0131 2.28644 30.2074 2.28644 3.40494C2.28644 2.99308 2.29573 2.57807 2.28025 2.16621C2.27096 1.90211 2.37625 1.82037 2.6364 1.82351C3.5593 1.83923 4.48219 1.83609 5.40819 1.83609C24.5072 1.83609 43.6062 1.83609 62.7052 1.83609L62.7021 1.83294ZM62.7021 2.70383C43.4018 2.70383 24.1015 2.70383 4.80428 2.70383C4.35522 2.70383 3.90616 2.71012 3.4571 2.71012C3.25579 2.71012 3.16288 2.78243 3.17217 3.00251C3.18766 3.32634 3.17527 3.65331 3.17527 3.98029C3.17527 31.1098 3.17527 58.2392 3.17527 85.3718C3.17527 85.9881 3.48084 86.2951 4.09197 86.293C27.598 86.293 51.104 86.293 74.61 86.293C90.1754 86.293 105.744 86.2899 121.309 86.2836C122.201 86.2836 122.201 86.2773 122.201 85.3844C122.201 80.6496 122.201 75.9179 122.201 71.183C122.201 50.9703 122.201 30.7576 122.201 10.5449C122.201 8.05175 122.192 5.56171 122.198 3.06853C122.198 2.78872 122.121 2.69754 121.836 2.71012C121.312 2.73212 120.789 2.71012 120.262 2.71012C101.077 2.71012 81.8879 2.71012 62.7021 2.71012V2.70383Z" fill="white"/>
<path d="M91.1633 36.4607C91.4637 35.5773 91.7641 34.6938 92.0614 33.8104C94.0156 27.9908 95.9698 22.1682 97.9209 16.3455C98.2584 15.3363 98.5805 14.3176 98.9336 13.3116C98.9769 13.1921 99.1627 13.06 99.2928 13.0506C99.779 13.0097 100.271 13.0129 100.758 13.0097C103.629 13.0097 106.499 13.0097 109.37 13.0097C109.677 13.0097 109.984 13.0349 110.312 13.0506V46.7573H101.699V23.1428C101.674 23.1365 101.647 23.1302 101.622 23.1271C101.436 23.6993 101.25 24.2715 101.064 24.8437C98.7478 31.9585 96.4312 39.0702 94.1147 46.1851C93.9103 46.8107 93.9103 46.8076 93.2661 46.8045C91.761 46.7982 90.2528 46.7887 88.7476 46.8045C88.4101 46.8076 88.2521 46.707 88.1437 46.3706C86.7718 42.1231 85.3812 37.8818 84.0031 33.6374C82.9904 30.5186 81.9869 27.3998 80.9773 24.2809C80.8627 23.932 80.7327 23.5893 80.6119 23.2403C80.5778 23.2434 80.5468 23.2497 80.5128 23.2528C80.5066 23.4132 80.4911 23.5735 80.4911 23.7307C80.4818 31.2669 80.4694 38.7999 80.4694 46.336C80.4694 46.707 80.3765 46.8139 79.9925 46.8139C77.4313 46.7982 74.8701 46.8139 72.3058 46.8265C72.0085 46.8265 71.8691 46.7887 71.8691 46.4272C71.8784 35.7439 71.8784 25.0638 71.8784 14.3805C71.8784 14.0284 71.8784 13.6763 71.8784 13.3241C71.8784 13.1009 71.9559 13.0066 72.1974 13.0066C75.6103 13.0192 79.02 13.016 82.4329 13.0255C83.1297 13.0255 83.1328 13.0443 83.3496 13.6888C85.8643 21.1464 88.376 28.6039 90.8907 36.0646C90.9341 36.1966 90.9929 36.3224 91.0456 36.4545L91.1509 36.4607H91.1633Z" fill="white"/>
<path d="M23.5038 35.3698V46.7762H13.163C13.163 46.4555 13.163 46.1599 13.163 45.8613C13.1599 35.0774 13.1568 24.2935 13.1506 13.5096C13.1506 13.0097 13.1506 13.0097 13.6616 13.0097C18.6694 13.0097 23.6741 12.9972 28.6819 13.0097C31.1409 13.016 33.5225 13.4688 35.7399 14.5786C38.8276 16.1254 40.6579 18.6752 41.426 22.0487C41.9153 24.196 41.7666 26.3088 41.0017 28.3587C39.9239 31.248 37.8118 33.0935 35.0369 34.2254C32.8659 35.1088 30.5804 35.3415 28.2669 35.3635C26.6999 35.3792 25.1297 35.3635 23.5007 35.3635L23.5038 35.3698ZM23.5317 19.3229V29.0881C23.7082 29.0881 23.8569 29.0881 24.0086 29.0881C25.4642 29.0881 26.9167 29.0944 28.3722 29.0787C28.9483 29.0724 29.5305 29.0535 30.1035 28.9781C31.8192 28.7454 33.0951 27.6104 33.4048 25.8844C33.5597 25.0292 33.5535 24.1112 33.4482 23.2434C33.1787 21.0143 31.5373 19.4675 29.3354 19.3417C28.1307 19.2726 26.9167 19.326 25.7089 19.3229C24.9904 19.3229 24.2719 19.3229 23.5317 19.3229Z" fill="white"/>
<path d="M50.3421 29.9244C50.3421 24.674 50.3421 19.4266 50.3421 14.1762C50.3421 14.0724 50.3421 13.9687 50.339 13.8618C50.3266 13.2938 50.594 13.0098 51.1411 13.0098C54.0771 13.0098 57.0099 13.0098 59.9458 13.0098C60.1131 13.0098 60.2803 13.0223 60.4475 13.0129C60.7325 13.0003 60.8718 13.1009 60.8471 13.4216C60.8223 13.758 60.8471 14.1007 60.8471 14.4403C60.8471 25.0701 60.844 35.6968 60.8409 46.3266C60.8409 46.8359 60.8409 46.8202 60.3237 46.8171C57.1183 46.8108 53.9129 46.8108 50.7076 46.8233C50.4103 46.8233 50.3359 46.7448 50.3359 46.4524C50.3421 40.9441 50.3421 35.4327 50.3421 29.9213C50.3421 29.9213 50.3452 29.9213 50.3483 29.9213L50.3421 29.9244Z" fill="white"/>
<path d="M23.2468 69.1142C23.3706 68.9162 23.479 68.759 23.575 68.5923C26.1796 63.9895 28.778 59.3836 31.3949 54.7839C31.4785 54.6393 31.7046 54.5104 31.8749 54.4947C32.3209 54.4538 32.7761 54.4947 33.2252 54.4758C33.5566 54.4632 33.6278 54.6016 33.6247 54.916C33.6154 61.0405 33.6123 67.165 33.6123 73.2894C33.6123 74.0063 33.6154 74.7262 33.634 75.4431C33.6402 75.7103 33.5659 75.8141 33.284 75.8015C32.7204 75.7795 32.1567 75.7952 31.5528 75.7952V58.5536C31.525 58.5441 31.4971 58.5316 31.4723 58.5221C31.3825 58.6699 31.2927 58.8177 31.2091 58.9686C28.843 63.1689 26.4769 67.3693 24.117 71.576C23.9869 71.8086 23.8228 71.8935 23.5658 71.9187C22.9618 71.9753 22.5778 71.7992 22.2464 71.2081C19.9671 67.1084 17.6412 63.0338 15.3309 58.9529C15.2566 58.8208 15.1699 58.6982 15.0243 58.4687C14.9995 58.6982 14.9809 58.8082 14.9809 58.9183C14.9809 63.8292 14.984 68.737 14.9902 73.6479C14.9902 74.2358 14.9964 74.8237 15.0119 75.4116C15.0212 75.682 14.9655 75.8235 14.6496 75.8046C14.1881 75.7795 13.7236 75.7921 13.259 75.8046C13.002 75.8141 12.9369 75.7103 12.9369 75.4557C12.9524 70.4033 12.9648 65.3509 12.9679 60.2953C12.9679 58.4813 12.9524 56.6672 12.9308 54.85C12.9277 54.5639 13.0051 54.4507 13.3024 54.4664C13.7762 54.4915 14.2563 54.4601 14.7301 54.4978C14.888 54.5104 15.1017 54.6299 15.1792 54.7651C17.6041 59.0535 20.0135 63.3482 22.4261 67.6428C22.6924 68.1176 22.9618 68.5923 23.2561 69.1142H23.2468Z" fill="white"/>
<path d="M60.5931 65.1308C60.5931 61.7101 60.5962 58.2895 60.5869 54.8719C60.5869 54.5575 60.686 54.4569 60.9771 54.4601C63.7056 54.4884 66.4433 54.3721 69.1562 54.5701C72.2037 54.7933 74.7432 56.1767 76.2514 58.978C78.41 62.9834 78.4719 67.0895 76.3474 71.1326C74.9754 73.7422 72.6682 75.1098 69.8469 75.5908C68.8899 75.7543 67.902 75.7857 66.9264 75.7983C64.9722 75.8266 63.0149 75.7952 61.0577 75.8046C60.7232 75.8046 60.59 75.7386 60.59 75.3519C60.6055 71.9438 60.5993 68.5389 60.5993 65.1308C60.5962 65.1308 60.5931 65.1308 60.59 65.1308H60.5931ZM62.7858 56.2773V73.9371C64.6625 73.9371 66.5052 73.9874 68.3417 73.9245C71.5068 73.8176 73.7769 72.2519 74.9909 69.3028C76.0965 66.621 76.0996 63.8417 75.0869 61.1285C74.0804 58.4372 72.1262 56.7395 69.2801 56.4471C67.1401 56.227 64.966 56.3213 62.7858 56.2773Z" fill="white"/>
<path d="M42.1569 63.999H52.4017C52.4017 64.5617 52.4171 65.0931 52.3831 65.6181C52.38 65.6873 52.1322 65.7879 51.996 65.791C49.1003 65.8005 46.2046 65.7973 43.3089 65.7942C43.0116 65.7942 42.7174 65.8068 42.4201 65.7879C42.1786 65.7753 42.1135 65.8696 42.1135 66.1054C42.1259 68.6112 42.1321 71.1201 42.1259 73.6259C42.1259 73.9403 42.2622 73.9434 42.5006 73.9434C46.2449 73.9403 49.9922 73.9497 53.7364 73.9403C54.0957 73.9403 54.2227 74.044 54.1855 74.4024C54.1607 74.6351 54.1855 74.8709 54.1855 75.1067C54.1762 75.9115 54.2722 75.8015 53.5166 75.8015C49.3728 75.8078 45.2291 75.8046 41.0822 75.8046C40.4009 75.8046 40.0592 75.4557 40.0571 74.7577C40.0571 68.1522 40.0571 61.5467 40.0571 54.9411C40.0571 54.6393 40.0819 54.4633 40.4628 54.4633C44.7738 54.4758 49.0848 54.4695 53.3989 54.4695C53.9161 54.4695 53.9161 54.4727 53.9223 54.982C53.9223 55.2807 53.9099 55.5857 53.9377 55.8812C53.9687 56.2207 53.851 56.3308 53.5073 56.3308C50.6643 56.3151 47.8181 56.3214 44.9751 56.3182C44.1389 56.3182 43.3028 56.3276 42.4666 56.3182C42.2281 56.3182 42.1197 56.3717 42.1228 56.642C42.129 59.044 42.1228 61.4461 42.1228 63.8481C42.1228 63.8858 42.1414 63.9204 42.16 63.9927L42.1569 63.999Z" fill="white"/>
<path d="M112.021 75.7763C111.34 75.7763 110.764 75.7669 110.188 75.7794C109.894 75.7857 109.835 75.5751 109.751 75.3676C109.017 73.4906 108.289 71.6105 107.54 69.7398C107.23 68.9696 107.422 69.1142 106.611 69.111C103.752 69.1079 100.897 69.111 98.0385 69.0985C97.7288 69.0985 97.5864 69.1928 97.4749 69.482C96.713 71.4596 95.9326 73.4309 95.1707 75.4085C95.0716 75.6663 94.9354 75.7826 94.6628 75.7794C94.0868 75.77 93.5108 75.7763 92.8914 75.7763C92.9223 75.6537 92.9316 75.5688 92.9626 75.4933C95.722 68.7998 98.4845 62.1062 101.244 55.4127C101.504 54.7818 101.973 54.4705 102.65 54.4789C103.322 54.4852 103.316 54.4884 103.582 55.136C106.304 61.7887 109.03 68.4414 111.755 75.0972C111.842 75.3078 111.916 75.5216 112.015 75.7826L112.021 75.7763ZM102.526 57.0161C102.48 57.0224 102.433 57.0287 102.387 57.035C101.024 60.4934 99.6613 63.9549 98.2925 67.4353H106.636C105.258 63.9392 103.892 60.4777 102.526 57.0193V57.0161Z" fill="white"/>
<path d="M84.2974 65.1245C84.2974 61.729 84.3036 58.3366 84.2881 54.9411C84.2881 54.5638 84.3872 54.4318 84.765 54.4632C85.149 54.4978 85.5393 54.4946 85.9233 54.4664C86.2763 54.4412 86.3662 54.5921 86.3569 54.9191C86.3414 55.4787 86.3569 56.0415 86.3569 56.6043C86.36 62.8451 86.3631 69.0859 86.3755 75.3267C86.3755 75.6694 86.3042 75.8297 85.9295 75.8014C85.5083 75.77 85.0809 75.7826 84.6566 75.8046C84.3624 75.8203 84.2912 75.7134 84.2943 75.4242C84.3036 71.9909 84.3005 68.5577 84.3005 65.1213L84.2974 65.1245Z" fill="white"/>
</g>
<defs>
<clipPath id="clip0_45_800">
<rect width="124.591" height="89" fill="white" transform="translate(0.381836)"/>
</clipPath>
</defs>
</svg>
