<svg width="202" height="77" viewBox="0 0 202 77" fill="none" xmlns="http://www.w3.org/2000/svg">
<g style="mix-blend-mode:luminosity" opacity="0.5">
<path fill-rule="evenodd" clip-rule="evenodd" d="M59.8667 38.8816C59.8667 56.529 73.863 70.8345 91.1281 70.8345C108.393 70.8345 122.389 56.529 122.389 38.8816C122.389 21.2355 108.393 6.9292 91.1281 6.9292C73.863 6.9292 59.8667 21.2355 59.8667 38.8816Z" fill="#0474BB"/>
</g>
<g style="mix-blend-mode:luminosity" opacity="0.5">
<path fill-rule="evenodd" clip-rule="evenodd" d="M78.492 38.86C78.492 53.0411 67.2455 64.5372 53.3712 64.5372C39.4969 64.5372 28.2502 53.0411 28.2502 38.86C28.2502 24.6803 39.4969 13.1843 53.3712 13.1843C67.2455 13.1843 78.492 24.6803 78.492 38.86Z" fill="#894198"/>
</g>
<g style="mix-blend-mode:luminosity" opacity="0.5">
<path fill-rule="evenodd" clip-rule="evenodd" d="M46.7809 38.8602C46.7809 48.3146 39.2827 55.978 30.034 55.978C20.7835 55.978 13.2859 48.3146 13.2859 38.8602C13.2859 29.407 20.7835 21.743 30.034 21.743C39.2827 21.743 46.7809 29.407 46.7809 38.8602Z" fill="#5B5E9C"/>
</g>
<g style="mix-blend-mode:luminosity" opacity="0.5">
<path fill-rule="evenodd" clip-rule="evenodd" d="M94.7339 38.86C94.7339 53.0411 105.982 64.5372 119.856 64.5372C133.728 64.5372 144.975 53.0411 144.975 38.86C144.975 24.6803 133.728 13.1843 119.856 13.1843C105.982 13.1843 94.7339 24.6803 94.7339 38.86Z" fill="#FDB813"/>
</g>
<g style="mix-blend-mode:luminosity" opacity="0.5">
<path fill-rule="evenodd" clip-rule="evenodd" d="M123.401 38.86C123.401 53.0411 134.648 64.5372 148.522 64.5372C162.397 64.5372 173.644 53.0411 173.644 38.86C173.644 24.6803 162.397 13.1843 148.522 13.1843C134.648 13.1843 123.401 24.6803 123.401 38.86Z" fill="#5B73B7"/>
</g>
<g style="mix-blend-mode:luminosity" opacity="0.5">
<path fill-rule="evenodd" clip-rule="evenodd" d="M153.411 39.2147C153.411 48.6691 160.909 56.3325 170.16 56.3325C179.407 56.3325 186.907 48.6691 186.907 39.2147C186.907 29.7609 179.407 22.0975 170.16 22.0975C160.909 22.0975 153.411 29.7609 153.411 39.2147Z" fill="#99CA3C"/>
</g>
<g style="mix-blend-mode:luminosity" opacity="0.5">
<path fill-rule="evenodd" clip-rule="evenodd" d="M72.0906 21.7431C70.78 20.2462 69.2983 18.9103 67.6797 17.7615C65.9784 19.7329 64.5139 21.9203 63.3257 24.2786C65.8756 22.6728 68.8761 21.7444 72.0906 21.7431Z" fill="#894199"/>
</g>
<g style="mix-blend-mode:luminosity" opacity="0.5">
<path fill-rule="evenodd" clip-rule="evenodd" d="M46.7807 38.8602C46.7807 30.877 41.433 24.1702 34.1994 22.2777C30.4908 26.7514 28.2502 32.5366 28.2502 38.8602C28.2502 45.1838 30.4908 50.9697 34.1988 55.4434C41.433 53.5509 46.7807 46.8448 46.7807 38.8602Z" fill="#DB128C"/>
</g>
<g style="mix-blend-mode:luminosity" opacity="0.5">
<path fill-rule="evenodd" clip-rule="evenodd" d="M63.3258 24.2784C58.541 27.2916 55.3499 32.6943 55.3499 38.8601C55.3499 45.0122 58.5275 50.4043 63.2933 53.4218C61.1079 49.0589 59.867 44.1195 59.867 38.8814C59.867 33.6183 61.1202 28.6563 63.3258 24.2784Z" fill="#8A57A3"/>
</g>
<g style="mix-blend-mode:luminosity" opacity="0.5">
<path fill-rule="evenodd" clip-rule="evenodd" d="M144.975 38.8602C144.975 30.1275 140.705 22.4179 134.188 17.7795C127.671 22.4179 123.401 30.1275 123.401 38.8602C123.401 47.5934 127.671 55.3037 134.188 59.9418C140.705 55.3037 144.975 47.5934 144.975 38.8602Z" fill="#9999CB"/>
</g>
<g style="mix-blend-mode:luminosity" opacity="0.5">
<path fill-rule="evenodd" clip-rule="evenodd" d="M167.699 22.283C159.616 23.4993 153.411 30.6161 153.411 39.2148C153.411 47.6269 159.35 54.6166 167.176 56.0559C171.195 51.504 173.644 45.4752 173.644 38.8598C173.644 32.54 171.405 26.7567 167.699 22.283Z" fill="#6CBE54"/>
</g>
<g style="mix-blend-mode:luminosity" opacity="0.5">
<path fill-rule="evenodd" clip-rule="evenodd" d="M122.39 38.8815C122.39 29.1879 118.16 20.5079 111.491 14.6482C101.731 18.1715 94.7339 27.6786 94.7339 38.8603C94.7339 50.0557 101.747 59.572 111.525 63.085C118.175 57.2258 122.39 48.5595 122.39 38.8815Z" fill="#2B92D0"/>
</g>
<g style="mix-blend-mode:luminosity" opacity="0.5">
<path fill-rule="evenodd" clip-rule="evenodd" d="M72.0425 56.2309H72.0492C81.3515 56.2309 88.8931 48.5231 88.8931 39.0148C88.8931 29.5071 81.3515 21.7987 72.0492 21.7987H72.0425C76.0445 26.3682 78.4807 32.4001 78.4807 39.0148C78.4807 45.6301 76.0445 51.662 72.0425 56.2309Z" fill="#28B1E6"/>
</g>
<g style="mix-blend-mode:luminosity" opacity="0.5">
<path fill-rule="evenodd" clip-rule="evenodd" d="M72.0906 55.9776C68.8632 55.9764 65.8503 55.0398 63.2937 53.4215C64.482 55.7936 65.9506 57.9941 67.6576 59.9759C69.2849 58.8238 70.7733 57.4808 72.0906 55.9776Z" fill="#894199"/>
</g>
<g style="mix-blend-mode:luminosity" opacity="0.5">
<path fill-rule="evenodd" clip-rule="evenodd" d="M59.8667 38.8814C59.8667 44.1195 61.1076 49.059 63.293 53.4219C65.8496 55.0402 68.863 55.9767 72.0904 55.978C76.0692 51.4348 78.4914 45.438 78.4914 38.8602C78.4914 32.283 76.0692 26.2862 72.0904 21.743C68.8754 21.7442 65.8749 22.6727 63.3255 24.2785C61.1199 28.6564 59.8667 33.6184 59.8667 38.8814Z" fill="#8CC642"/>
</g>
<g style="mix-blend-mode:luminosity" opacity="0.5">
<path fill-rule="evenodd" clip-rule="evenodd" d="M72.0904 21.7431C70.7793 20.2462 69.2982 18.9103 67.6796 17.7615C65.9783 19.7329 64.5137 21.9203 63.3255 24.2786C61.1199 28.6564 59.8667 33.6184 59.8667 38.8816C59.8667 44.1196 61.1076 49.0591 63.2936 53.4219C64.4819 55.794 65.9504 57.9939 67.6579 59.976C69.2853 58.8234 70.7736 57.4812 72.0904 55.978C76.0692 51.4349 78.4919 45.4381 78.4919 38.8603C78.4919 32.2831 76.0692 26.2863 72.0904 21.7431Z" fill="#45449B"/>
</g>
<g style="mix-blend-mode:luminosity" opacity="0.5">
<path fill-rule="evenodd" clip-rule="evenodd" d="M59.8667 38.8814C59.8667 44.1195 61.1076 49.059 63.293 53.4219C65.8496 55.0402 68.863 55.9767 72.0904 55.978C76.0692 51.4348 78.4914 45.438 78.4914 38.8602C78.4914 32.283 76.0692 26.2862 72.0904 21.743C68.8754 21.7442 65.8749 22.6727 63.3255 24.2785C61.1199 28.6564 59.8667 33.6184 59.8667 38.8814Z" fill="#3B55A5"/>
</g>
<path fill-rule="evenodd" clip-rule="evenodd" d="M172.203 41.7912C171.346 44.5859 170.65 47.008 170.488 47.4663H170.324L168.609 41.8732C167.955 39.5769 165.179 30.9395 164.526 28.6851H162.28C163.464 32.4407 167.629 45.1299 168.773 48.9268L169.358 50.7999L168.42 53.726C168.06 54.7039 166.988 56.1 166.524 56.5851C167.259 56.726 168.468 56.4493 169.417 56.1582C169.704 55.77 170.038 55.1697 170.311 54.3314C172.921 46.3313 177.511 32.1296 178.614 28.6851H176.285C175.183 32.1076 173.509 37.66 172.203 41.7912Z" fill="#FEFEFE"/>
<path fill-rule="evenodd" clip-rule="evenodd" d="M147.056 39.4446C143.968 39.5723 142.402 41.1293 142.402 43.5276C142.402 46.2653 143.72 47.6132 146.605 47.6132C148.54 47.6132 150.599 46.5614 152.783 44.7065V39.1084L147.056 39.4446ZM155.049 35.1068C155.049 35.1068 155.038 45.3531 155.049 46.0268C155.06 46.9183 155.497 47.7139 155.949 48.5165L154.202 49.423C153.562 48.3932 152.897 47.3815 152.783 46.8557C152.783 46.8557 152.74 46.8131 152.7 46.8131C149.488 49.3805 147.056 49.423 145.739 49.423C141.207 49.423 139.929 46.2653 139.929 43.7824C139.929 40.0325 142.649 38.0141 146.481 37.7605L152.783 37.4231V35.7403C152.783 31.9096 151.794 30.3933 148.167 30.3933C146.151 30.3933 143.926 30.8973 141.907 31.6122L141.332 29.972C143.64 28.9603 146.356 28.4144 148.662 28.4144C152.74 28.4144 155.049 30.2237 155.049 35.1068Z" fill="#FEFEFE"/>
<path fill-rule="evenodd" clip-rule="evenodd" d="M126.434 46.8403L127.873 40.9574L131.121 28.6852H133.513L127.701 49.3445H125.016L121.44 37.9218L119.692 31.8154H119.53L117.985 37.6713L114.654 49.3445H111.926L106.199 28.6852H108.548L111.714 40.4936L113.277 46.8403H113.441L115.209 40.158L118.457 28.6852H120.76L124.584 41.0833L126.227 46.8403H126.434Z" fill="#FEFEFE"/>
<path fill-rule="evenodd" clip-rule="evenodd" d="M91.2935 30.2241C86.3499 30.2241 85.1132 34.8981 85.1132 39.1508C85.1132 43.488 86.0615 47.571 91.2935 47.571C96.1535 47.571 97.1426 43.0673 97.1426 39.1082C97.1426 35.193 96.2362 30.2241 91.2935 30.2241ZM91.0052 49.4654C84.5793 49.4654 82.7251 44.5404 82.7251 39.1082C82.7251 33.7606 84.9897 28.3297 91.2935 28.3297C97.7607 28.3297 99.5323 33.7606 99.5323 39.0237C99.5323 44.1184 97.7199 49.4654 91.0052 49.4654Z" fill="#FEFEFE"/>
<path fill-rule="evenodd" clip-rule="evenodd" d="M70.708 49.3448H73.1581V19.2949H70.708V49.3448Z" fill="#FEFEFE"/>
<path fill-rule="evenodd" clip-rule="evenodd" d="M53.5363 30.2241C48.5934 30.2241 47.3574 34.8981 47.3574 39.1508C47.3574 43.488 48.3043 47.571 53.5363 47.571C58.397 47.571 59.385 43.0673 59.385 39.1082C59.385 35.193 58.4791 30.2241 53.5363 30.2241ZM53.2477 49.4654C46.8214 49.4654 44.968 44.5404 44.968 39.1082C44.968 33.7606 47.2336 28.3297 53.5363 28.3297C60.0036 28.3297 61.7749 33.7606 61.7749 39.0237C61.7749 44.1184 59.9619 49.4654 53.2477 49.4654Z" fill="#FEFEFE"/>
<path fill-rule="evenodd" clip-rule="evenodd" d="M23.7299 46.2228C26.0776 47.4016 28.1791 47.6132 29.6619 47.6132C32.5866 47.6132 34.8939 46.5189 34.8939 43.7825C34.8939 41.3391 32.5462 40.4545 30.1152 39.6137C26.7373 38.4781 23.5253 37.3812 23.5253 33.8034C23.5253 29.9301 26.6546 28.3293 30.321 28.3293C31.7628 28.3293 34.1528 28.6242 35.9241 29.5933C35.7593 30.014 35.4292 30.9399 35.2234 31.318C33.2463 30.518 31.6397 30.2663 30.2805 30.2663C27.8091 30.2663 25.7487 31.2761 25.7487 33.846C25.7487 35.9495 28.5086 36.9593 30.3633 37.5497C33.6989 38.6446 37.1185 39.6537 37.1185 43.7393C37.1185 47.7384 33.7822 49.4656 29.6619 49.4656C27.3136 49.4656 24.6775 48.9598 22.9478 47.9068L23.7299 46.2228Z" fill="#FEFEFE"/>
</svg>
