<svg width="29" height="23" viewBox="0 0 29 23" fill="none" xmlns="http://www.w3.org/2000/svg">
<path d="M1.00559 10.565C3.85138 9.01959 7.02804 7.72975 9.99616 6.43335C15.1025 4.30995 20.2291 2.22335 25.4074 0.28075C26.4149 -0.0502303 28.2252 -0.37387 28.4027 1.09807C28.3055 3.18167 27.9056 5.25307 27.6314 7.32447C26.9353 11.8797 26.1307 16.4193 25.3461 20.9595C25.0758 22.4718 23.1542 23.2547 21.9246 22.2869C18.9697 20.3191 15.992 18.3705 13.0748 16.3571C12.1192 15.3998 13.0054 14.0251 13.8588 13.3415C16.2926 10.9769 18.8736 8.96785 21.1802 6.48105C21.8024 4.99983 19.964 6.24815 19.3576 6.63068C16.0258 8.89428 12.7754 11.2961 9.26264 13.2855C7.4683 14.2593 5.37696 13.4271 3.58343 12.8837C1.97534 12.2273 -0.381158 11.566 1.00542 10.5651L1.00559 10.565Z" fill="white"/>
</svg>
