<svg width="33" height="20" viewBox="0 0 33 20" fill="none" xmlns="http://www.w3.org/2000/svg">
<path fill-rule="evenodd" clip-rule="evenodd" d="M32.2367 1.3211C32.4772 0.575862 32.2367 0.0338739 31.1716 0.0338739H27.6325C26.7392 0.0338739 26.3269 0.508116 26.0863 1.01623C26.0863 1.01623 24.2653 5.35215 21.7227 8.16372C20.898 8.97671 20.5201 9.24771 20.0734 9.24771C19.8329 9.24771 19.5236 8.97671 19.5236 8.23148V1.28722C19.5236 0.406491 19.2488 0 18.4929 0H12.9266C12.3768 0 12.0332 0.40649 12.0332 0.812983C12.0332 1.65984 13.3046 1.86309 13.442 4.2343V9.3832C13.442 10.5011 13.2358 10.7043 12.7892 10.7043C11.5866 10.7043 8.666 6.33451 6.91366 1.35498C6.57006 0.372618 6.22647 0 5.33312 0H1.75972C0.728927 0 0.557129 0.474239 0.557129 0.982355C0.557129 1.89696 1.75972 6.50388 6.15775 12.6013C9.07832 16.7678 13.2358 19.0035 16.981 19.0035C19.2488 19.0035 19.5236 18.4954 19.5236 17.6486V14.4982C19.5236 13.482 19.7298 13.3126 20.4514 13.3126C20.9668 13.3126 21.8945 13.5836 23.9904 15.5822C26.3956 17.9534 26.8079 19.0374 28.1479 19.0374H31.687C32.7177 19.0374 33.1988 18.5293 32.9239 17.5469C32.6147 16.5646 31.4464 15.1418 29.9346 13.4481C29.11 12.4996 27.873 11.4495 27.4951 10.9414C26.9797 10.2639 27.1171 9.99294 27.4951 9.3832C27.4607 9.3832 31.79 3.35356 32.2367 1.3211Z" fill="white"/>
</svg>
