<svg width="202" height="77" viewBox="0 0 202 77" fill="none" xmlns="http://www.w3.org/2000/svg">
<path d="M52.2036 30.3028C51.9995 29.149 51.2453 28.2557 50.2959 28.1859C49.3288 28.1115 48.3572 28.1673 47.3501 28.1673C47.3368 28.3162 47.3235 28.3906 47.3235 28.4651C47.3235 34.1457 47.3147 39.8263 47.3368 45.5116C47.3368 46.0373 47.4566 46.5863 47.6429 47.0748C48.0245 48.0797 48.7964 48.5403 49.8168 48.5403C50.8372 48.5403 51.6224 48.0657 51.9817 47.0655C52.1947 46.4699 52.3012 45.8047 52.3056 45.1673C52.3322 40.6172 52.3233 36.0718 52.3145 31.5217C52.3145 31.117 52.2745 30.7029 52.2036 30.3074V30.3028Z" fill="white"/>
<path d="M139.017 33.6966C138.97 32.6124 138.983 31.5235 138.858 30.4534C138.732 29.3785 138.197 28.5712 137.183 28.2615C135.643 27.7921 134.24 28.8059 134.115 30.6223C133.99 32.4857 134.046 34.3584 134.016 36.2312C134.007 36.6161 134.214 36.6395 134.482 36.6395C135.824 36.6348 137.17 36.6254 138.512 36.6442C138.883 36.6489 138.987 36.494 138.978 36.1138C138.957 35.3112 138.974 34.5039 138.974 33.7013C138.987 33.7013 139.004 33.7013 139.017 33.7013V33.6966Z" fill="white"/>
<path d="M122.082 36.6344C122.17 36.6344 122.333 36.4228 122.333 36.3053C122.333 34.4151 122.381 32.5156 122.288 30.6301C122.211 29.1067 121.362 28.1663 120.278 28.1475C119.196 28.1287 118.326 28.9751 118.237 30.4985C118.123 32.5062 118.208 34.5327 118.208 36.6438C119.495 36.6438 120.79 36.6485 122.082 36.6297V36.6344Z" fill="white"/>
<path d="M63.2456 36.6443H68.1575C68.1575 35.897 68.1664 35.1783 68.1575 34.4644C68.1353 33.1555 68.1575 31.8418 68.0555 30.5424C67.9579 29.3239 67.2523 28.4909 66.2895 28.2387C64.7098 27.8246 63.3166 28.8479 63.2189 30.6804C63.1125 32.6271 63.1834 34.5834 63.179 36.5396C63.179 36.5682 63.2145 36.5967 63.2456 36.6443Z" fill="white"/>
<path d="M173.18 19.7837C173.18 19.0951 173.13 18.3972 172.987 17.7274C172.037 13.2964 168.357 10.3033 163.873 10.3033C142.944 10.3033 122.016 10.3033 101.087 10.3033C80.1587 10.3033 59.2257 10.3033 38.2972 10.3033C33.0192 10.3033 28.9896 14.4018 28.9896 19.779C28.9804 32.154 28.9804 44.5336 28.9896 56.9086C28.9896 62.2905 33.0146 66.3843 38.2972 66.3843C80.1541 66.3843 122.011 66.3843 163.873 66.3843C169.151 66.3843 173.185 62.2905 173.189 56.9133C173.199 44.5383 173.194 32.1587 173.185 19.7837H173.18ZM55.733 46.5103C55.7238 47.3721 55.5265 48.2574 55.2649 49.0864C54.4617 51.6486 52.4423 53.1521 49.6656 53.2458C48.7982 53.2739 47.894 53.199 47.0541 52.9788C44.5069 52.309 43.2264 50.4354 42.7583 47.9155C42.6068 47.1145 42.538 46.2808 42.538 45.4658C42.5242 36.2899 42.5288 27.114 42.5288 17.9335V17.3667H46.5584V24.21C47.3111 24.21 48.0042 24.1772 48.688 24.2194C49.5233 24.2709 50.3862 24.2849 51.1893 24.491C53.9064 25.1936 55.2144 27.1749 55.6274 29.8729C55.7422 30.627 55.7835 31.3999 55.7835 32.1633C55.7835 36.9456 55.7881 41.7326 55.733 46.515V46.5103ZM62.7596 45.7093C62.7596 46.0981 62.7964 46.4962 62.879 46.8756C63.1957 48.3089 64.1319 49.0583 65.4996 48.9974C66.7342 48.9412 67.6613 48.0513 67.8357 46.6648C67.9367 45.8545 67.9367 45.0348 67.9826 44.1777H71.9388C72.0122 46.8381 71.9801 49.4752 69.9745 51.5408C68.4645 53.0959 66.5185 53.4472 64.4761 53.2177C61.1487 52.843 59.166 50.7165 58.8218 47.2597C58.7484 46.5384 58.7116 45.8077 58.7116 45.077C58.7025 40.5898 58.6933 36.1025 58.7208 31.6153C58.7254 30.6692 58.7943 29.6996 58.9916 28.7815C59.7259 25.3763 62.1355 23.5449 65.5593 23.6994C69.3962 23.8727 71.7047 26.1398 71.8883 30.2289C72.0398 33.6247 71.9342 37.03 71.9388 40.4352C71.9388 40.468 71.9159 40.5054 71.8791 40.6132H62.8055C62.7872 40.8005 62.7551 40.9598 62.7551 41.119C62.7551 42.6507 62.7459 44.187 62.7596 45.7187V45.7093ZM83.2246 53.11C81.9624 53.3535 80.7049 53.3395 79.4657 52.9835C76.7579 52.2013 75.5187 50.1825 75.1194 47.5033C75.0046 46.7492 74.9817 45.9763 74.9771 45.2128C74.9679 36.1447 74.9725 27.0766 74.9725 18.0131V17.3808H78.9792V24.1913H85.7121V28.3881H78.993C78.993 28.6551 78.993 28.8565 78.993 29.0532C78.993 34.51 78.993 39.9715 78.993 45.4283C78.993 45.7983 79.0205 46.1777 79.071 46.5431C79.2775 48.1309 80.2459 49.0349 81.6916 48.9974C83.0318 48.9647 83.9864 47.9763 84.1287 46.4494C84.17 46.0044 84.1792 45.5594 84.2067 45.0676H88.1492C88.4383 48.7164 87.0523 52.3652 83.22 53.1053L83.2246 53.11ZM110.129 46.1075C110.129 47.0864 110.023 48.1028 109.739 49.0302C108.284 53.7704 102.964 54.1732 100.279 52.0561C100.137 51.9437 99.9903 51.8266 99.8205 51.6954C98.7006 52.6884 97.4064 53.2364 95.9193 53.2692C92.5139 53.3348 89.9804 51.0537 89.6362 47.5969C89.5765 46.9834 89.5444 46.3651 89.5444 45.7515C89.5398 38.8333 89.5444 31.9151 89.5444 24.9969V24.2475H93.6016V24.9875C93.6016 31.9807 93.6016 38.9738 93.6016 45.9669C93.6016 46.4119 93.6199 46.8662 93.7117 47.3019C93.9596 48.4775 94.7214 49.0583 95.878 49.0068C96.8969 48.96 97.6221 48.248 97.7689 47.0958C97.824 46.6695 97.8286 46.2386 97.8286 45.8077C97.8286 38.8895 97.8286 31.9713 97.8286 25.0531V24.2287H101.867V24.9407C101.867 31.9713 101.863 39.0019 101.877 46.0278C101.877 46.5805 101.95 47.152 102.111 47.6766C102.386 48.5712 103.107 49.0162 104.061 49.0021C104.975 48.9881 105.658 48.5197 105.911 47.6204C106.053 47.1098 106.117 46.5571 106.117 46.0185C106.131 39.0066 106.127 31.9947 106.127 24.9875C106.127 24.7486 106.127 24.5098 106.127 24.2428H110.119C110.129 24.4582 110.147 24.655 110.147 24.8517C110.147 31.9385 110.161 39.0253 110.129 46.1075ZM126.458 47.2691C126.412 47.803 126.284 48.3417 126.128 48.8569C125.104 52.2668 122.369 53.4285 119.345 53.2036C115.237 52.8945 113.543 50.0279 113.465 46.5899C113.337 41.1893 113.406 35.784 113.456 30.3834C113.465 29.4701 113.704 28.5239 114.007 27.6574C114.847 25.2592 116.623 24.0179 119.06 23.8025C119.978 23.7229 120.942 23.7697 121.841 23.9617C124.352 24.5051 125.94 26.3833 126.38 29.1797C126.481 29.8073 126.564 30.4396 126.569 31.072C126.587 34.1212 126.578 37.1658 126.578 40.215C126.578 40.304 126.559 40.3977 126.536 40.5851H117.389C117.38 40.8333 117.362 41.0347 117.362 41.2315C117.362 42.7069 117.357 44.187 117.362 45.6625C117.362 46.0138 117.389 46.3744 117.454 46.7211C117.743 48.2808 118.697 49.0911 120.152 49.0256C121.456 48.9693 122.401 47.9857 122.543 46.4822C122.603 45.8498 122.562 45.2128 122.608 44.5805C122.617 44.44 122.805 44.2011 122.915 44.1964C124.104 44.1683 125.297 44.1777 126.614 44.1777C126.564 45.2409 126.541 46.262 126.454 47.2738L126.458 47.2691ZM142.894 45.9201C142.894 46.6789 142.797 47.4564 142.632 48.1965C141.769 52.1451 138.882 53.4659 135.693 53.1943C132.163 52.8945 130.125 50.7118 129.827 47.1004C129.749 46.159 129.731 45.2081 129.68 44.1777C130.984 44.1777 132.154 44.1823 133.329 44.1777C133.636 44.1777 133.682 44.3463 133.692 44.6039C133.71 45.2737 133.696 45.9529 133.779 46.618C134.008 48.4541 135.559 49.4799 137.198 48.8991C138.208 48.5384 138.777 47.7375 138.836 46.707C138.947 44.7678 138.924 42.824 138.951 40.8802C138.951 40.8099 138.928 40.7396 138.901 40.5991H129.758C129.744 40.3509 129.726 40.1682 129.726 39.9902C129.726 37.1471 129.671 34.3039 129.749 31.4654C129.786 30.2289 129.946 28.9548 130.314 27.7792C131.085 25.3154 132.902 24.032 135.39 23.8025C136.308 23.7182 137.276 23.7603 138.176 23.9571C140.769 24.5238 142.146 26.3412 142.669 28.8939C142.811 29.5872 142.898 30.2991 142.898 31.0064C142.917 35.9808 142.921 40.9504 142.898 45.9248L142.894 45.9201ZM159.407 51.7984V52.4355H155.35V51.7469C155.35 44.9786 155.354 38.215 155.341 31.4467C155.341 30.8378 155.267 30.2101 155.093 29.6293C154.767 28.5473 153.849 27.929 152.757 27.9337C151.655 27.9384 150.751 28.5614 150.434 29.6481C150.264 30.2289 150.196 30.8565 150.191 31.4654C150.177 38.215 150.182 44.9599 150.182 51.7095V52.4495H146.157C146.148 52.2481 146.125 52.0514 146.125 51.8547C146.125 45.1051 146.111 38.3602 146.138 31.6106C146.138 30.5895 146.244 29.5497 146.469 28.5567C147.194 25.3763 149.466 23.662 152.825 23.6948C153.519 23.7041 154.225 23.7697 154.895 23.9243C157.3 24.4863 158.801 26.2381 159.2 28.9267C159.324 29.7558 159.393 30.5989 159.398 31.4373C159.412 38.2244 159.407 45.0067 159.407 51.7938V51.7984Z" fill="white"/>
</svg>
