<svg width="21" height="16" viewBox="0 0 21 16" fill="none" xmlns="http://www.w3.org/2000/svg">
<path d="M4.01978 13H16.0198V10H4.01978V13ZM2.01978 16C1.46978 16 0.998942 15.8042 0.607275 15.4125C0.215609 15.0208 0.0197754 14.55 0.0197754 14V2C0.0197754 1.45 0.215609 0.979167 0.607275 0.5875C0.998942 0.195833 1.46978 0 2.01978 0H18.0198C18.5698 0 19.0406 0.195833 19.4323 0.5875C19.8239 0.979167 20.0198 1.45 20.0198 2V14C20.0198 14.55 19.8239 15.0208 19.4323 15.4125C19.0406 15.8042 18.5698 16 18.0198 16H2.01978ZM2.01978 14H18.0198V2H2.01978V14Z" fill="white"/>
</svg>
