<svg width="203" height="77" viewBox="0 0 203 77" fill="none" xmlns="http://www.w3.org/2000/svg">
<path d="M141.123 16.3033H146.695V19.8532H141.123V16.3033Z" fill="white"/>
<path fill-rule="evenodd" clip-rule="evenodd" d="M58.238 24.1132V37.157C58.238 44.0691 63.8513 49.6724 70.7752 49.6724C77.6996 49.6724 83.3124 44.0691 83.3124 37.157V24.1132H77.7945V37.157C77.7945 41.2829 74.9084 44.6275 70.7752 44.6275C66.6424 44.6275 63.756 41.2829 63.756 37.157V24.1132H58.238Z" fill="white"/>
<path d="M103.334 23.0273C106.84 23.0273 109.836 24.3106 112.321 26.8771C114.806 29.4437 116.048 32.6013 116.048 36.3499C116.048 40.0646 114.806 43.2222 112.321 45.8226C109.836 48.3891 106.84 49.6724 103.334 49.6724C99.4539 49.6724 96.4752 48.2372 94.399 45.3667V49.0139H88.8845V16.3033H94.399V27.2824C96.4752 24.4457 99.4539 23.0273 103.334 23.0273ZM96.6965 42.1753C98.2283 43.695 100.152 44.4548 102.466 44.4548C104.781 44.4548 106.704 43.695 108.236 42.1753C109.768 40.6219 110.534 38.6801 110.534 36.3499C110.534 34.0197 109.768 32.0947 108.236 30.575C106.704 29.0216 104.781 28.2448 102.466 28.2448C100.152 28.2448 98.2283 29.0216 96.6965 30.575C95.1647 32.0947 94.399 34.0197 94.399 36.3499C94.399 38.6801 95.1647 40.6219 96.6965 42.1753Z" fill="white"/>
<path d="M127.687 27.1411C129.044 26.2097 132.034 24.1132 137.64 24.1132V29.9352C135.428 30.2251 131.759 30.6337 129.497 33.4277C128.14 35.2904 127.681 37.3231 127.681 39.9472V49.6724H122.317V24.1132H127.681L127.687 27.1411Z" fill="white"/>
<path d="M140.426 49.6724V24.1132H145.998V49.6724H140.426Z" fill="white"/>
<path d="M173.361 16.3033H178.734V49.0139H173.361V45.3667C171.338 48.2372 168.436 49.6724 164.655 49.6724C161.239 49.6724 158.32 48.3891 155.899 45.8226C153.478 43.2222 152.267 40.0646 152.267 36.3499C152.267 32.6013 153.478 29.4437 155.899 26.8771C158.32 24.3106 161.239 23.0273 164.655 23.0273C168.436 23.0273 171.338 24.4457 173.361 27.2824V16.3033ZM159.879 42.1753C161.372 43.695 163.245 44.4548 165.501 44.4548C167.756 44.4548 169.63 43.695 171.122 42.1753C172.615 40.6219 173.361 38.6801 173.361 36.3499C173.361 34.0197 172.615 32.0947 171.122 30.575C169.63 29.0216 167.756 28.2448 165.501 28.2448C163.245 28.2448 161.372 29.0216 159.879 30.575C158.386 32.0947 157.64 34.0197 157.64 36.3499C157.64 38.6801 158.386 40.6219 159.879 42.1753Z" fill="white"/>
<path fill-rule="evenodd" clip-rule="evenodd" d="M30.9607 16.3033H25.502V49.6724H30.9607V16.3033ZM46.4282 49.6724H51.9693V16.3033H46.4282V49.6724Z" fill="white"/>
<path d="M29.6812 31.1092L48.0299 26.953L49.1835 32.7365L30.8348 36.8927L29.6812 31.1092Z" fill="white"/>
<path d="M58.2381 54.8461L78.4369 51.8022L78.4365 57.2781L58.238 60.322L58.2381 54.8461Z" fill="white"/>
<path d="M140.426 16.3033H145.998V19.8532H140.426V16.3033Z" fill="white"/>
</svg>
