<svg width="257" height="90" viewBox="0 0 257 90" fill="none" xmlns="http://www.w3.org/2000/svg">
<path d="M0 77.436H4.81404C7.69892 77.436 9.39799 78.8954 9.39799 81.5116C9.39799 84.1277 7.87591 85.5159 5.07952 85.5159H2.12384V89.1465H0V77.436ZM4.95563 84.0032C6.49541 84.0032 7.38034 83.2201 7.38034 81.6183C7.38034 80.0166 6.44231 79.2157 4.74324 79.2157H2.12384V84.0032H4.95563Z" fill="white"/>
<path d="M11.2034 77.436H19.1678V79.2157H13.3272V82.5616H17.9643V83.9498H13.3272V87.3668H19.3271V89.1465H11.2034V77.436Z" fill="white"/>
<path d="M20.9729 77.436H26.0878C29.0789 77.436 30.6187 78.7352 30.6187 80.8353C30.6187 82.348 29.9638 83.3803 28.601 83.6294V83.665C30.0169 83.8786 30.5479 84.8752 30.5479 86.2812V89.1465H28.4063V86.3168C28.4063 85.1422 27.9285 84.5015 26.371 84.5015H23.0967V89.1465H20.9729V77.436ZM26.1232 83.0955C27.84 83.0955 28.5833 82.348 28.5833 81.1022C28.5833 79.9276 27.7692 79.2157 26.0701 79.2157H23.0967V83.0955H26.1232Z" fill="white"/>
<path d="M32.2825 85.1419H34.1939C34.1939 86.6369 34.9019 87.6691 37.1319 87.6691C39.5035 87.6691 40.1053 86.7793 40.1053 85.8182C40.1053 85.1775 39.8398 84.8038 39.2911 84.608C38.7071 84.3766 37.4505 84.2165 36.4416 84.0741C35.2735 83.9139 34.0346 83.647 33.3975 83.2376C32.6895 82.7927 32.2471 81.9918 32.2471 80.8884C32.2471 78.7528 34.07 77.2578 37.1142 77.2578C40.5654 77.2578 41.822 78.7884 41.822 81.4579H39.9106C39.9106 79.7316 38.9725 78.9129 37.1496 78.9129C35.3266 78.9129 34.3532 79.6426 34.3532 80.7104C34.3532 81.3689 34.5833 81.7605 35.0434 81.974C35.5567 82.2232 36.8664 82.4368 37.8752 82.5791C39.0964 82.7749 40.2292 82.9707 40.9548 83.3622C41.7512 83.7715 42.2114 84.5902 42.2114 85.6758C42.2114 87.5623 41.1141 89.3242 37.1496 89.3242C33.1851 89.3242 32.2825 87.2776 32.2825 85.1419Z" fill="white"/>
<path d="M43.6804 83.2376C43.6804 79.518 46.3352 77.2578 49.7157 77.2578C53.0961 77.2578 55.7686 79.518 55.7686 83.2376C55.7686 86.9572 53.1138 89.3242 49.7157 89.3242C46.3175 89.3242 43.6804 87.0284 43.6804 83.2376ZM53.6094 83.2376C53.6094 80.6215 51.8749 79.0375 49.7157 79.0375C47.5564 79.0375 45.8396 80.6215 45.8396 83.2376C45.8396 85.8538 47.5741 87.5445 49.7157 87.5445C51.8572 87.5445 53.6094 85.925 53.6094 83.2376Z" fill="white"/>
<path d="M57.627 77.436H60.8127L66.3524 86.3346H66.3878L66.3524 77.436H68.3523V89.1465H65.8391L59.6269 79.2157H59.6092L59.6269 89.1465H57.627V77.436Z" fill="white"/>
<path d="M78.4757 86.5125H73.0422L72.0511 89.1465H69.8564L74.5997 77.436H77.1837L81.9092 89.1465H79.4491L78.4757 86.5125ZM77.9447 85.0888L75.7855 79.2513H75.7501L73.5732 85.0888H77.9447Z" fill="white"/>
<path d="M83.4316 77.436H85.5555V87.3668H91.3252V89.1465H83.4316V77.436Z" fill="white"/>
<path d="M95.7407 77.436H100.201C103.847 77.436 106.094 79.5539 106.094 83.2735C106.094 86.9931 103.971 89.1465 100.572 89.1465H95.7407V77.436ZM100.537 87.3668C102.626 87.3668 103.988 85.9608 103.988 83.2735C103.988 80.5861 102.519 79.2157 100.289 79.2157H97.8646V87.3668H100.537Z" fill="white"/>
<path d="M108.041 77.436H110.147V89.1465H108.041V77.436Z" fill="white"/>
<path d="M112.094 83.4156C112.094 79.6604 114.678 77.2578 118.112 77.2578C121.05 77.2578 123.262 78.8418 123.262 81.5113C123.262 81.7071 123.244 81.9918 123.227 82.2054H121.333C121.351 81.9918 121.351 81.7961 121.351 81.6359C121.351 79.9808 119.935 79.0375 118.147 79.0375C115.899 79.0375 114.236 80.7282 114.236 83.4334C114.236 86.1386 115.953 87.6691 118.059 87.6691C119.917 87.6691 121.298 86.5835 121.298 84.9995V84.7326H117.687V83.38H123.351V89.1463H121.581C121.616 88.6835 121.669 87.8471 121.687 87.0462H121.669C121.315 88.3988 120.006 89.3242 117.882 89.3242C114.554 89.3242 112.094 87.0818 112.094 83.4156Z" fill="white"/>
<path d="M125.563 77.436H127.669V89.1465H125.563V77.436Z" fill="white"/>
<path d="M132.855 79.198H129.244V77.436H138.589V79.198H134.979V89.1465H132.855V79.198Z" fill="white"/>
<path d="M145.916 86.5126H140.483L139.492 89.1465H137.297L142.04 77.436H144.624L149.35 89.1465H146.89L145.916 86.5126ZM145.385 85.0888L143.226 79.2513H143.191L141.014 85.0888H145.385Z" fill="white"/>
<path d="M150.872 77.436H152.996V87.3668H158.766V89.1465H150.872V77.436Z" fill="white"/>
<path d="M171.657 86.5121H166.224L165.232 89.146H163.038L167.781 77.4355H170.365L175.091 89.146H172.631L171.657 86.5121ZM171.126 85.0883L168.967 79.2509H168.931L166.755 85.0883H171.126Z" fill="white"/>
<path d="M175.799 85.1419H177.71C177.71 86.6369 178.418 87.6691 180.648 87.6691C183.02 87.6691 183.621 86.7793 183.621 85.8182C183.621 85.1775 183.356 84.8038 182.807 84.608C182.223 84.3766 180.967 84.2165 179.958 84.0741C178.79 83.9139 177.551 83.647 176.914 83.2376C176.206 82.7927 175.763 81.9918 175.763 80.8884C175.763 78.7528 177.586 77.2578 180.63 77.2578C184.082 77.2578 185.338 78.7884 185.338 81.4579H183.427C183.427 79.7316 182.489 78.9129 180.666 78.9129C178.843 78.9129 177.869 79.6426 177.869 80.7105C177.869 81.3689 178.099 81.7605 178.56 81.974C179.073 82.2232 180.383 82.4367 181.391 82.5791C182.613 82.7749 183.745 82.9707 184.471 83.3622C185.267 83.7715 185.728 84.5902 185.728 85.6758C185.728 87.5623 184.63 89.3242 180.666 89.3242C176.701 89.3242 175.799 87.2776 175.799 85.1419Z" fill="white"/>
<path d="M187.25 85.1419H189.161C189.161 86.6369 189.869 87.6691 192.099 87.6691C194.471 87.6691 195.073 86.7793 195.073 85.8182C195.073 85.1775 194.807 84.8038 194.258 84.608C193.674 84.3766 192.418 84.2165 191.409 84.0741C190.241 83.9139 189.002 83.647 188.365 83.2376C187.657 82.7927 187.214 81.9918 187.214 80.8884C187.214 78.7528 189.037 77.2578 192.081 77.2578C195.533 77.2578 196.789 78.7884 196.789 81.4579H194.878C194.878 79.7316 193.94 78.9129 192.117 78.9129C190.294 78.9129 189.321 79.6426 189.321 80.7105C189.321 81.3689 189.551 81.7605 190.011 81.974C190.524 82.2232 191.834 82.4367 192.843 82.5791C194.064 82.7749 195.196 82.9707 195.922 83.3622C196.719 83.7715 197.179 84.5902 197.179 85.6758C197.179 87.5623 196.081 89.3242 192.117 89.3242C188.152 89.3242 187.25 87.2776 187.25 85.1419Z" fill="white"/>
<path d="M199.143 77.4355H201.249V89.146H199.143V77.4355Z" fill="white"/>
<path d="M203.249 85.1419H205.161C205.161 86.6369 205.869 87.6691 208.099 87.6691C210.47 87.6691 211.072 86.7793 211.072 85.8182C211.072 85.1775 210.807 84.8038 210.258 84.608C209.674 84.3766 208.417 84.2165 207.408 84.0741C206.24 83.9139 205.001 83.647 204.364 83.2376C203.656 82.7927 203.214 81.9918 203.214 80.8884C203.214 78.7528 205.037 77.2578 208.081 77.2578C211.532 77.2578 212.789 78.7884 212.789 81.4579H210.877C210.877 79.7316 209.939 78.9129 208.116 78.9129C206.293 78.9129 205.32 79.6426 205.32 80.7105C205.32 81.3689 205.55 81.7605 206.01 81.974C206.524 82.2232 207.833 82.4367 208.842 82.5791C210.063 82.7749 211.196 82.9707 211.922 83.3622C212.718 83.7715 213.178 84.5902 213.178 85.6758C213.178 87.5623 212.081 89.3242 208.116 89.3242C204.152 89.3242 203.249 87.2776 203.249 85.1419Z" fill="white"/>
<path d="M217.426 79.1975H213.815V77.4355H223.16V79.1975H219.55V89.146H217.426V79.1975Z" fill="white"/>
<path d="M230.487 86.5121H225.054L224.063 89.146H221.868L226.611 77.4355H229.195L233.921 89.146H231.461L230.487 86.5121ZM229.956 85.0883L227.797 79.2509H227.762L225.585 85.0883H229.956Z" fill="white"/>
<path d="M235.443 77.4355H238.629L244.169 86.3341H244.204L244.169 77.4355H246.169V89.146H243.655L237.443 79.2153H237.425L237.443 89.146H235.443V77.4355Z" fill="white"/>
<path d="M251.266 79.1975H247.655V77.4355H257V79.1975H253.389V89.146H251.266V79.1975Z" fill="white"/>
<path d="M19.3389 45.1384L19.3389 37.1779L51.1382 37.1779C61.5702 37.1779 67.647 31.5021 67.647 23.2017C67.647 14.9014 61.5702 9.39155 51.1382 9.39155L9.8267 9.39155L9.8267 62.7588L0 62.7588L-2.67723e-06 1.17026L51.1382 1.17026C67.647 1.17025 77.2614 9.64451 77.2614 22.9409C77.2615 36.2372 67.6392 45.1383 51.1382 45.1383L19.3389 45.1384Z" fill="white"/>
<path d="M87.3948 62.7588L87.3948 1.17026L129.319 1.17026C149.672 1.17025 164.46 13.4548 164.46 31.3282C164.46 49.2016 149.672 62.7588 129.319 62.7588L87.3948 62.7588ZM129.319 54.5454C143.902 54.5454 154.633 44.8063 154.633 31.755C154.633 18.7037 143.902 9.39155 129.319 9.39155L97.2215 9.39155L97.2215 54.5454L129.319 54.5454Z" fill="white"/>
<path d="M245.07 62.7588L233.325 46.2372L194.64 46.2372L199.498 39.1226L228.255 39.1226L208.814 11.8421L172.667 62.7588L161.425 62.7588L204.364 3.03586C205.583 1.34417 206.998 0.324411 209.222 0.324411C211.447 0.324411 212.768 1.34417 213.978 3.03586L256.917 62.7588L245.07 62.7588Z" fill="white"/>
</svg>
