<svg width="202" height="77" viewBox="0 0 202 77" fill="none" xmlns="http://www.w3.org/2000/svg">
<mask id="mask0_45_734" style="mask-type:luminance" maskUnits="userSpaceOnUse" x="12" y="4" width="177" height="67">
<path d="M188.703 4.85889H12.1721V70.9146H188.703V4.85889Z" fill="white"/>
</mask>
<g mask="url(#mask0_45_734)">
<path d="M79.0941 37.7776V48.0376H76.1265V38.3812C76.1265 36.6712 74.2468 34.8103 72.4169 34.8103C69.35 34.8103 68.2122 37.1741 68.2122 38.3309V48.0879H65.1952C65.1952 48.0879 65.1952 39.0853 65.1952 38.4817C65.1952 37.325 64.0574 34.8606 61.3369 34.8606C58.8145 34.8606 57.2811 37.1238 57.2811 38.6829C57.2811 39.9906 57.2811 48.1382 57.2811 48.1382H54.2639V32.2452H57.2811V34.4079C57.2811 34.4079 59.1113 31.9435 62.2276 31.9435C66.1348 31.9435 67.5696 35.2629 67.6191 35.3132C67.6685 35.1623 69.4983 31.8932 73.06 31.8932C76.5224 31.9435 79.0941 34.8103 79.0941 37.7776Z" fill="white"/>
<path d="M175.992 41.0466C176.041 40.7951 176.041 40.4934 176.041 40.2419C176.041 35.9166 172.727 32.0439 167.83 32.0439C163.379 32.0439 159.62 35.8663 159.62 40.2419C159.62 44.8186 163.379 48.5404 167.83 48.5404C172.134 48.5404 174.261 45.8246 175.151 43.8631L172.184 43.159C171.243 44.6175 169.611 45.5731 167.781 45.5731C165.159 45.5731 162.983 43.6116 162.588 41.0969L175.992 41.0466ZM162.785 38.6828C163.379 36.671 165.605 34.9107 167.83 34.9107C170.205 34.9107 172.282 36.4698 172.876 38.6828H162.785Z" fill="white"/>
<path d="M96.5557 32.2451L87.3064 53.4188H83.9923L86.4162 47.9872L79.6892 32.2451H82.9044L88.0483 44.2151L93.2916 32.2451H96.5557Z" fill="white"/>
<path d="M125.193 32.2452V33.8044C125.193 33.8044 123.116 31.8932 119.95 31.8932C115.449 31.8932 111.739 36.0173 111.739 40.1918C111.739 44.668 115.301 48.4903 119.95 48.4903C123.561 48.4903 125.193 46.5791 125.193 46.5791V48.088H128.21V32.2452H125.193ZM119.999 45.523C116.834 45.523 114.707 42.9579 114.707 40.1918C114.707 37.4758 117.131 34.8606 119.999 34.8606C122.72 34.8606 125.292 37.1238 125.292 40.1918C125.292 43.2597 123.165 45.523 119.999 45.523Z" fill="white"/>
<path d="M140.973 32.3457V35.1119C136.868 35.1119 134.049 37.9283 133.999 41.4993V48.0375H130.982V32.2451H133.999V36.0172C133.999 36.0172 135.483 32.3457 140.182 32.3457C140.528 32.3457 140.973 32.3457 140.973 32.3457Z" fill="white"/>
<path d="M154.624 32.2451V33.6031C154.624 33.6031 152.447 31.9434 149.727 31.9434C145.275 31.9434 141.813 35.9166 141.813 39.8899C141.813 45.4223 146.462 47.8867 149.727 47.8867C153.14 47.8867 154.723 46.0761 154.723 46.0761C154.723 46.0761 154.821 46.6293 154.821 46.8808C154.821 48.9428 153.684 51.9605 149.776 51.9605C147.353 51.9605 145.325 50.2505 144.88 47.9873H141.912C142.456 51.8599 145.77 54.9277 149.776 54.9277C153.783 54.9277 157.097 51.9102 157.641 47.9873C157.69 47.7358 157.69 47.4843 157.74 47.2831V32.1948H154.624V32.2451ZM149.727 44.8187C146.709 44.8187 144.88 42.2034 144.88 39.8899C144.88 37.174 147.303 35.0113 149.727 35.0113C152.002 35.0113 154.574 36.7213 154.574 39.8899C154.574 42.8572 152.596 44.8187 149.727 44.8187Z" fill="white"/>
<path d="M110.85 47.2328C110.85 47.2328 109.613 48.4902 107.289 48.4902C103.826 48.4902 101.501 45.5731 101.501 42.9075V35.0113H98.1873V32.2451H101.501V27.4169H104.519V32.2451H109.91V35.0113H104.519C104.519 35.0113 104.519 41.9017 104.519 42.6058C104.519 43.7626 105.409 45.4222 107.289 45.4222C108.822 45.4222 109.959 44.5672 109.959 44.5672L110.85 47.2328Z" fill="white"/>
<path d="M188.703 47.2328C188.703 47.2328 187.467 48.4902 185.142 48.4902C181.68 48.4902 179.355 45.5731 179.355 42.9075V35.0113H176.041V32.2451H179.355V27.4169H182.372V32.2451H187.764V35.0113H182.372C182.372 35.0113 182.372 41.9017 182.372 42.6058C182.372 43.7626 183.262 45.4222 185.142 45.4222C186.675 45.4222 187.813 44.5672 187.813 44.5672L188.703 47.2328Z" fill="white"/>
<path fill-rule="evenodd" clip-rule="evenodd" d="M27.8518 24.4998C19.1959 24.4998 12.1721 31.6416 12.1721 40.443C12.1721 49.2445 19.1959 56.3861 27.8518 56.3861C36.5079 56.3861 43.5316 49.2445 43.5316 40.443H38.2885C38.2885 46.3275 33.5896 51.0551 27.8518 51.0551C22.0647 51.0551 17.4152 46.2772 17.4152 40.443C17.4152 34.5586 22.1141 29.831 27.8518 29.831V24.4998Z" fill="white"/>
<path fill-rule="evenodd" clip-rule="evenodd" d="M38.2882 19.2189L33.0946 24.4998V31.4404L29.286 35.3131C28.8408 35.2125 28.3956 35.1119 27.901 35.1119C25.0322 35.1119 22.658 37.4757 22.658 40.4431C22.658 43.4104 24.9827 45.7743 27.8516 45.7743C30.7204 45.7743 33.0946 43.4104 33.0946 40.4431C33.0946 39.9904 33.0451 39.5378 32.9462 39.0851L36.8538 35.1119H38.3377H43.6302L48.8238 29.831H38.2882V19.2189Z" fill="white"/>
</g>
</svg>
