<svg width="120" height="197" viewBox="0 0 120 197" fill="none" xmlns="http://www.w3.org/2000/svg">
<path d="M13.3638 15.5481H19.4012V39.7997C19.4012 47.7556 23.7059 52.3901 30.0012 52.3901C36.2964 52.3901 40.4752 47.7556 40.4752 39.7997V8.29367H0V0.799377H46.7104V39.7997C46.7104 52.3901 40.2833 59.7225 30.199 59.7225C20.1147 59.7225 13.3638 52.3841 13.3638 39.7997V15.5481Z" fill="url(#paint0_linear_344_103)"/>
<path d="M0 67.4506H46.7104V99.4242C46.7104 114.946 37.3935 126.224 23.8378 126.224C10.2822 126.224 0 114.946 0 99.4242V67.4506ZM6.22926 99.4242C6.22926 110.546 13.6156 118.73 23.5141 118.73C33.4126 118.73 40.4752 110.546 40.4752 99.4242V74.9449H6.22926V99.4242Z" fill="url(#paint1_linear_344_103)"/>
<path d="M0 187.701L12.5305 178.744V149.24L17.9263 152.946V174.877L38.6166 160.05L0 132.483V123.91L45.2955 156.657C46.5785 157.586 47.3519 158.665 47.3519 160.362C47.3519 162.059 46.5785 163.066 45.2955 163.989L0 196.736V187.701Z" fill="url(#paint2_linear_344_103)"/>
<path d="M55.9854 140.205H59.2469C61.2014 140.205 62.3525 141.189 62.3525 142.951C62.3525 144.714 61.3213 145.649 59.4267 145.649H57.4243V148.095H55.9854V140.205ZM59.3428 144.63C60.386 144.63 60.9855 144.102 60.9855 143.023C60.9855 141.944 60.35 141.404 59.1989 141.404H57.4243V144.63H59.3428Z" fill="#0CA2FD"/>
<path d="M63.5754 140.205H68.9713V141.404H65.0143V143.659H68.156V144.594H65.0143V146.896H69.0792V148.095H63.5754V140.205Z" fill="#0CA2FD"/>
<path d="M70.1946 140.205H73.6599C75.6864 140.205 76.7296 141.081 76.7296 142.496C76.7296 143.515 76.2859 144.21 75.3626 144.378V144.402C76.3219 144.546 76.6816 145.217 76.6816 146.165V148.095H75.2307V146.189C75.2307 145.397 74.907 144.966 73.8518 144.966H71.6335V148.095H70.1946V140.205ZM73.6839 144.018C74.847 144.018 75.3507 143.515 75.3507 142.675C75.3507 141.884 74.7991 141.404 73.6479 141.404H71.6335V144.018H73.6839Z" fill="#0CA2FD"/>
<path d="M77.8567 145.397H79.1518C79.1518 146.405 79.6314 147.1 81.1422 147.1C82.749 147.1 83.1567 146.501 83.1567 145.853C83.1567 145.421 82.9768 145.17 82.6051 145.038C82.2094 144.882 81.3581 144.774 80.6746 144.678C79.8832 144.57 79.0438 144.39 78.6122 144.114C78.1325 143.815 77.8328 143.275 77.8328 142.532C77.8328 141.093 79.0678 140.085 81.1303 140.085C83.4685 140.085 84.3198 141.117 84.3198 142.915H83.0248C83.0248 141.752 82.3893 141.201 81.1542 141.201C79.9192 141.201 79.2597 141.692 79.2597 142.412C79.2597 142.855 79.4156 143.119 79.7273 143.263C80.075 143.431 80.9624 143.575 81.6459 143.671C82.4732 143.803 83.2406 143.934 83.7323 144.198C84.2719 144.474 84.5836 145.026 84.5836 145.757C84.5836 147.028 83.8402 148.215 81.1542 148.215C78.4683 148.215 77.8567 146.836 77.8567 145.397Z" fill="#0CA2FD"/>
<path d="M85.5789 144.114C85.5789 141.608 87.3775 140.085 89.6677 140.085C91.958 140.085 93.7686 141.608 93.7686 144.114C93.7686 146.62 91.97 148.215 89.6677 148.215C87.3655 148.215 85.5789 146.668 85.5789 144.114ZM92.3057 144.114C92.3057 142.352 91.1306 141.284 89.6677 141.284C88.2049 141.284 87.0417 142.352 87.0417 144.114C87.0417 145.877 88.2168 147.016 89.6677 147.016C91.1186 147.016 92.3057 145.925 92.3057 144.114Z" fill="#0CA2FD"/>
<path d="M95.0276 140.205H97.1859L100.939 146.201H100.963L100.939 140.205H102.294V148.095H100.591L96.3826 141.404H96.3706L96.3826 148.095H95.0276V140.205Z" fill="#0CA2FD"/>
<path d="M109.153 146.321H105.472L104.8 148.095H103.313L106.527 140.205H108.277L111.479 148.095H109.812L109.153 146.321ZM108.793 145.361L107.33 141.428H107.306L105.831 145.361H108.793Z" fill="#0CA2FD"/>
<path d="M112.51 140.205H113.949V146.896H117.858V148.095H112.51V140.205Z" fill="#0CA2FD"/>
<path d="M55.9854 156.393H59.0071C61.4772 156.393 63 157.82 63 160.326C63 162.832 61.5611 164.283 59.2589 164.283H55.9854V156.393ZM59.2349 163.084C60.6498 163.084 61.5731 162.137 61.5731 160.326C61.5731 158.515 60.5779 157.592 59.067 157.592H57.4243V163.084H59.2349Z" fill="#0CA2FD"/>
<path d="M64.3191 156.393H65.746V164.283H64.3191V156.393Z" fill="#0CA2FD"/>
<path d="M67.0649 160.422C67.0649 157.892 68.8156 156.273 71.1418 156.273C73.1323 156.273 74.6312 157.34 74.6312 159.139C74.6312 159.271 74.6192 159.463 74.6072 159.607H73.3242C73.3362 159.463 73.3362 159.331 73.3362 159.223C73.3362 158.108 72.3769 157.472 71.1658 157.472C69.643 157.472 68.5158 158.611 68.5158 160.434C68.5158 162.257 69.6789 163.288 71.1059 163.288C72.3649 163.288 73.3002 162.556 73.3002 161.489V161.309H70.8541V160.398H74.6911V164.283H73.492C73.516 163.971 73.552 163.408 73.564 162.868H73.552C73.3122 163.779 72.4249 164.403 70.986 164.403C68.7317 164.403 67.0649 162.892 67.0649 160.422Z" fill="#0CA2FD"/>
<path d="M76.1899 156.393H77.6169V164.283H76.1899V156.393Z" fill="#0CA2FD"/>
<path d="M81.1302 157.58H78.6841V156.393H85.0153V157.58H82.5691V164.283H81.1302V157.58Z" fill="#0CA2FD"/>
<path d="M89.9794 162.508H86.2983L85.6268 164.283H84.1399L87.3534 156.393H89.1041L92.3057 164.283H90.6389L89.9794 162.508ZM89.6197 161.549L88.1568 157.616H88.1329L86.658 161.549H89.6197Z" fill="#0CA2FD"/>
<path d="M93.3369 156.393H94.7758V163.084H98.6848V164.283H93.3369V156.393Z" fill="#0CA2FD"/>
<path d="M61.3093 178.696H57.6281L56.9566 180.471H55.4697L58.6833 172.581H60.4339L63.6355 180.471H61.9688L61.3093 178.696ZM60.9496 177.737L59.4867 173.804H59.4627L57.9878 177.737H60.9496Z" fill="#0CA2FD"/>
<path d="M64.115 177.773H65.4101C65.4101 178.78 65.8897 179.475 67.4005 179.475C69.0073 179.475 69.415 178.876 69.415 178.228C69.415 177.797 69.2351 177.545 68.8634 177.413C68.4677 177.257 67.6164 177.149 66.9329 177.053C66.1415 176.945 65.3021 176.765 64.8705 176.49C64.3908 176.19 64.0911 175.65 64.0911 174.907C64.0911 173.468 65.3261 172.461 67.3886 172.461C69.7268 172.461 70.5781 173.492 70.5781 175.291H69.2831C69.2831 174.127 68.6476 173.576 67.4125 173.576C66.1775 173.576 65.518 174.068 65.518 174.787C65.518 175.231 65.6739 175.494 65.9856 175.638C66.3334 175.806 67.2207 175.95 67.9042 176.046C68.7315 176.178 69.4989 176.31 69.9906 176.574C70.5302 176.849 70.8419 177.401 70.8419 178.132C70.8419 179.403 70.0985 180.591 67.4125 180.591C64.7266 180.591 64.115 179.212 64.115 177.773Z" fill="#0CA2FD"/>
<path d="M71.8731 177.773H73.1681C73.1681 178.78 73.6478 179.475 75.1586 179.475C76.7654 179.475 77.1731 178.876 77.1731 178.228C77.1731 177.797 76.9932 177.545 76.6215 177.413C76.2258 177.257 75.3744 177.149 74.691 177.053C73.8996 176.945 73.0602 176.765 72.6285 176.49C72.1489 176.19 71.8491 175.65 71.8491 174.907C71.8491 173.468 73.0842 172.461 75.1466 172.461C77.4848 172.461 78.3362 173.492 78.3362 175.291H77.0412C77.0412 174.127 76.4057 173.576 75.1706 173.576C73.9355 173.576 73.276 174.068 73.276 174.787C73.276 175.231 73.4319 175.494 73.7437 175.638C74.0914 175.806 74.9787 175.95 75.6622 176.046C76.4896 176.178 77.257 176.31 77.7486 176.574C78.2882 176.849 78.6 177.401 78.6 178.132C78.6 179.403 77.8565 180.591 75.1706 180.591C72.4846 180.591 71.8731 179.212 71.8731 177.773Z" fill="#0CA2FD"/>
<path d="M79.9312 172.581H81.3581V180.471H79.9312V172.581Z" fill="#0CA2FD"/>
<path d="M82.713 177.773H84.008C84.008 178.78 84.4876 179.475 85.9984 179.475C87.6052 179.475 88.0129 178.876 88.0129 178.228C88.0129 177.797 87.8331 177.545 87.4613 177.413C87.0656 177.257 86.2143 177.149 85.5308 177.053C84.7394 176.945 83.9 176.765 83.4684 176.49C82.9887 176.19 82.689 175.65 82.689 174.907C82.689 173.468 83.924 172.461 85.9865 172.461C88.3247 172.461 89.176 173.492 89.176 175.291H87.881C87.881 174.127 87.2455 173.576 86.0104 173.576C84.7754 173.576 84.1159 174.068 84.1159 174.787C84.1159 175.231 84.2718 175.494 84.5835 175.638C84.9313 175.806 85.8186 175.95 86.5021 176.046C87.3294 176.178 88.0968 176.31 88.5885 176.574C89.1281 176.849 89.4398 177.401 89.4398 178.132C89.4398 179.403 88.6964 180.591 86.0104 180.591C83.3245 180.591 82.713 179.212 82.713 177.773Z" fill="#0CA2FD"/>
<path d="M92.3177 173.768H89.8716V172.581H96.2028V173.768H93.7566V180.471H92.3177V173.768Z" fill="#0CA2FD"/>
<path d="M101.167 178.696H97.4858L96.8143 180.471H95.3274L98.5409 172.581H100.292L103.493 180.471H101.826L101.167 178.696ZM100.807 177.737L99.3443 173.804H99.3204L97.8455 177.737H100.807Z" fill="#0CA2FD"/>
<path d="M104.524 172.581H106.683L110.436 178.576H110.46L110.436 172.581H111.791V180.471H110.088L105.879 173.78H105.867L105.879 180.471H104.524V172.581Z" fill="#0CA2FD"/>
<path d="M115.244 173.768H112.798V172.581H119.129V173.768H116.683V180.471H115.244V173.768Z" fill="#0CA2FD"/>
<defs>
<linearGradient id="paint0_linear_344_103" x1="23.3522" y1="0.799377" x2="23.3522" y2="59.7285" gradientUnits="userSpaceOnUse">
<stop offset="0.02" stop-color="#0F2ACD"/>
<stop offset="0.65" stop-color="#0D3BC8"/>
<stop offset="1" stop-color="#1346C4"/>
</linearGradient>
<linearGradient id="paint1_linear_344_103" x1="23.3522" y1="67.4506" x2="23.3522" y2="126.224" gradientUnits="userSpaceOnUse">
<stop offset="0.02" stop-color="#1445C4"/>
<stop offset="0.33" stop-color="#135BDB"/>
<stop offset="0.75" stop-color="#1374F5"/>
<stop offset="1" stop-color="#137EFF"/>
</linearGradient>
<linearGradient id="paint2_linear_344_103" x1="23.676" y1="123.91" x2="23.676" y2="196.736" gradientUnits="userSpaceOnUse">
<stop offset="0.02" stop-color="#1571FF"/>
<stop offset="0.26" stop-color="#0E94FD"/>
<stop offset="0.59" stop-color="#06BFFA"/>
<stop offset="0.85" stop-color="#01D9F9"/>
<stop offset="1" stop-color="#00E3F9"/>
</linearGradient>
</defs>
</svg>
