<svg width="60" height="60" viewBox="0 0 60 60" fill="none" xmlns="http://www.w3.org/2000/svg">
<path d="M30 40.8251C24.025 40.8251 19.175 35.975 19.175 30C19.175 24.025 24.025 19.175 30 19.175C35.975 19.175 40.8251 24.025 40.8251 30C40.8251 35.975 35.975 40.8251 30 40.8251ZM30 22.925C26.1 22.925 22.925 26.1 22.925 30C22.925 33.9001 26.1 37.0751 30 37.0751C33.9001 37.0751 37.0751 33.9001 37.0751 30C37.0751 26.1 33.9001 22.925 30 22.925Z" fill="white"/>
<path d="M30 52.55C20.6 52.55 11.725 47.05 5.62495 37.5C2.97495 33.375 2.97495 26.65 5.62495 22.5C11.75 12.95 20.625 7.44995 30 7.44995C39.375 7.44995 48.25 12.95 54.35 22.5C57 26.625 57 33.35 54.35 37.5C48.25 47.05 39.375 52.55 30 52.55ZM30 11.2C21.925 11.2 14.2 16.05 8.79995 24.525C6.92495 27.45 6.92495 32.5499 8.79995 35.4749C14.2 43.9499 21.925 48.8 30 48.8C38.075 48.8 45.7999 43.9499 51.2 35.4749C53.075 32.5499 53.075 27.45 51.2 24.525C45.7999 16.05 38.075 11.2 30 11.2Z" fill="white"/>
</svg>
