<svg width="60" height="60" viewBox="0 0 60 60" fill="none" xmlns="http://www.w3.org/2000/svg">
<path d="M50 36.875C46.2 36.875 43.125 33.8 43.125 30C43.125 26.2 46.2 23.125 50 23.125C53.8 23.125 56.875 26.2 56.875 30C56.875 33.8 53.8 36.875 50 36.875ZM50 26.875C48.275 26.875 46.875 28.275 46.875 30C46.875 31.725 48.275 33.125 50 33.125C51.725 33.125 53.125 31.725 53.125 30C53.125 28.275 51.725 26.875 50 26.875Z" fill="white"/>
<path d="M50 16.875C46.2 16.875 43.125 13.8 43.125 10C43.125 6.2 46.2 3.125 50 3.125C53.8 3.125 56.875 6.2 56.875 10C56.875 13.8 53.8 16.875 50 16.875ZM50 6.875C48.275 6.875 46.875 8.275 46.875 10C46.875 11.725 48.275 13.125 50 13.125C51.725 13.125 53.125 11.725 53.125 10C53.125 8.275 51.725 6.875 50 6.875Z" fill="white"/>
<path d="M50 56.875C46.2 56.875 43.125 53.8 43.125 50C43.125 46.2 46.2 43.125 50 43.125C53.8 43.125 56.875 46.2 56.875 50C56.875 53.8 53.8 56.875 50 56.875ZM50 46.875C48.275 46.875 46.875 48.275 46.875 50C46.875 51.725 48.275 53.125 50 53.125C51.725 53.125 53.125 51.725 53.125 50C53.125 48.275 51.725 46.875 50 46.875Z" fill="white"/>
<path d="M10 36.875C6.2 36.875 3.125 33.8 3.125 30C3.125 26.2 6.2 23.125 10 23.125C13.8 23.125 16.875 26.2 16.875 30C16.875 33.8 13.8 36.875 10 36.875ZM10 26.875C8.275 26.875 6.875 28.275 6.875 30C6.875 31.725 8.275 33.125 10 33.125C11.725 33.125 13.125 31.725 13.125 30C13.125 28.275 11.725 26.875 10 26.875Z" fill="white"/>
<path d="M45 31.875H15C13.975 31.875 13.125 31.025 13.125 30C13.125 28.975 13.975 28.125 15 28.125H45C46.025 28.125 46.875 28.975 46.875 30C46.875 31.025 46.025 31.875 45 31.875Z" fill="white"/>
<path d="M45 51.875H35C28.95 51.875 25.625 48.55 25.625 42.5V17.5C25.625 11.45 28.95 8.125 35 8.125H45C46.025 8.125 46.875 8.975 46.875 10C46.875 11.025 46.025 11.875 45 11.875H35C31.05 11.875 29.375 13.55 29.375 17.5V42.5C29.375 46.45 31.05 48.125 35 48.125H45C46.025 48.125 46.875 48.975 46.875 50C46.875 51.025 46.025 51.875 45 51.875Z" fill="white"/>
</svg>
