<svg width="944" height="536" viewBox="0 0 944 536" fill="none" xmlns="http://www.w3.org/2000/svg">
<path d="M0.333334 27.6064C0.333334 42.334 12.2724 54.2731 27 54.2731C41.7276 54.2731 53.6667 42.334 53.6667 27.6064C53.6667 12.8789 41.7276 0.939779 27 0.939779C12.2724 0.939779 0.333334 12.8789 0.333334 27.6064ZM890.333 508.606C890.333 523.334 902.272 535.273 917 535.273C931.728 535.273 943.667 523.334 943.667 508.606C943.667 493.879 931.728 481.94 917 481.94C902.272 481.94 890.333 493.879 890.333 508.606ZM507.333 144.698C507.333 159.425 519.272 171.364 534 171.364C548.728 171.364 560.667 159.425 560.667 144.698C560.667 129.97 548.728 118.031 534 118.031C519.272 118.031 507.333 129.97 507.333 144.698ZM0.333334 389.448C0.333334 404.175 12.2724 416.114 27 416.114C41.7276 416.114 53.6667 404.175 53.6667 389.448C53.6667 374.72 41.7276 362.781 27 362.781C12.2724 362.781 0.333334 374.72 0.333334 389.448ZM27 32.6064H416.909V22.6064H27L27 32.6064ZM408.409 265.289H146.159V275.289H408.409V265.289ZM146.159 513.606H917V503.606H146.159V513.606ZM22 389.448C22 458.019 77.5878 513.606 146.159 513.606V503.606C83.1106 503.606 32 452.496 32 389.448H22ZM146.159 265.289C77.5878 265.289 22 320.877 22 389.448H32C32 326.399 83.1106 275.289 146.159 275.289V265.289ZM408.409 275.289C480.532 275.289 539 216.821 539 144.698H529C529 211.298 475.009 265.289 408.409 265.289V275.289ZM416.909 32.6064C478.815 32.6064 529 82.7914 529 144.698H539C539 77.2686 484.338 22.6064 416.909 22.6064V32.6064Z" fill="url(#paint0_linear_173_67)"/>
<defs>
<linearGradient id="paint0_linear_173_67" x1="43" y1="28" x2="823" y2="615" gradientUnits="userSpaceOnUse">
<stop offset="0.052082" stop-color="#0CA2FD"/>
<stop offset="0.2516" stop-color="#1648FA"/>
<stop offset="0.621065" stop-color="#4E1FFF"/>
<stop offset="0.621165" stop-color="#4B22FF"/>
<stop offset="0.951407" stop-color="#FF5D17"/>
</linearGradient>
</defs>
</svg>
