<svg width="970" height="661" viewBox="0 0 970 661" fill="none" xmlns="http://www.w3.org/2000/svg">
<path d="M0 39.9995C0 62.0909 17.9086 79.9995 40 79.9995C62.0914 79.9995 80 62.0909 80 39.9995C80 17.9081 62.0914 -0.000488281 40 -0.000488281C17.9086 -0.000488281 0 17.9081 0 39.9995ZM890 621C890 643.091 907.909 661 930 661C952.091 661 970 643.091 970 621C970 598.908 952.091 581 930 581C907.909 581 890 598.908 890 621ZM490.5 181.434C490.5 203.525 508.409 221.434 530.5 221.434C552.591 221.434 570.5 203.525 570.5 181.434C570.5 159.343 552.591 141.434 530.5 141.434C508.409 141.434 490.5 159.343 490.5 181.434ZM0 477.068C0 499.159 17.9086 517.068 40 517.068C62.0914 517.068 80 499.159 80 477.068C80 454.976 62.0914 437.068 40 437.068C17.9086 437.068 0 454.976 0 477.068ZM40 47.4995H389.065V32.4995H40L40 47.4995ZM387.5 325.636H183V340.636H387.5V325.636ZM183 628.5H930V613.5H183V628.5ZM523 181.434V190.136H538V181.434H523ZM183 613.5C108.229 613.5 47.5 551.966 47.5 477.068H32.5C32.5 560.123 99.8179 628.5 183 628.5V613.5ZM183 325.636C99.8179 325.636 32.5 394.012 32.5 477.068H47.5C47.5 402.169 108.229 340.636 183 340.636V325.636ZM387.5 340.636C470.619 340.636 538 273.254 538 190.136H523C523 264.97 462.335 325.636 387.5 325.636V340.636ZM389.065 47.4995C463.035 47.4995 523 107.464 523 181.434H538C538 99.1797 471.32 32.4995 389.065 32.4995V47.4995Z" fill="url(#paint0_linear_344_350)"/>
<defs>
<linearGradient id="paint0_linear_344_350" x1="262.5" y1="-200.501" x2="529.776" y2="989.139" gradientUnits="userSpaceOnUse">
<stop offset="0.0825806" stop-color="#8AD3FF"/>
<stop offset="0.342946" stop-color="#137EFF"/>
<stop offset="0.598435" stop-color="#931DCE"/>
<stop offset="0.745255" stop-color="#F89953"/>
<stop offset="0.857573" stop-color="#FD4118"/>
</linearGradient>
</defs>
</svg>
