<svg width="60" height="60" viewBox="0 0 60 60" fill="none" xmlns="http://www.w3.org/2000/svg">
<path d="M29.3 56.875H18.05C7.67505 56.875 3.05005 52.25 3.05005 41.875V30.625C3.05005 20.25 7.67505 15.625 18.05 15.625H29.3C39.675 15.625 44.3 20.25 44.3 30.625V41.875C44.3 52.25 39.675 56.875 29.3 56.875ZM18.05 19.375C9.75005 19.375 6.80005 22.325 6.80005 30.625V41.875C6.80005 50.175 9.75005 53.125 18.05 53.125H29.3C37.6 53.125 40.55 50.175 40.55 41.875V30.625C40.55 22.325 37.6 19.375 29.3 19.375H18.05Z" fill="white"/>
<path d="M45.3001 34.375H42.425C41.4 34.375 40.55 33.525 40.55 32.5V30.625C40.55 22.325 37.6 19.375 29.3 19.375H27.425C26.4 19.375 25.55 18.525 25.55 17.5V14.625C25.55 6.675 29.1 3.125 37.05 3.125H45.3001C53.25 3.125 56.8 6.675 56.8 14.625V22.875C56.8 30.825 53.25 34.375 45.3001 34.375ZM44.3 30.625H45.3001C51.1751 30.625 53.05 28.75 53.05 22.875V14.625C53.05 8.75 51.1751 6.875 45.3001 6.875H37.05C31.175 6.875 29.3 8.75 29.3 14.625V15.625C39.675 15.625 44.3 20.25 44.3 30.625Z" fill="white"/>
</svg>
