<svg width="60" height="60" viewBox="0 0 60 60" fill="none" xmlns="http://www.w3.org/2000/svg">
<path d="M12.975 15.95C12.5 15.95 12 15.75 11.65 15.4C10.925 14.675 10.925 13.475 11.65 12.75L20.725 3.67498C21.45 2.94998 22.65 2.94998 23.375 3.67498C24.1 4.39998 24.1 5.59998 23.375 6.32498L14.3 15.4C13.925 15.75 13.45 15.95 12.975 15.95Z" fill="white"/>
<path d="M47.0251 15.95C46.5501 15.95 46.0751 15.775 45.7001 15.4L36.625 6.32498C35.9 5.59998 35.9 4.39998 36.625 3.67498C37.35 2.94998 38.5501 2.94998 39.2751 3.67498L48.3501 12.75C49.0751 13.475 49.0751 14.675 48.3501 15.4C48.0001 15.75 47.5001 15.95 47.0251 15.95Z" fill="white"/>
<path d="M50.525 26.5C50.35 26.5 50.175 26.5 50 26.5H49.425H10C8.25 26.525 6.25 26.525 4.8 25.075C3.65 23.95 3.125 22.2 3.125 19.625C3.125 12.75 8.15 12.75 10.55 12.75H49.45C51.85 12.75 56.875 12.75 56.875 19.625C56.875 22.225 56.35 23.95 55.2 25.075C53.9 26.375 52.15 26.5 50.525 26.5ZM10.55 22.75H50.025C51.15 22.775 52.2 22.775 52.55 22.425C52.725 22.25 53.1 21.65 53.1 19.625C53.1 16.8 52.4 16.5 49.425 16.5H10.55C7.575 16.5 6.875 16.8 6.875 19.625C6.875 21.65 7.275 22.25 7.425 22.425C7.775 22.75 8.85 22.75 9.95 22.75H10.55Z" fill="white"/>
<path d="M24.3999 45.75C23.3749 45.75 22.5249 44.9 22.5249 43.875V35C22.5249 33.975 23.3749 33.125 24.3999 33.125C25.4249 33.125 26.2749 33.975 26.2749 35V43.875C26.2749 44.925 25.4249 45.75 24.3999 45.75Z" fill="white"/>
<path d="M35.8999 45.75C34.8749 45.75 34.0249 44.9 34.0249 43.875V35C34.0249 33.975 34.8749 33.125 35.8999 33.125C36.9249 33.125 37.7749 33.975 37.7749 35V43.875C37.7749 44.925 36.9249 45.75 35.8999 45.75Z" fill="white"/>
<path d="M37.2251 56.875H22.1501C13.2001 56.875 11.2001 51.55 10.4251 46.925L6.90012 25.3C6.72512 24.275 7.42512 23.325 8.45012 23.15C9.47512 22.975 10.4251 23.675 10.6001 24.7L14.1251 46.3C14.8501 50.725 16.3501 53.125 22.1501 53.125H37.2251C43.6501 53.125 44.3751 50.875 45.2001 46.525L49.4001 24.65C49.6001 23.625 50.5751 22.95 51.6001 23.175C52.6251 23.375 53.2751 24.35 53.0751 25.375L48.8751 47.25C47.9001 52.325 46.2751 56.875 37.2251 56.875Z" fill="white"/>
</svg>
