<svg width="60" height="60" viewBox="0 0 60 60" fill="none" xmlns="http://www.w3.org/2000/svg">
<path d="M30 54.1251C29.45 54.1251 28.625 54.0751 27.85 53.8C18.3 50.525 3.125 38.925 3.125 21.725C3.125 12.975 10.2 5.87494 18.9 5.87494C23.125 5.87494 27.075 7.52501 30 10.475C32.925 7.52501 36.875 5.87494 41.1 5.87494C49.8 5.87494 56.875 12.975 56.875 21.725C56.875 24.75 56.425 27.725 55.525 30.575C55.225 31.55 54.15 32.1249 53.175 31.7999C52.175 31.4999 51.65 30.4251 51.95 29.4501C52.725 26.9751 53.125 24.375 53.125 21.75C53.125 15.075 47.725 9.64996 41.1 9.64996C37.3 9.64996 33.775 11.4249 31.5 14.4749C30.8 15.4249 29.2 15.4249 28.5 14.4749C26.2 11.3999 22.7 9.64996 18.9 9.64996C12.275 9.64996 6.875 15.075 6.875 21.75C6.875 38.85 23.3 48.325 29.075 50.3C29.225 50.35 29.575 50.425 30 50.425C31.025 50.425 31.875 51.275 31.875 52.3C31.875 53.325 31.025 54.1251 30 54.1251Z" fill="white"/>
<path d="M44.3501 54.375C38.9001 54.375 34.4751 49.95 34.4751 44.5C34.4751 39.05 38.9001 34.6249 44.3501 34.6249C49.8001 34.6249 54.2251 39.05 54.2251 44.5C54.2251 49.95 49.8001 54.375 44.3501 54.375ZM44.3501 38.3749C40.9751 38.3749 38.2251 41.125 38.2251 44.5C38.2251 47.875 40.9751 50.625 44.3501 50.625C47.7251 50.625 50.4751 47.875 50.4751 44.5C50.4751 41.125 47.7251 38.3749 44.3501 38.3749Z" fill="white"/>
<path d="M53.8499 55.875C53.3749 55.875 52.9 55.7001 52.525 55.3251L50.025 52.8251C49.3 52.1001 49.3 50.9001 50.025 50.1751C50.75 49.4501 51.9499 49.4501 52.6749 50.1751L55.1749 52.6751C55.8999 53.4001 55.8999 54.6001 55.1749 55.3251C54.7999 55.6751 54.3249 55.875 53.8499 55.875Z" fill="white"/>
</svg>
