<svg width="60" height="60" viewBox="0 0 60 60" fill="none" xmlns="http://www.w3.org/2000/svg">
<path d="M40.6999 55.25H31.1999C29.7999 55.25 26.7499 54.825 25.1249 53.2L17.5499 47.35L19.8499 44.375L27.5999 50.375C28.2249 50.975 29.7999 51.475 31.1999 51.475H40.6999C42.9499 51.475 45.3749 49.675 45.8749 47.65L51.9249 29.275C52.3249 28.175 52.2499 27.175 51.7249 26.45C51.1749 25.675 50.1749 25.225 48.9499 25.225H38.9499C37.6499 25.225 36.4499 24.675 35.6249 23.725C34.7749 22.75 34.3999 21.45 34.5999 20.1L35.8499 12.075C36.1499 10.675 35.1999 9.09998 33.8499 8.64998C32.6249 8.19998 31.0499 8.84998 30.4999 9.64997L20.2499 24.9L17.1499 22.825L27.3999 7.57498C28.9749 5.22498 32.4249 4.09998 35.1249 5.12498C38.2499 6.14998 40.2499 9.59997 39.5499 12.8L38.3249 20.675C38.2999 20.85 38.2999 21.1 38.4749 21.3C38.5999 21.425 38.7749 21.5 38.9749 21.5H48.9749C51.4249 21.5 53.5499 22.525 54.7999 24.3C56.0249 26.025 56.2749 28.3 55.4749 30.5L49.4999 48.7C48.5749 52.325 44.7249 55.25 40.6999 55.25Z" fill="white"/>
<path d="M13.45 52.5H10.95C6.32495 52.5 4.07495 50.325 4.07495 45.875V21.375C4.07495 16.925 6.32495 14.75 10.95 14.75H13.45C18.075 14.75 20.325 16.925 20.325 21.375V45.875C20.325 50.325 18.075 52.5 13.45 52.5ZM10.95 18.5C8.22495 18.5 7.82495 19.15 7.82495 21.375V45.875C7.82495 48.1 8.22495 48.75 10.95 48.75H13.45C16.175 48.75 16.575 48.1 16.575 45.875V21.375C16.575 19.15 16.175 18.5 13.45 18.5H10.95Z" fill="white"/>
</svg>
