<svg width="36" height="32" viewBox="0 0 36 32" fill="none" xmlns="http://www.w3.org/2000/svg">
<path d="M0.543726 15.284C4.22663 13.1748 8.33775 11.4143 12.179 9.64493C18.7874 6.74677 25.422 3.89884 32.1236 1.24744C33.4275 0.7957 35.7703 0.353975 36 2.36298C35.8742 5.20682 35.3567 8.034 35.0018 10.8612C34.1009 17.0784 33.0597 23.2744 32.0443 29.4712C31.6944 31.5353 29.2075 32.6038 27.6163 31.2829C23.7921 28.5972 19.9386 25.9375 16.1632 23.1895C14.9266 21.8829 16.0734 20.0066 17.1778 19.0736C20.3275 15.8462 23.6678 13.1042 26.6529 9.71003C27.4581 7.68836 25.0789 9.39215 24.2942 9.91426C19.9822 13.0038 15.7758 16.2819 11.2297 18.9972C8.90751 20.3263 6.20099 19.1905 3.87987 18.4489C1.79874 17.5529 -1.25094 16.6503 0.543515 15.2843L0.543726 15.284Z" fill="white"/>
</svg>
