<svg width="61" height="33" viewBox="0 0 61 33" fill="none" xmlns="http://www.w3.org/2000/svg">
<path fill-rule="evenodd" clip-rule="evenodd" d="M59.5646 3.0849C60.0168 1.83223 59.5646 0.921196 57.5618 0.921196H50.9077C49.228 0.921196 48.4527 1.71835 48.0005 2.57244C48.0005 2.57244 44.5765 9.86069 39.7958 14.5867C38.2454 15.9532 37.5347 16.4087 36.6949 16.4087C36.2426 16.4087 35.6612 15.9532 35.6612 14.7006V3.02796C35.6612 1.54753 35.1444 0.864258 33.7231 0.864258H23.2573C22.2237 0.864258 21.5776 1.54753 21.5776 2.2308C21.5776 3.65429 23.968 3.99593 24.2264 7.9817V16.6365C24.2264 18.5155 23.8387 18.8571 22.9989 18.8571C20.7378 18.8571 15.2465 11.5119 11.9517 3.14184C11.3056 1.49059 10.6596 0.864258 8.97991 0.864258H2.26113C0.323018 0.864258 0 1.66141 0 2.5155C0 4.05287 2.26113 11.7966 10.5304 22.0458C16.0217 29.0493 23.8387 32.8073 30.8805 32.8073C35.1444 32.8073 35.6612 31.9532 35.6612 30.5297V25.2344C35.6612 23.5262 36.0488 23.2415 37.4055 23.2415C38.3746 23.2415 40.1189 23.697 44.0597 27.0564C48.5819 31.0422 49.3572 32.8643 51.8767 32.8643H58.5309C60.469 32.8643 61.3735 32.0102 60.8566 30.3589C60.2752 28.7077 58.0787 26.3162 55.2361 23.4692C53.6856 21.8749 51.3599 20.1098 50.6493 19.2557C49.6802 18.1169 49.9386 17.6614 50.6493 16.6365C50.5847 16.6365 58.7247 6.50127 59.5646 3.0849Z" fill="white"/>
</svg>
