<svg width="202" height="77" viewBox="0 0 202 77" fill="none" xmlns="http://www.w3.org/2000/svg">
<path d="M7.9812 37.5703C7.9812 30.0242 7.9812 26.2512 10.2703 23.9069C12.5595 21.5626 16.2438 21.5626 23.6124 21.5626H24.9716C32.3402 21.5626 36.0246 21.5626 38.3136 23.9069C40.6028 26.2512 40.6028 30.0242 40.6028 37.5703V38.9623C40.6028 46.5084 40.6028 50.2815 38.3136 52.6257C36.0246 54.97 32.3402 54.97 24.9716 54.97H23.6124C16.2438 54.97 12.5595 54.97 10.2703 52.6257C7.9812 50.2815 7.9812 46.5084 7.9812 38.9623L7.9812 37.5703Z" fill="white"/>
<path fill-rule="evenodd" clip-rule="evenodd" d="M16.817 32.0024H14.4378C13.758 32.0024 13.6221 32.3301 13.6221 32.6913C13.6221 33.3366 14.4287 36.5367 17.3778 40.769C19.3438 43.6594 22.1138 45.2262 24.6344 45.2262C26.1468 45.2262 26.3339 44.8782 26.3339 44.2788V42.0943C26.3339 41.3983 26.4771 41.2594 26.956 41.2594C27.3089 41.2594 27.9138 41.44 29.3254 42.8336C30.9386 44.4853 31.2045 45.2262 32.1119 45.2262H34.4911C35.1709 45.2262 35.5108 44.8782 35.3147 44.1915C35.1002 43.5071 34.33 42.514 33.3079 41.3368C32.7534 40.6658 31.9216 39.9433 31.6695 39.5819C31.3167 39.1174 31.4175 38.9109 31.6695 38.498C31.6695 38.498 34.5682 34.3172 34.8707 32.8979C35.0219 32.3817 34.8707 32.0024 34.1512 32.0024H31.772C31.1671 32.0024 30.8882 32.3301 30.7369 32.6913C30.7369 32.6913 29.527 35.7108 27.8131 37.6722C27.2585 38.2399 27.0064 38.4206 26.7039 38.4206C26.5527 38.4206 26.3338 38.2399 26.3338 37.7238V32.8979C26.3338 32.2785 26.1583 32.0024 25.6541 32.0024H21.9153C21.5373 32.0024 21.3099 32.2899 21.3099 32.5624C21.3099 33.1495 22.1669 33.2849 22.2552 34.9366V38.5239C22.2552 39.3103 22.1164 39.4529 21.814 39.4529C21.0075 39.4529 19.0455 36.42 17.8818 32.9495C17.6538 32.2749 17.4251 32.0024 16.817 32.0024Z" fill="#131654"/>
<path d="M63.6369 37.9734C64.9305 37.3551 65.7642 36.3247 65.7642 34.7349C65.7642 32.3208 63.6082 30.6133 60.5034 30.6133H53.3452V45.9222H60.8196C64.0394 45.9222 66.2817 44.1264 66.2817 41.6828C66.2817 39.8281 65.103 38.4444 63.6369 37.9734ZM56.6512 33.4101H60.5034C61.6533 33.4101 62.4582 34.1167 62.4582 35.0882C62.4582 36.0597 61.6533 36.7369 60.5034 36.7369H56.6512V33.4101ZM60.8196 43.1254H56.6512V39.3865H60.8196C62.1133 39.3865 62.9757 40.1519 62.9757 41.2707C62.9757 42.3894 62.1133 43.1254 60.8196 43.1254Z" fill="white"/>
<path d="M78.577 45.9222H82.9177L76.0468 37.9734L82.3427 30.6133H78.4044L73.4022 36.5602H72.5973V30.6133H69.2913V45.9222H72.5973V39.8281H73.4022L78.577 45.9222Z" fill="white"/>
<path d="M91.3559 46.2168C96.0418 46.2168 99.3481 42.9195 99.3481 38.2679C99.3481 33.6163 96.0418 30.319 91.3559 30.319C86.6699 30.319 83.3643 33.6163 83.3643 38.2679C83.3643 42.9195 86.6699 46.2168 91.3559 46.2168ZM91.3559 43.1255C88.6537 43.1255 86.814 41.153 86.814 38.2679C86.814 35.3827 88.6537 33.4102 91.3559 33.4102C94.0587 33.4102 95.8984 35.3827 95.8984 38.2679C95.8984 41.153 94.0587 43.1255 91.3559 43.1255Z" fill="white"/>
<path d="M112.226 30.6133V36.6485H105.528V30.6133H102.222V45.9222H105.528V39.7398H112.226V45.9222H115.532V30.6133H112.226Z" fill="white"/>
<path d="M123 45.9222H126.306V33.7045H131.481V30.6133H117.825V33.7045H123V45.9222Z" fill="white"/>
<path d="M139.31 30.319C136.407 30.319 133.848 31.8499 133.101 34.4995L136.148 35.0294C136.608 34.0873 137.643 33.2041 139.138 33.2041C140.949 33.2041 142.012 34.5289 142.156 36.5309H138.936C134.538 36.5309 132.353 38.5034 132.353 41.3297C132.353 44.1854 134.509 46.2168 137.557 46.2168C140 46.2168 141.639 44.7742 142.358 43.5083L143.047 45.9224H145.491V37.3258C145.491 32.8803 143.134 30.319 139.31 30.319ZM138.333 43.3611C136.723 43.3611 135.688 42.5073 135.688 41.1825C135.688 40.0049 136.522 39.1805 139.051 39.1805H142.185C142.185 41.683 140.633 43.3611 138.333 43.3611Z" fill="white"/>
<path d="M158.363 45.9222H162.704L155.833 37.9734L162.129 30.6133H158.191L153.189 36.5602H152.383V30.6133H149.078V45.9222H152.383V39.8281H153.189L158.363 45.9222Z" fill="white"/>
<path d="M168.311 45.9222H171.617V33.7045H176.792V30.6133H163.136V33.7045H168.311V45.9222Z" fill="white"/>
<path d="M193.188 38.0912C193.188 33.6752 189.968 30.319 185.426 30.319C180.884 30.319 177.665 33.6457 177.665 38.2679C177.665 42.89 180.884 46.2168 185.426 46.2168C188.531 46.2168 191.463 44.7153 192.584 41.8007L189.48 41.2708C188.761 42.3601 187.381 43.1255 185.628 43.1255C183.097 43.1255 181.43 41.5358 181.114 39.1805H193.131C193.159 38.8567 193.188 38.5034 193.188 38.0912ZM185.426 33.263C187.496 33.263 189.048 34.6173 189.594 36.5309H181.315C181.861 34.5584 183.414 33.263 185.426 33.263Z" fill="white"/>
</svg>
