<svg width="43" height="42" viewBox="0 0 43 42" fill="none" xmlns="http://www.w3.org/2000/svg">
<g id="icon">
<g id="Rectangle 15" style="mix-blend-mode:overlay">
<rect width="41.9984" height="42" rx="10" fill="#1648FA"/>
</g>
<g id="brush">
<path id="Vector" d="M19.4299 27.3699C19.2799 27.3699 19.1399 27.3299 19.0099 27.2399C18.7999 27.0999 18.6799 26.8699 18.6799 26.6199C18.6799 26.4699 18.6699 26.3099 18.6499 26.1499C18.5599 25.4399 18.2399 24.8199 17.6999 24.2799C17.1599 23.7399 16.4899 23.3999 15.7699 23.3099C15.6499 23.2999 15.4799 23.2899 15.3199 23.2999C15.0599 23.3199 14.8199 23.2099 14.6699 22.9999C14.5199 22.7999 14.4799 22.5299 14.5599 22.2899C14.7099 21.8799 14.9299 21.5099 15.1899 21.2099L16.7299 19.2699C19.3799 15.9599 24.7499 11.9799 28.6799 10.3999C29.5099 10.0799 30.3999 10.2699 31.0099 10.8699C31.6399 11.4999 31.8299 12.3999 31.4999 13.2199C29.9199 17.1599 25.9499 22.5199 22.6399 25.1699L20.6699 26.7499C20.2999 27.0199 19.9999 27.1899 19.6999 27.3099C19.6199 27.3499 19.5199 27.3699 19.4299 27.3699ZM16.5399 21.9399C17.3799 22.1599 18.1299 22.5999 18.7599 23.2299C19.3899 23.8499 19.8099 24.5699 20.0199 25.3699L21.7099 24.0099C24.8499 21.4999 28.6199 16.4099 30.1099 12.6699C30.2599 12.2999 30.0499 12.0399 29.9499 11.9499C29.8799 11.8799 29.6199 11.6599 29.2199 11.8099C25.4999 13.3099 20.4099 17.0799 17.8899 20.2199L16.5399 21.9399Z" fill="white"/>
<path id="Vector_2" d="M13.0801 31.7501C12.3301 31.7501 11.6101 31.4501 11.0701 30.9101C10.4501 30.2901 10.1501 29.4301 10.2501 28.5501L10.5201 26.0901C10.7801 23.6501 12.7801 21.8401 15.2601 21.7901C15.4501 21.7801 15.7001 21.7901 15.9301 21.8101C17.0201 21.9501 17.9901 22.4401 18.7701 23.2201C19.5401 23.9901 20.0001 24.9101 20.1401 25.9401C20.1701 26.1601 20.1901 26.4001 20.1901 26.6101C20.1901 27.9301 19.6801 29.1601 18.7601 30.0901C17.9901 30.8501 17.0001 31.3201 15.8801 31.4601L13.4101 31.7301C13.3001 31.7401 13.1901 31.7501 13.0801 31.7501ZM15.4501 23.3001C15.4101 23.3001 15.3601 23.3001 15.3201 23.3001C13.8101 23.3301 12.2101 24.3601 12.0101 26.2601L11.7401 28.7201C11.6901 29.1401 11.8401 29.5501 12.1301 29.8501C12.4201 30.1401 12.8301 30.2901 13.2401 30.2401L15.7001 29.9701C16.4701 29.8701 17.1601 29.5501 17.6801 29.0301C18.3201 28.3901 18.6801 27.5301 18.6801 26.6101C18.6801 26.4601 18.6701 26.3001 18.6501 26.1401C18.5601 25.4301 18.2401 24.8101 17.7001 24.2701C17.1601 23.7301 16.4901 23.3901 15.7701 23.3001C15.6901 23.3001 15.5701 23.3001 15.4501 23.3001Z" fill="white"/>
<path id="Vector_3" d="M23.24 24.22C22.83 24.22 22.49 23.88 22.49 23.47C22.49 21.27 20.7 19.49 18.51 19.49C18.1 19.49 17.76 19.15 17.76 18.74C17.76 18.33 18.09 17.99 18.5 17.99C21.52 17.99 23.98 20.45 23.98 23.47C23.99 23.89 23.65 24.22 23.24 24.22Z" fill="white"/>
</g>
</g>
</svg>
