<svg width="202" height="77" viewBox="0 0 202 77" fill="none" xmlns="http://www.w3.org/2000/svg">
<path d="M163.592 53.4673C166.325 53.4673 168.26 52.9645 169.702 51.8814V46.9692C168.222 48.0135 166.438 48.6711 163.934 48.6711C159.721 48.6711 157.975 45.3446 157.975 40.0842C157.975 34.5531 160.1 31.7295 163.971 31.7295C166.249 31.7295 168.488 32.5418 169.664 33.3154V28.2097C168.412 27.5135 166.249 27.0106 163.288 27.0106C155.736 27.0106 151.826 32.5418 151.826 40.2776C151.864 48.7484 155.698 53.4673 163.592 53.4673ZM126.663 51.2239V46.3116C124.842 47.588 121.73 48.7097 118.883 48.7097C114.556 48.7097 112.924 46.621 112.659 42.3663H126.929V39.1946C126.929 30.337 123.096 27.0106 117.213 27.0106C110.002 27.0106 106.586 32.6191 106.586 40.3163C106.586 49.1739 110.875 53.4673 118.39 53.4673C122.147 53.4673 124.918 52.423 126.663 51.2239ZM72.5042 27.4748V37.5314H64.6099V27.4748H58.6892V52.9645H64.6099V42.3276H72.5042V52.9645H78.4249V27.4748H72.5042ZM105.106 48.1682H102.487V27.4748H85.2565V29.6408C85.2565 35.8682 84.8769 43.9135 82.7895 48.1682H80.8919V58.7664H86.3571V52.9645H99.6028V58.7664H105.068V48.1682H105.106ZM145.526 52.9645H152.244L142.756 39.2333L151.105 27.4748H145.147L136.797 39.2333V27.4748H130.876V52.9645H136.797V40.4324L145.526 52.9645ZM117.061 31.7295C119.984 31.7295 120.895 34.205 120.895 37.4154V37.9182H112.659C112.811 33.8569 114.253 31.7295 117.061 31.7295ZM96.5665 48.1682H88.2168C89.8488 44.339 90.3043 37.3767 90.3043 32.9672V32.1937H96.5665V48.1682Z" fill="white"/>
<path d="M53.7554 52.9645H47.7209V22.5239H45.0262C40.0922 22.5239 37.5114 25.0381 37.5114 28.79C37.5114 33.0447 39.2952 35.0173 42.9767 37.5315L46.013 39.6202L37.2837 52.9645H30.7937L38.65 41.0513C34.1336 37.7636 31.5907 34.5532 31.5907 29.1381C31.5907 22.3692 36.221 17.7664 44.9882 17.7664H53.7175V52.9645H53.7554Z" fill="white"/>
</svg>
